# https://github.com/mikedh/trimesh

o motor.stl
v 0.00340000102587891 0.00599999997683716 -0.00000000002316290
v 0.00340000102587891 0.00587316987582398 -0.00120211651257330
v 0.00340000102587891 0.00599999997683716 -0.00449999996355825
v 0.00340000102587891 0.00549826524325562 -0.00235129692486578
v 0.00340000102587891 0.00489179322787476 -0.00339693679741674
v 0.00340000102587891 0.00549999997683716 -0.00499999997683710
v 0.00340000102587891 0.00408046338626099 -0.00429299058846289
v 0.00340000102587891 0.00310000035830689 -0.00499999997683710
v 0.00340000102587891 0.00562940976687622 -0.00498296289040798
v 0.00340000102587891 0.00574999997683716 -0.00493301268003040
v 0.00340000102587891 0.00585355374880982 -0.00485355336300188
v 0.00340000102587891 0.00593301293917847 -0.00474999996355825
v 0.00340000102587891 0.00598296258517456 -0.00462940948537641
v 0.00340000102587891 0.00310000035830689 0.00499999997683710
v 0.00340000102587891 0.00408046338626099 0.00429299066134638
v 0.00340000102587891 0.00549999997683716 0.00499999997683710
v 0.00340000102587891 0.00489179322787476 0.00339693734713740
v 0.00340000102587891 0.00599999997683716 0.00449999997683710
v 0.00340000102587891 0.00549826524325562 0.00235129687853998
v 0.00340000102587891 0.00587316987582398 0.00120211646624750
v 0.00340000102587891 0.00598296258517456 0.00462940976687617
v 0.00340000102587891 0.00593301293917847 0.00474999997683710
v 0.00340000102587891 0.00585355374880982 0.00485355374880976
v 0.00340000102587891 0.00574999997683716 0.00493301293917841
v 0.00340000102587891 0.00562940976687622 0.00498296258517450
v 0.00340000102587891 -0.00309999992779541 -0.00499999997683710
v 0.00340000102587891 -0.00408046295574951 -0.00429299058846289
v 0.00340000102587891 -0.00549999996355820 -0.00499999997683710
v 0.00340000102587891 -0.00489179363182831 -0.00339693679741674
v 0.00340000102587891 -0.00599999997683716 -0.00449999996355825
v 0.00340000102587891 -0.00549826475313949 -0.00235129692486578
v 0.00340000102587891 -0.00587316990724850 -0.00120211651257330
v 0.00340000102587891 -0.00599999997683693 -0.00000000002316290
v 0.00340000102587891 -0.00598296289040792 -0.00462940948537641
v 0.00340000102587891 -0.00593301268003035 -0.00474999996355825
v 0.00340000102587891 -0.00585355336300182 -0.00485355336300188
v 0.00340000102587891 -0.00574999996355820 -0.00493301268003040
v 0.00340000102587891 -0.00562940948537636 -0.00498296289040798
v -0.00859999992779541 -0.00599999997683716 -0.00449999996355825
v -0.00859999992779541 -0.00599999997683693 0.00449999997683710
v 0.00340000102587891 -0.00599999997683693 0.00449999997683710
v -0.00940000011853027 0.00051763818331909 0.00193185184069819
v -0.00940000011853027 0.00038822839328003 0.00144888875552363
v -0.00940000011853027 -0.00000000002316284 0.00199999997683710
v -0.00940000011853027 -0.00000000002316284 0.00149999997683710
v -0.00940000011853027 -0.00038822843960571 0.00144888875552363
v -0.00940000011853027 0.00074999997683716 0.00129903791018671
v -0.00940000011853027 0.00099999997683716 0.00173205087252802
v -0.00940000011853027 0.00106066033908081 0.00106066033908075
v -0.00940000011853027 0.00141421363421631 0.00141421363421625
v -0.00940000011853027 0.00129903791018677 0.00074999997683710
v -0.00940000011853027 0.00173205087252808 0.00099999997683710
v -0.00940000011853027 0.00144888875552368 0.00038822839327997
v -0.00940000011853027 0.00193185184069824 0.00051763818331904
v -0.00940000011853027 0.00149999997683716 -0.00000000002316290
v -0.00940000011853027 0.00199999997683716 -0.00000000002316290
v -0.00940000011853027 0.00193185184069824 -0.00051763822964483
v -0.00940000011853027 0.00144888875552368 -0.00038822843960577
v -0.00940000011853027 0.00173205087252808 -0.00100000002316290
v -0.00940000011853027 0.00129903791018677 -0.00075000002316290
v -0.00940000011853027 0.00141421363421631 -0.00141421344212347
v -0.00940000011853027 0.00106066033908081 -0.00106066014698797
v -0.00940000011853027 0.00099999997683716 -0.00173205068043524
v -0.00940000011853027 0.00074999997683716 -0.00129903819493109
v -0.00940000011853027 0.00051763818331909 -0.00193185164860540
v -0.00940000011853027 0.00038822839328003 -0.00144888880184942
v -0.00940000011853027 -0.00000000002316284 -0.00150000002316290
v -0.00940000011853027 -0.00000000002316284 -0.00200000002316290
v -0.00940000011853027 -0.00038822843960571 -0.00144888880184942
v -0.00940000011853027 -0.00051763822964477 -0.00193185164860540
v -0.00940000011853027 -0.00075000002316284 -0.00129903819493109
v -0.00940000011853027 -0.00100000002316284 -0.00173205068043524
v -0.00940000011853027 -0.00106066038540649 -0.00106066014698797
v -0.00940000011853027 -0.00141421368054199 -0.00141421344212347
v -0.00940000011853027 -0.00129903795651245 -0.00075000002316290
v -0.00940000011853027 -0.00173205091885376 -0.00100000002316290
v -0.00940000011853027 -0.00144888880184936 -0.00038822843960577
v -0.00940000011853027 -0.00193185141018677 -0.00051763822964483
v -0.00940000011853027 -0.00150000002316284 -0.00000000002316290
v -0.00940000011853027 -0.00200000002316284 -0.00000000002316290
v -0.00940000011853027 -0.00193185141018677 0.00051763818331904
v -0.00940000011853027 -0.00144888880184936 0.00038822839327997
v -0.00940000011853027 -0.00173205091885376 0.00099999997683710
v -0.00940000011853027 -0.00129903795651245 0.00074999997683710
v -0.00940000011853027 -0.00141421368054199 0.00141421363421625
v -0.00940000011853027 -0.00106066038540649 0.00106066033908075
v -0.00940000011853027 -0.00100000002316284 0.00173205087252802
v -0.00940000011853027 -0.00075000002316284 0.00129903791018671
v -0.00940000011853027 -0.00051763822964477 0.00193185184069819
v -0.00859999992779541 -0.00051763822964477 0.00193185184069819
v -0.00859999992779541 -0.00000000002316284 0.00199999997683710
v -0.00859999992779541 0.00051763818331909 0.00193185184069819
v -0.00859999992779541 0.00099999997683716 0.00173205087252802
v -0.00859999992779541 0.00141421363421631 0.00141421363421625
v -0.00859999992779541 0.00173205087252808 0.00099999997683710
v -0.00859999992779541 0.00193185184069824 0.00051763818331904
v -0.00859999992779541 0.00199999997683716 -0.00000000002316290
v -0.00859999992779541 0.00193185184069824 -0.00051763822964483
v -0.00859999992779541 0.00173205087252808 -0.00100000002316290
v -0.00859999992779541 0.00141421363421631 -0.00141421344212347
v -0.00859999992779541 0.00099999997683716 -0.00173205068043524
v -0.00859999992779541 0.00051763818331909 -0.00193185164860540
v -0.00859999992779541 -0.00000000002316284 -0.00200000002316290
v -0.00859999992779541 -0.00051763822964477 -0.00193185164860540
v -0.00859999992779541 -0.00100000002316284 -0.00173205068043524
v -0.00859999992779541 -0.00141421368054199 -0.00141421344212347
v -0.00859999992779541 -0.00173205091885376 -0.00100000002316290
v -0.00859999992779541 -0.00193185141018677 -0.00051763822964483
v -0.00859999992779541 -0.00200000002316284 -0.00000000002316290
v -0.00859999992779541 -0.00193185141018677 0.00051763818331904
v -0.00859999992779541 -0.00173205091885376 0.00099999997683710
v -0.00859999992779541 -0.00141421368054199 0.00141421363421625
v -0.00859999992779541 -0.00100000002316284 0.00173205087252802
v -0.01859999988146973 0.00038822839328003 0.00144888875552363
v -0.01859999988146973 -0.00000000002316284 0.00149999997683710
v -0.01859999988146973 -0.00038822843960571 0.00144888875552363
v -0.01859999988146973 -0.00075000002316284 0.00129903791018671
v -0.01859999988146973 -0.00106066038540649 0.00106066033908075
v -0.01859999988146973 -0.00129903795651245 0.00074999997683710
v -0.01859999988146973 -0.00144888880184936 0.00038822839327997
v -0.01859999988146973 -0.00150000002316284 -0.00000000002316290
v -0.01859999988146973 -0.00144888880184936 -0.00038822843960577
v -0.01859999988146973 -0.00129903795651245 -0.00075000002316290
v -0.01859999988146973 -0.00106066038540649 -0.00106066014698797
v -0.01859999988146973 -0.00075000002316284 -0.00129903819493109
v -0.01859999988146973 -0.00038822843960571 -0.00144888880184942
v -0.01859999988146973 -0.00000000002316284 -0.00150000002316290
v -0.01859999988146973 0.00038822839328003 -0.00144888880184942
v -0.01859999988146973 0.00074999997683716 -0.00129903819493109
v -0.01859999988146973 0.00106066033908081 -0.00106066014698797
v -0.01859999988146973 0.00129903791018677 -0.00075000002316290
v -0.01859999988146973 0.00144888875552368 -0.00038822843960577
v -0.01859999988146973 0.00149999997683716 -0.00000000002316290
v -0.01859999988146973 0.00144888875552368 0.00038822839327997
v -0.01859999988146973 0.00129903791018677 0.00074999997683710
v -0.01859999988146973 0.00106066033908081 0.00106066033908075
v -0.01859999988146973 0.00074999997683716 0.00129903791018671
v 0.00340000102587891 -0.00587316990724850 0.00120211646624750
v 0.00340000102587891 -0.00549826475313949 0.00235129687853998
v 0.00340000102587891 -0.00489179363182831 0.00339693734713740
v 0.00340000102587891 -0.00549999996355820 0.00499999997683710
v 0.00340000102587891 -0.00408046295574951 0.00429299066134638
v 0.00340000102587891 -0.00309999992779541 0.00499999997683710
v 0.00340000102587891 -0.00562940948537636 0.00498296258517450
v 0.00340000102587891 -0.00574999996355820 0.00493301293917841
v 0.00340000102587891 -0.00585355336300182 0.00485355374880976
v 0.00340000102587891 -0.00593301268003035 0.00474999997683710
v 0.00340000102587891 -0.00598296289040792 0.00462940976687617
v -0.00859999992779541 -0.00598296289040792 0.00462940976687617
v -0.00859999992779541 -0.00593301268003035 0.00474999997683710
v -0.00859999992779541 -0.00585355336300182 0.00485355374880976
v -0.00859999992779541 -0.00574999996355820 0.00493301293917841
v -0.00859999992779541 -0.00562940948537636 0.00498296258517450
v -0.00859999992779541 -0.00549999996355820 0.00499999997683710
v -0.00859999992779541 0.00549999997683716 0.00499999997683710
v -0.00859999992779541 0.00599999997683716 0.00449999997683710
v -0.00859999992779541 0.00599999997683716 -0.00449999996355825
v -0.00859999992779541 0.00549999997683716 -0.00499999997683710
v -0.00859999992779541 -0.00549999996355820 -0.00499999997683710
v -0.00859999992779541 0.00562940976687622 0.00498296258517450
v -0.00859999992779541 0.00574999997683716 0.00493301293917841
v -0.00859999992779541 0.00585355374880982 0.00485355374880976
v -0.00859999992779541 0.00593301293917847 0.00474999997683710
v -0.00859999992779541 0.00598296258517456 0.00462940976687617
v -0.00859999992779541 0.00598296258517456 -0.00462940948537641
v -0.00859999992779541 0.00593301293917847 -0.00474999996355825
v -0.00859999992779541 0.00585355374880982 -0.00485355336300188
v -0.00859999992779541 0.00574999997683716 -0.00493301268003040
v -0.00859999992779541 0.00562940976687622 -0.00498296289040798
v -0.00859999992779541 -0.00562940948537636 -0.00498296289040798
v -0.00859999992779541 -0.00574999996355820 -0.00493301268003040
v -0.00859999992779541 -0.00585355336300182 -0.00485355336300188
v -0.00859999992779541 -0.00593301268003035 -0.00474999996355825
v -0.00859999992779541 -0.00598296289040792 -0.00462940948537641
v 0.01859999988146973 -0.00309999992779541 -0.00499999997683710
v 0.01859999988146973 0.00310000035830689 -0.00499999997683710
v 0.01859999988146973 -0.00417968716553497 -0.00420210906199270
v 0.01859999988146973 -0.00504535987309265 -0.00317596819332891
v 0.01859999988146973 0.00417968747683716 -0.00420210906199270
v 0.01859999988146973 0.00504535958834839 -0.00317596819332891
v 0.01859999988146973 -0.00564999675086784 -0.00197731544903570
v 0.01859999988146973 0.00564999673434448 -0.00197731544903570
v 0.01859999988146973 -0.00596075503981757 -0.00067125894955450
v 0.01859999988146973 0.00596075532504273 -0.00067125894955450
v 0.01859999988146973 -0.00596075503981757 0.00067125890322870
v 0.01859999988146973 0.00596075532504273 0.00067125890322870
v 0.01859999988146973 -0.00564999675086784 0.00197731540270991
v 0.01859999988146973 0.00564999673434448 0.00197731540270991
v 0.01859999988146973 -0.00504535987309265 0.00317596814700312
v 0.01859999988146973 0.00504535958834839 0.00317596814700312
v 0.01859999988146973 -0.00417968716553497 0.00420210931369013
v 0.01859999988146973 -0.00309999992779541 0.00499999997683710
v 0.01859999988146973 0.00417968747683716 0.00420210931369013
v 0.01859999988146973 0.00310000035830689 0.00499999997683710
f 1 2 3
f 3 2 4
f 3 4 5
f 3 5 6
f 6 5 7
f 6 7 8
f 6 9 3
f 3 9 10
f 3 10 11
f 11 12 3
f 3 12 13
f 14 15 16
f 16 15 17
f 16 17 18
f 18 17 19
f 18 19 20
f 20 1 18
f 21 22 18
f 18 22 23
f 18 23 24
f 24 25 18
f 18 25 16
f 26 27 28
f 28 27 29
f 28 29 30
f 30 29 31
f 30 31 32
f 32 33 30
f 34 35 30
f 30 35 36
f 30 36 37
f 37 38 30
f 30 38 28
f 30 33 39
f 39 33 40
f 40 33 41
f 42 43 44
f 44 43 45
f 44 45 46
f 43 42 47
f 47 42 48
f 47 48 49
f 49 48 50
f 49 50 51
f 51 50 52
f 51 52 53
f 53 52 54
f 53 54 55
f 55 54 56
f 55 56 57
f 55 57 58
f 58 57 59
f 58 59 60
f 60 59 61
f 60 61 62
f 62 61 63
f 62 63 64
f 64 63 65
f 64 65 66
f 66 65 67
f 67 65 68
f 67 68 69
f 69 68 70
f 69 70 71
f 71 70 72
f 71 72 73
f 73 72 74
f 73 74 75
f 75 74 76
f 75 76 77
f 77 76 78
f 77 78 79
f 79 78 80
f 79 80 81
f 79 81 82
f 82 81 83
f 82 83 84
f 84 83 85
f 84 85 86
f 86 85 87
f 86 87 88
f 88 87 89
f 88 89 46
f 46 89 44
f 89 90 44
f 44 90 91
f 44 91 42
f 42 91 92
f 42 92 48
f 48 92 93
f 48 93 50
f 50 93 94
f 50 94 52
f 52 94 95
f 52 95 54
f 54 95 96
f 54 96 56
f 56 96 97
f 56 97 57
f 57 97 98
f 57 98 59
f 59 98 99
f 59 99 61
f 61 99 100
f 61 100 63
f 63 100 101
f 63 101 65
f 65 101 102
f 65 102 68
f 68 102 103
f 68 103 70
f 70 103 104
f 70 104 72
f 72 104 105
f 72 105 74
f 74 105 106
f 74 106 76
f 76 106 107
f 76 107 78
f 78 107 108
f 78 108 80
f 80 108 109
f 80 109 81
f 81 109 110
f 81 110 83
f 83 110 111
f 83 111 85
f 85 111 112
f 85 112 87
f 87 112 113
f 87 113 89
f 89 113 90
f 43 114 45
f 45 114 115
f 45 115 46
f 46 115 116
f 46 116 88
f 88 116 117
f 88 117 86
f 86 117 118
f 86 118 84
f 84 118 119
f 84 119 82
f 82 119 120
f 82 120 79
f 79 120 121
f 79 121 77
f 77 121 122
f 77 122 75
f 75 122 123
f 75 123 73
f 73 123 124
f 73 124 71
f 71 124 125
f 71 125 69
f 69 125 126
f 69 126 67
f 67 126 127
f 67 127 66
f 66 127 128
f 66 128 64
f 64 128 129
f 64 129 62
f 62 129 130
f 62 130 60
f 60 130 131
f 60 131 58
f 58 131 132
f 58 132 55
f 55 132 133
f 55 133 53
f 53 133 134
f 53 134 51
f 51 134 135
f 51 135 49
f 49 135 136
f 49 136 47
f 47 136 137
f 47 137 43
f 43 137 114
f 114 128 115
f 115 128 127
f 115 127 116
f 116 127 126
f 116 126 117
f 117 126 125
f 117 125 118
f 118 125 124
f 118 124 119
f 119 124 123
f 119 123 120
f 120 123 122
f 120 122 121
f 128 114 129
f 129 114 137
f 129 137 130
f 130 137 136
f 130 136 131
f 131 136 135
f 131 135 132
f 132 135 134
f 132 134 133
f 33 138 41
f 41 138 139
f 41 139 140
f 41 140 141
f 141 140 142
f 141 142 143
f 141 144 41
f 41 144 145
f 41 145 146
f 146 147 41
f 41 147 148
f 40 41 149
f 149 41 148
f 149 148 150
f 150 148 147
f 150 147 151
f 151 147 146
f 151 146 152
f 152 146 145
f 152 145 153
f 153 145 144
f 153 144 154
f 154 144 141
f 90 154 91
f 91 154 155
f 91 155 92
f 92 155 93
f 93 155 94
f 94 155 156
f 94 156 95
f 95 156 96
f 96 156 97
f 97 156 157
f 97 157 98
f 98 157 99
f 99 157 100
f 100 157 158
f 100 158 101
f 101 158 102
f 102 158 103
f 103 158 159
f 103 159 104
f 104 159 105
f 105 159 106
f 106 159 39
f 106 39 107
f 107 39 108
f 108 39 109
f 109 39 40
f 109 40 110
f 110 40 111
f 111 40 112
f 112 40 154
f 112 154 113
f 113 154 90
f 40 149 154
f 154 149 150
f 154 150 151
f 151 152 154
f 154 152 153
f 160 161 155
f 155 161 162
f 155 162 163
f 163 164 155
f 155 164 156
f 157 165 158
f 158 165 166
f 158 166 167
f 167 168 158
f 158 168 169
f 170 171 159
f 159 171 172
f 159 172 173
f 173 174 159
f 159 174 39
f 159 28 170
f 170 28 38
f 170 38 171
f 171 38 37
f 171 37 172
f 172 37 36
f 172 36 173
f 173 36 35
f 173 35 174
f 174 35 34
f 174 34 39
f 39 34 30
f 155 16 160
f 160 16 25
f 160 25 161
f 161 25 24
f 161 24 162
f 162 24 23
f 162 23 163
f 163 23 22
f 163 22 164
f 164 22 21
f 164 21 156
f 156 21 18
f 18 1 156
f 156 1 157
f 157 1 3
f 157 3 165
f 165 3 13
f 165 13 166
f 166 13 12
f 166 12 167
f 167 12 11
f 167 11 168
f 168 11 10
f 168 10 169
f 169 10 9
f 169 9 158
f 158 9 6
f 175 176 177
f 177 176 178
f 178 176 179
f 178 179 180
f 178 180 181
f 181 180 182
f 181 182 183
f 183 182 184
f 183 184 185
f 185 184 186
f 185 186 187
f 187 186 188
f 187 188 189
f 189 188 190
f 189 190 191
f 191 190 192
f 192 190 193
f 192 193 194
f 32 183 33
f 33 183 185
f 33 185 138
f 138 185 187
f 138 187 139
f 139 187 189
f 139 189 140
f 140 189 191
f 140 191 142
f 142 191 192
f 142 192 143
f 183 32 181
f 181 32 31
f 181 31 178
f 178 31 29
f 178 29 177
f 177 29 27
f 177 27 175
f 175 27 26
f 192 194 143
f 143 194 14
f 143 14 154
f 154 14 155
f 155 14 16
f 154 141 143
f 20 186 1
f 1 186 184
f 1 184 2
f 2 184 182
f 2 182 4
f 4 182 180
f 4 180 5
f 5 180 179
f 5 179 7
f 7 179 176
f 7 176 8
f 186 20 188
f 188 20 19
f 188 19 190
f 190 19 17
f 190 17 193
f 193 17 15
f 193 15 194
f 194 15 14
f 176 175 8
f 8 175 26
f 8 26 158
f 158 26 159
f 159 26 28
f 158 6 8

