# https://github.com/mikedh/trimesh
v 0.00518101089061983 0.01837070500384144 -0.00171010072297364
v 0.00549999969066866 0.01818653141985706 -0.00250000007218628
v 0.00498565642894991 0.01848349034319691 -0.00086824090546875
v 0.00832334296764620 0.01886587559710316 -0.00425331194466858
v 0.00646664779247530 0.01762844120989612 -0.00383022220200806
v 0.00593292968334444 0.01793657719622425 -0.00321393807000428
v 0.00632439582409151 0.02001996647845081 -0.00157887609071045
v 0.00656652419628389 0.01988017308245472 -0.00222471077508240
v 0.00616665427746065 0.02011103856097034 -0.00089910180634766
v 0.00609668700756319 0.02015143620501331 -0.00019999988145142
v 0.00456741874279268 0.01757025944720081 -0.00129409511155396
v 0.00499999969066866 0.01732051121722034 -0.00250000007218628
v 0.00708493583263643 0.01727146946917347 -0.00433012707299500
v 0.00658493583263643 0.01640544163714222 -0.00433012707299500
v 0.00568813674511202 0.01692321049700550 -0.00353553397721558
v 0.00776900832714327 0.01687651860247425 -0.00469846315449982
v 0.00849808089794405 0.01645558964739613 -0.00492403884000092
v 0.00762927978100069 0.01580249058733753 -0.00482962913579254
v 0.00491987197460420 0.01852146946917347 -0.00000000007218628
v 0.00498565642894991 0.01848349034319691 0.00086824076109619
v 0.00441987197460420 0.01765544163714222 -0.00000000007218628
v 0.00518101089061983 0.01837070500384144 0.00171010057860107
v 0.00549999969066866 0.01818653141985706 0.00249999992781372
v 0.00673972861828096 0.01978017460833362 0.00257112114363403
v 0.00710304038585909 0.01957041966448597 0.00313616554671020
v 0.00753400008739717 0.01932160222063831 0.00363379471235962
v 0.00802334373058565 0.01903907811175159 0.00405331222944946
v 0.00593292968334444 0.01793657719622425 0.00321393768721313
v 0.00646664779247530 0.01762844120989612 0.00383022205763549
v 0.00456741874279268 0.01757025944720081 0.00129409496718139
v 0.00499999969066866 0.01732051121722034 0.00249999992781372
v 0.00568813674511202 0.01692321049700550 0.00353553383284301
v 0.00708493583263643 0.01727146946917347 0.00433012669020385
v 0.00658493583263643 0.01640544163714222 0.00433012669020385
v 0.00776900832714327 0.01687651860247425 0.00469846336775512
v 0.00849808089794405 0.01645558964739613 0.00492403881483764
v 0.00762927978100069 0.01580249058733753 0.00482962887221069
v 0.00888265388073213 0.01854296147356800 -0.00453289647168427
v 0.00947135512890108 0.01820307194720081 -0.00471504147118836
v 0.01007679526867159 0.01785352360735706 -0.00479583151406556
v 0.00975519340099581 0.01803920018206409 -0.00138961227006226
v 0.00978367393078096 0.01802275120745472 -0.00134597737855225
v 0.00982004897655733 0.01800175511370472 -0.00131232602662354
v 0.00986190574230440 0.01797758519182972 -0.00129088885850220
v 0.00990646903576143 0.01795185887347034 -0.00128308780259400
v 0.00995078437389620 0.01792626988421253 -0.00128943975037842
v 0.00999191253246553 0.01790252720843128 -0.00130952413148194
v 0.00904655997814424 0.01844832646380238 -0.00057135303086548
v 0.00908434836925752 0.01842650639544300 -0.00053846604890137
v 0.00911349265636690 0.01840968358050159 -0.00049646384782105
v 0.00913205688061006 0.01839896428118519 -0.00044813211030274
v 0.00913881270946749 0.01839506566057972 -0.00039667470521241
v 0.00913331191601045 0.01839823948870472 -0.00034550435609131
v 0.00896038787426241 0.01849807774554066 -0.00019999988145142
v 0.00900735442699678 0.01847096287737659 -0.00020666368073731
v 0.00908778541149385 0.01842452275286487 -0.00025735051697998
v 0.00905078094066866 0.01844589268694690 -0.00022621257371216
v 0.00911591880382784 0.01840827977190784 -0.00029801328248291
v 0.01007679526867159 0.01785352360735706 -0.00148911626405030
v 0.01007102363170870 0.01785685002337269 -0.00143488366669922
v 0.01005409400524385 0.01786662327776722 -0.00138473947114258
v 0.01002712791027315 0.01788219487200550 -0.00134200866288453
v 0.00924999969066866 0.01602146946917347 -0.00500000007218628
v 0.00874999969066866 0.01515544163714222 -0.00500000007218628
v 0.01000191848339327 0.01558734929095081 -0.00492403884000092
v 0.01073099105419405 0.01516642033587269 -0.00469846315449982
v 0.00869296996654756 0.01634307133684925 -0.00037135274476319
v 0.00873075835766085 0.01632125126848987 -0.00033846576279908
v 0.00865376441540010 0.01636570775042347 -0.00000666339463501
v 0.00869719092907198 0.01634063755999378 -0.00002621276444702
v 0.00873419730724581 0.01631926762591175 -0.00005735070771485
v 0.00875990264477022 0.01630442845354847 -0.00029646403855591
v 0.00877846686901338 0.01629370915423206 -0.00024813182420044
v 0.00878522269787081 0.01628981053362659 -0.00019667489594727
v 0.00877972190441377 0.01629298436175159 -0.00014550454682618
v 0.00876232879223116 0.01630302464495472 -0.00009801347321778
v 0.01104480521740206 0.01729463994036487 -0.00118961246079712
v 0.01102632110180147 0.01730531346331409 -0.00113931377000122
v 0.01101926963390596 0.01730937993059925 -0.00108611304826050
v 0.01102412002147920 0.01730657994280628 -0.00103353793687134
v 0.01104054992260225 0.01729709660540394 -0.00098507459229737
v 0.01106747214855440 0.01728155552874378 -0.00094393546647339
v 0.01110309951366670 0.01726098668108753 -0.00091284902161866
v 0.01114507072033174 0.01723674809466175 -0.00089387662476807
v 0.01119060103954561 0.01721046483050159 -0.00088827569550782
v 0.01123667495311983 0.01718386113177112 -0.00089641768998413
v 0.01128023498119600 0.01715871464739612 -0.00091776330537110
v 0.00892839782299288 0.01620714604388050 -0.00064320237702637
v 0.00924999969066866 0.01602146946917347 -0.00074270589417725
v 0.00922729842724092 0.01603457676897816 -0.00063832910126953
v 0.00924422805370577 0.01602480351458362 -0.00068847329682618
v 0.00895688026012667 0.01619070469866566 -0.00059956748551636
v 0.00899325530590303 0.01616970097552112 -0.00056591565675049
v 0.00903511016430147 0.01614553868304066 -0.00054447848862915
v 0.00907967345775850 0.01611980473528675 -0.00053667743272095
v 0.00916511695446260 0.01607047307024769 -0.00056311376160889
v 0.00912398879589327 0.01609422337542347 -0.00054302985734253
v 0.00920033233227022 0.01605014836321644 -0.00059559829301148
v 0.00957160155834444 0.01583579289446644 -0.00064320237702637
v 0.00955311553539522 0.01584646641741565 -0.00059290368623047
v 0.00954606406749971 0.01585054051409534 -0.00053970296448975
v 0.00955091445507295 0.01584773289690784 -0.00048712785310059
v 0.00956734435619600 0.01583824955950550 -0.00043866403168946
v 0.00959426658214815 0.01582270848284534 -0.00039752538270264
v 0.00962989394726045 0.01580213963518909 -0.00036643893784790
v 0.00967186515392549 0.01577790867815784 -0.00034746606416016
v 0.00971739547313936 0.01575161778460315 -0.00034186561173706
v 0.00976346938671358 0.01572501408587269 -0.00035000760621338
v 0.00980702941478975 0.01569986760149768 -0.00037135274476319
v 0.01247665565075167 0.01646795689593128 -0.00405331201619416
v 0.01296599929394014 0.01618544041643909 -0.00363379485673218
v 0.01339695899547823 0.01593662297259144 -0.00313616569108277
v 0.01376027267040499 0.01572686802874378 -0.00257112081116944
v 0.00921976440014131 0.01834832798968128 0.00091776316099853
v 0.00926332442821749 0.01832317387591175 0.00089641754561157
v 0.00930939834179170 0.01829657780657581 0.00088827555113525
v 0.00935492866100557 0.01827028691302112 0.00089387648039550
v 0.00939689986767061 0.01824605595598987 0.00091284887724609
v 0.00943252723278292 0.01822548710833363 0.00094393532210083
v 0.00945944945873506 0.01820994603167347 0.00098507444792480
v 0.00945519416393526 0.01821240269671253 0.00118961231642456
v 0.00947587935985811 0.01820045506487659 0.00103353826933593
v 0.00948072974743135 0.01819765507708362 0.00108611338072509
v 0.00947367827953585 0.01820172917376331 0.00113931362562866
v 0.01047287147106417 0.01762484776507190 0.00134200851851196
v 0.01044590537609346 0.01764041172991566 0.00138473932677002
v 0.01050808684887178 0.01760451542864612 0.00130952398710937
v 0.01054921500744112 0.01758076512347034 0.00128943960600586
v 0.01042320411266573 0.01765351902972034 0.00148911611967773
v 0.01042897574962862 0.01765018498431019 0.00143488352232666
v 0.01042320411266573 0.01765351902972034 0.00479583160811157
v 0.00860679786266573 0.01639282261858753 -0.00000000007218628
v 0.00869296996654756 0.01634307133684925 0.00037135307722778
v 0.00873652999462374 0.01631792485247425 0.00035000746184082
v 0.00878260390819795 0.01629132115374378 0.00034186546736450
v 0.01138408057750948 0.01709875523577503 0.00029801313811035
v 0.01144921844066866 0.01706114995013050 0.00022621242933960
v 0.01141221396984346 0.01708251988421253 0.00025735084944458
v 0.01136668746532686 0.01710880314837269 0.00034550421171875
v 0.01136118667186983 0.01711197697649769 0.00039667503767700
v 0.01136794250072725 0.01710807835589222 0.00044813196593017
v 0.01138650672497041 0.01709735905657581 0.00049646370344848
v 0.01141565101207979 0.01708052861223987 0.00053846590452881
v 0.01145343940319307 0.01705871617327503 0.00057135288649292
v 0.01059353034557588 0.01755518376360706 0.00128308765822143
v 0.01063809363903291 0.01752945744524769 0.00129088871412964
v 0.01067995040477999 0.01750528752337269 0.00131232588225097
v 0.01071632545055635 0.01748428380022815 0.00134597723417968
v 0.01074480598034151 0.01746784245501331 0.00138961212568969
v 0.00882813422741182 0.01626503026018909 0.00034746639662475
v 0.00887010543407686 0.01624079930315784 0.00036643879347534
v 0.00890573279918917 0.01622023045550159 0.00039752523833007
v 0.00893265502514131 0.01620468937884144 0.00043866436415405
v 0.00894908492626436 0.01619520604143909 0.00048712770872802
v 0.00895393531383760 0.01619240605364613 0.00053970282011718
v 0.00894688384594210 0.01619647252093128 0.00059290354185791
v 0.00892839782299288 0.01620714604388050 0.00064320223265381
v 0.00927270095409639 0.01600836216936878 0.00063832943373413
v 0.00925577132763155 0.01601813542376331 0.00068847315245361
v 0.00924999969066866 0.01602146946917347 0.00074270574980468
v 0.00929966704906710 0.01599279057513050 0.00059559814863891
v 0.00933488242687471 0.01597246586809925 0.00056311361723632
v 0.00937601058544405 0.01594871556292347 0.00054302971296997
v 0.00942032592357881 0.01592313420306019 0.00053667728834839
v 0.00946488921703584 0.01589740025530628 0.00054447834425659
v 0.00950674407543428 0.01587323796282581 0.00056591551237793
v 0.00954311912121065 0.01585223423968128 0.00059956734114380
v 0.00973767058910616 0.01573991429339222 0.00009801332884521
v 0.00972027747692354 0.01574995457659534 0.00014550440245361
v 0.00976580207409151 0.01572367131243518 0.00005735056334228
v 0.00980280845226534 0.01570230137835315 0.00002621262007446
v 0.00971477668346651 0.01575312840472034 0.00019667475157470
v 0.00972153251232393 0.01574922978411487 0.00024813215666504
v 0.00974009673656710 0.01573851048479847 0.00029646389418335
v 0.00984623496593721 0.01567723118792346 0.00000666372709961
v 0.00989320151867159 0.01565011631975941 -0.00000000007218628
v 0.00976924102367647 0.01572168766985706 0.00033846561842651
v 0.00980702941478975 0.01569986760149768 0.00037135307722778
v 0.00957160155834444 0.01583579289446644 0.00064320223265381
v 0.01102864425243624 0.01730397068987659 0.00471504108839721
v 0.00924999969066866 0.01602146946917347 0.00499999992781372
v 0.00874999969066866 0.01515544163714222 0.00499999992781372
v 0.01000191848339327 0.01558734929095081 0.00492403881483764
v 0.01073099105419405 0.01516642033587269 0.00469846336775512
v 0.01149264495434053 0.01703607975970081 0.00020666353636474
v 0.01153961150707491 0.01700896489153675 0.00019999973707885
v 0.01440331237377413 0.01535560643206409 0.00019999973707885
v 0.01433334701122530 0.01539599644671253 0.00089910166197509
v 0.01417560164989717 0.01548706852923206 0.00157887594633789
v 0.01393347518505342 0.01562686192522815 0.00222471039229126
v 0.01161734550060518 0.01696408116350941 0.00453289692335815
v 0.01217665641369112 0.01664116703997425 0.00425331203871460
v 0.00333666389049776 0.01423938023577503 -0.00263041813439637
v 0.00281741683544405 0.01453916966448597 -0.00129409511155396
v 0.00281741683544405 0.01453916966448597 -0.00129409558839112
v 0.00281741874279268 0.01453916966448597 -0.00129409511155396
v 0.00324999969066866 0.01428942143450550 -0.00250000007218628
v 0.00324999778332002 0.01428942143450550 -0.00250000007218628
v 0.00324999969066866 0.01428942143450550 -0.00250000007218628
v 0.00318178527416475 0.01432880436907581 -0.00230983836716919
v 0.00279012076915987 0.01455493199358753 -0.00105466659135132
v 0.00270835464061983 0.01460213505755237 -0.00033751876420288
v 0.00270691649975069 0.01460296666155628 -0.00032491357392578
v 0.00357743232311495 0.01410037266741566 -0.00011456925935059
v 0.00549999969066866 0.01472243535052113 -0.00150000007218628
v 0.00499999969066866 0.01385640751848987 -0.00150000007218628
v 0.00524045150341280 0.01487228428850941 -0.00077645738190918
v 0.00474045150341280 0.01400625645647816 -0.00077645738190918
v 0.00418157546581514 0.01375157200823597 -0.00053730971879273
v 0.00480875747265108 0.01338947331438831 -0.00189622027940064
v 0.00541288154186495 0.01361802708636097 -0.00212132031983643
v 0.00496947829784639 0.01329667698870472 -0.00179911000794678
v 0.00428021400036104 0.01369462620745472 -0.00103379113740235
v 0.00520428435863741 0.01316111027727894 -0.00078041513032227
v 0.00645096175731905 0.01417339360247425 -0.00259807617730408
v 0.00707756774486788 0.01381162297259144 -0.00289777739114075
v 0.00595096175731905 0.01330736577044300 -0.00259807617730408
v 0.00657756774486788 0.01294559514056019 -0.00289777739114075
v 0.00774999969066866 0.01342339360247425 -0.00300000007218628
v 0.00724999969066866 0.01255736577044300 -0.00300000007218628
v 0.00842243163646944 0.01303516423235706 -0.00289777739114075
v 0.00591288154186495 0.01448405491839222 -0.00212132031983643
v 0.00567828338207491 0.01288745152483753 -0.00142943055695801
v 0.00592985503734835 0.01274220311175159 -0.00140904243058472
v 0.00619811790050752 0.01258731877337269 -0.00129213769501953
v 0.00631195800365694 0.01252159153948597 -0.00126490552491455
v 0.00635048072399385 0.01249935185442737 -0.00129903800553589
v 0.00660048072399385 0.01293236577044300 -0.00129903800553589
v 0.00691378371776827 0.01275148045550159 -0.00144888885087281
v 0.00646817939342745 0.01243139683733753 -0.00135533244675904
v 0.00633144156994112 0.01308770024309925 -0.00106066043442994
v 0.00612499969066866 0.01320688664446644 -0.00075000007218628
v 0.00599522559704073 0.01328181492815784 -0.00038822848862915
v 0.00571240394176729 0.01286774479876331 -0.00077893359727173
v 0.00571240394176729 0.01286774479876331 -0.00077893359727173
v 0.00574381606640108 0.01284960972796253 -0.00071531493729859
v 0.00587499969066866 0.01277387272845081 -0.00075000007218628
v 0.00608144156994112 0.01265468632708362 -0.00106066043442994
v 0.00574522559704073 0.01284880101214222 -0.00038822848862915
v 0.00570466392101534 0.01287221562395862 -0.00003247840470581
v 0.00724999969066866 0.01255736577044300 -0.00150000007218628
v 0.00814313285412081 0.01146436345110706 -0.00492622168130188
v 0.00817836158336885 0.01144402348528675 -0.00491315169400483
v 0.00718544547619112 0.01201728856097034 -0.00304131777352600
v 0.00738340728344209 0.01190299260149768 -0.00268152697152405
v 0.00792243163646944 0.01216913640032581 -0.00289777739114075
v 0.00854903762401827 0.01180736577044300 -0.00259807617730408
v 0.00658512275280245 0.01236388432513050 -0.00141126544541626
v 0.00666378371776827 0.01231846653948597 -0.00144888885087281
v 0.00670612685741670 0.01229402195940784 -0.00145532567567139
v 0.00683189170421846 0.01222141301165394 -0.00147444446152954
v 0.00695765655102022 0.01214879643450550 -0.00149356324738770
v 0.00699999969066866 0.01212435185442737 -0.00150000007218628
v 0.00708441512645967 0.01207561528216175 -0.00148716743058472
v 0.00709062354625948 0.01207202946673206 -0.00148622376984864
v 0.00749423186840303 0.01183900486956409 -0.00218386395043640
v 0.00750059478344209 0.01183533513079456 -0.00214760501450806
v 0.00758621566356905 0.01236325108538440 -0.00144888885087281
v 0.00733621566356905 0.01193024479876331 -0.00144888885087281
v 0.00751526038707979 0.01182686650286487 -0.00158080060548096
v 0.00757167213024385 0.01179429661761097 -0.00133856971329956
v 0.00757459800304659 0.01179261052141956 -0.00133487184113770
v 0.00789951865734346 0.01218236577044300 -0.00129903800553589
v 0.00772005622448213 0.01170862614641956 -0.00133708150452881
v 0.00764951865734346 0.01174935185442737 -0.00129903800553589
v 0.00767187850536592 0.01173644291888050 -0.00127922589844971
v 0.00783119742931612 0.01164446293841175 -0.00125081641740113
v 0.00809574668468721 0.01149172245989612 -0.00135090453690796
v 0.00816855781139620 0.01202703892718128 -0.00106066043442994
v 0.00837499969066866 0.01190785252581409 -0.00075000007218628
v 0.00850477378429659 0.01183292424212268 -0.00038822848862915
v 0.00791855781139620 0.01159402501116565 -0.00106066043442994
v 0.00812499969066866 0.01147483860979847 -0.00075000007218628
v 0.00825477378429659 0.01139991032610706 -0.00038822848862915
v 0.00853990714611299 0.01123529088030628 -0.00060359437531739
v 0.00828280990185030 0.01138372075091175 -0.00014233262604981
v 0.00829346435131319 0.01137757145891956 -0.00004889447755127
v 0.00844397704662569 0.01129067265520862 -0.00021951253480225
v 0.00351920096935518 0.01413399540911487 0.00093716471129150
v 0.00281741874279268 0.01453916966448597 0.00129409496718139
v 0.00281741874279268 0.01453916966448597 0.00129409496718139
v 0.00292602698864229 0.01447646367083362 0.00159686653547973
v 0.00309828918041475 0.01437700688372425 0.00207707874708862
v 0.00515192382396944 0.01492339360247425 -0.00000000007218628
v 0.00524045150341280 0.01487228428850941 0.00077645723753662
v 0.00465192382396944 0.01405736577044300 -0.00000000007218628
v 0.00474045150341280 0.01400625645647816 0.00077645723753662
v 0.00549999969066866 0.01472243535052113 0.00149999992781372
v 0.00499999969066866 0.01385640751848987 0.00149999992781372
v 0.00434417312206514 0.01365769993792347 0.00021136133604736
v 0.00455051772655733 0.01353856694231800 0.00037236826353759
v 0.00536119048656709 0.01307051884661488 0.00084143202238769
v 0.00543844192089327 0.01302591740618519 0.00081698839598388
v 0.00544863288463838 0.01302003514300159 0.00082587187224121
v 0.00502352874340303 0.01326547276507191 0.00181302921705932
v 0.00541288154186495 0.01361802708636097 0.00212132065230102
v 0.00550320403637178 0.01298853337298206 0.00151572315626831
v 0.00324999969066866 0.01428942143450550 0.00249999992781372
v 0.00324999969066866 0.01428942143450550 0.00250000088148803
v 0.00350851218761690 0.01414016758929065 0.00288901989393921
v 0.00591288154186495 0.01448405491839222 0.00212132065230102
v 0.00595096175731905 0.01330736577044300 -0.00000000007218628
v 0.00599522559704073 0.01328181492815784 0.00038822834425659
v 0.00612499969066866 0.01320688664446644 0.00074999992781372
v 0.00633144156994112 0.01308770024309925 0.00106066029005737
v 0.00570096175731905 0.01287435185442737 -0.00000000007218628
v 0.00571011321605928 0.01286907231341175 0.00008026163511963
v 0.00574522559704073 0.01284880101214222 0.00038822834425659
v 0.00587499969066866 0.01277387272845081 0.00074999992781372
v 0.00608144156994112 0.01265468632708362 0.00106066029005737
v 0.00625944869579561 0.01255191075335316 0.00121838037901611
v 0.00581885116161592 0.01280629002581409 0.00145619385176391
v 0.00612179534496553 0.01263138615618519 0.00132155363493652
v 0.00631659858288057 0.01251891362200550 0.00126901571684570
v 0.00635048072399385 0.01249935185442737 0.00129903786116333
v 0.00660048072399385 0.01293236577044300 0.00129903786116333
v 0.00691378371776827 0.01275148045550159 0.00144888870650024
v 0.00642914359630831 0.01245393406878284 0.00133666174345703
v 0.00724999969066866 0.01255736577044300 0.00149999992781372
v 0.00645096175731905 0.01417339360247425 0.00259807579451294
v 0.00707756774486788 0.01381162297259144 0.00289777748518676
v 0.00595096175731905 0.01330736577044300 0.00259807579451294
v 0.00657756774486788 0.01294559514056019 0.00289777748518676
v 0.00774999969066866 0.01342339360247425 0.00299999992781372
v 0.00724999969066866 0.01255736577044300 0.00299999992781372
v 0.00842243163646944 0.01303516423235706 0.00289777748518676
v 0.00699999969066866 0.01212435185442737 -0.00000000007218628
v 0.00654608504833467 0.01238642155657581 0.00139259426527710
v 0.00666378371776827 0.01231846653948597 0.00144888870650024
v 0.00666378371776827 0.01231846653948597 0.00144888870650024
v 0.00679009025158174 0.01224554478655628 0.00146808950834961
v 0.00691558425487764 0.01217308842669300 0.00148716728621215
v 0.00699999969066866 0.01212435185442737 0.00149999992781372
v 0.00704234283031709 0.01209990727434925 0.00149356310301513
v 0.00707519309582002 0.01208094059954456 0.00148856918745727
v 0.00854903762401827 0.01180736577044300 -0.00000000007218628
v 0.00850477378429659 0.01183292424212268 0.00038822834425659
v 0.00816855781139620 0.01202703892718128 0.00106066029005737
v 0.00837499969066866 0.01190785252581409 0.00074999992781372
v 0.00775058906139620 0.01169100224505237 0.00120948641234131
v 0.00778378455700166 0.01167183720598987 0.00118007414274902
v 0.00829903762401827 0.01137435185442737 -0.00000000007218628
v 0.00828792541088350 0.01138076817522815 0.00009747402601928
v 0.00827669112743624 0.01138725316057972 0.00019600431853027
v 0.00846125953258760 0.01128069340716175 0.00027857725554199
v 0.00825477378429659 0.01139991032610706 0.00038822834425659
v 0.00839022224010713 0.01132170903216175 0.00043013660841674
v 0.00812499969066866 0.01147483860979847 0.00074999992781372
v 0.00791855781139620 0.01159402501116565 0.00106066029005737
v 0.00758621566356905 0.01236325108538440 0.00144888870650024
v 0.00733621566356905 0.01193024479876331 0.00144888870650024
v 0.00758635299267061 0.01178582036028675 0.00132924930983276
v 0.00757120101513155 0.01179457127581409 0.00145569364958496
v 0.00748848884166963 0.01184232365618518 0.00166166250639648
v 0.00742861335338838 0.01187689244280628 0.00212259380751342
v 0.00789951865734346 0.01218236577044300 0.00129903786116333
v 0.00764951865734346 0.01174935185442737 0.00129903786116333
v 0.00797568099560030 0.01156104313860706 0.00128466360502929
v 0.00732418983043916 0.01193717991839222 0.00284341232710571
v 0.00716469924511202 0.01202926671038441 0.00326044933729858
v 0.00792243163646944 0.01216913640032581 0.00289777748518676
v 0.00854903762401827 0.01180736577044300 0.00259807579451294
v 0.00987071960033663 0.01450840031634144 -0.00482962913579254
v 0.01141506354870088 0.01477146946917347 -0.00433012707299500
v 0.01091506354870088 0.01390544163714222 -0.00433012707299500
v 0.00904903762401827 0.01267339360247425 -0.00259807617730408
v 0.01203335158886202 0.01441449772845081 -0.00383022220200806
v 0.01256706969799288 0.01410636174212269 -0.00321393807000428
v 0.01181186263622530 0.01338768040667347 -0.00353553397721558
v 0.01299999969066866 0.01385640751848987 -0.00250000007218628
v 0.01249999969066866 0.01299037968645862 -0.00250000007218628
v 0.01293258063854463 0.01274063145647815 -0.00129409511155396
v 0.01331898849071749 0.01367224156390003 -0.00171010072297364
v 0.01351434295238741 0.01355944859515003 -0.00086824090546875
v 0.00958711783947237 0.01236273228655628 -0.00212132031983643
v 0.00999999969066866 0.01212435185442737 -0.00150000007218628
v 0.00908711783947237 0.01149670445452503 -0.00212132031983643
v 0.00949999969066866 0.01125833165179065 -0.00150000007218628
v 0.00857912795604952 0.01121263920794300 -0.00042516191071778
v 0.01025954787792452 0.01197450291643909 -0.00077645738190918
v 0.00909391562999971 0.01091542851458362 -0.00212039454049378
v 0.00919829337658174 0.01085517155657581 -0.00187603099412232
v 0.00920083968700655 0.01085369908343128 -0.00182107789582520
v 0.00965609901012666 0.01059085881243518 -0.00177073199815064
v 0.00979295318187959 0.01051184117327503 -0.00160153062409668
v 0.00991388289989717 0.01044202458391956 -0.00202212698525696
v 0.00989989059032686 0.01045010411272815 -0.00151718766755371
v 0.00975954787792452 0.01110848271380237 -0.00077645738190918
v 0.00987071960033663 0.01450840031634144 0.00482962887221069
v 0.01141506354870088 0.01477146946917347 0.00433012669020385
v 0.01091506354870088 0.01390544163714222 0.00433012669020385
v 0.00904903762401827 0.01267339360247425 0.00259807579451294
v 0.01293258063854463 0.01274063145647815 0.00129409496718139
v 0.01358012740673311 0.01352146946917347 -0.00000000007218628
v 0.01351434295238741 0.01355944859515003 0.00086824076109619
v 0.01308012740673311 0.01265544163714222 -0.00000000007218628
v 0.01331898849071749 0.01367224156390003 0.00171010057860107
v 0.01256706969799288 0.01410636174212269 0.00321393768721313
v 0.01203335158886202 0.01441449772845081 0.00383022205763549
v 0.01299999969066866 0.01385640751848987 0.00249999992781372
v 0.01181186263622530 0.01338768040667347 0.00353553383284301
v 0.01249999969066866 0.01299037968645862 0.00249999992781372
v 0.00999999969066866 0.01212435185442737 0.00149999992781372
v 0.00958711783947237 0.01236273228655628 0.00212132065230102
v 0.00908711783947237 0.01149670445452503 0.00212132065230102
v 0.00949999969066866 0.01125833165179065 0.00149999992781372
v 0.01034807555736788 0.01192339360247425 -0.00000000007218628
v 0.01025954787792452 0.01197450291643909 0.00077645723753662
v 0.00984807555736788 0.01105736577044300 -0.00000000007218628
v 0.00975954787792452 0.01110848271380237 0.00077645723753662
v 0.00933921783031709 0.01077380406390003 0.00101662104063720
v 0.00878907363476045 0.01109143101702503 0.00195271389418335
v 0.00888908927501924 0.01103368412981800 0.00201008598738403
v 0.00928359000744112 0.01080592381487659 0.00202333538466186
v 0.00953423278393038 0.01066121708880237 0.00181967728071899
v 0.00937179343761690 0.01075499760638050 0.00198657457762451
v 0.01020506064953096 0.01027391087542347 0.00164245169096679
v 0.01007754104198702 0.01034753453265003 0.00213850872450561
v 0.01066376655163057 0.01000907933245472 0.00228841869765014
v 0.01096124427379854 0.00983732640276722 0.00225567238264770
v 0.01094818275036104 0.00984487187395862 0.00228281204634399
v 0.01018734138073213 0.01028414189348987 0.00352685253554077
v 0.01022361152233370 0.01026319920550159 0.00348632042341919
f 6 12 2
f 7 1 3
f 3 19 10
f 2 12 1
f 1 11 3
f 12 11 1
f 3 21 19
f 11 21 3
f 16 13 4
f 16 4 38
f 4 13 41
f 8 1 7
f 7 3 9
f 9 3 10
f 9 10 54
f 10 19 54
f 8 7 48
f 7 9 48
f 9 54 48
f 8 2 1
f 8 48 2
f 2 48 67
f 54 19 132
f 15 12 6
f 15 222 12
f 12 205 11
f 11 207 21
f 12 222 205
f 11 205 207
f 207 284 21
f 14 15 5
f 13 14 5
f 5 15 6
f 16 14 13
f 16 18 14
f 17 18 16
f 5 6 88
f 13 5 88
f 14 215 15
f 15 215 222
f 17 64 18
f 18 216 14
f 6 2 67
f 6 67 88
f 19 21 20
f 21 30 20
f 20 30 22
f 30 31 22
f 22 31 23
f 23 31 28
f 114 24 25
f 19 20 132
f 133 20 22
f 133 22 23
f 114 23 24
f 133 23 114
f 24 28 25
f 114 25 26
f 24 23 28
f 25 29 26
f 25 28 29
f 121 26 27
f 121 27 33
f 26 29 27
f 29 33 27
f 21 284 30
f 30 285 31
f 30 284 285
f 285 288 31
f 31 32 28
f 288 32 31
f 132 20 133
f 157 121 33
f 288 301 32
f 28 32 29
f 32 34 29
f 29 34 33
f 157 33 35
f 160 35 36
f 33 34 35
f 34 37 35
f 35 37 36
f 301 34 32
f 301 320 34
f 34 320 37
f 37 182 36
f 39 16 38
f 38 4 41
f 39 38 59
f 40 39 59
f 38 41 59
f 41 42 43
f 41 43 44
f 59 41 60
f 41 44 45
f 41 46 47
f 41 47 62
f 41 45 46
f 41 62 61
f 60 41 61
f 48 54 49
f 49 54 50
f 50 54 51
f 51 54 52
f 52 54 53
f 57 54 55
f 54 56 58
f 53 54 58
f 57 56 54
f 55 54 132
f 57 55 69
f 48 49 67
f 49 50 68
f 50 51 72
f 51 52 73
f 52 53 74
f 57 70 56
f 53 58 76
f 58 56 71
f 39 17 16
f 40 17 39
f 40 59 63
f 40 63 17
f 17 63 64
f 63 65 64
f 65 363 64
f 63 89 65
f 65 89 66
f 65 66 363
f 66 99 364
f 13 88 41
f 63 59 89
f 49 68 67
f 50 72 68
f 51 73 72
f 52 74 73
f 53 76 75
f 53 75 74
f 57 69 70
f 55 132 69
f 58 71 76
f 56 70 71
f 41 88 42
f 42 92 43
f 43 93 44
f 44 94 45
f 46 45 95
f 61 62 90
f 47 46 96
f 62 47 98
f 59 60 89
f 60 61 91
f 42 88 92
f 43 92 93
f 92 67 68
f 60 91 89
f 44 93 94
f 45 94 95
f 46 95 97
f 46 97 96
f 47 96 98
f 61 90 91
f 62 98 90
f 77 78 79
f 77 79 80
f 77 80 81
f 77 81 82
f 77 82 83
f 77 83 84
f 77 84 85
f 77 85 86
f 77 86 87
f 99 78 77
f 78 100 79
f 79 101 80
f 80 102 81
f 81 103 82
f 82 105 83
f 83 106 84
f 84 107 85
f 85 108 86
f 99 100 78
f 79 100 101
f 80 101 102
f 81 102 103
f 82 103 104
f 82 104 105
f 87 86 109
f 66 89 99
f 88 67 92
f 92 68 93
f 93 68 72
f 94 72 73
f 95 73 74
f 97 74 75
f 93 72 94
f 94 73 95
f 95 74 97
f 96 97 103
f 97 75 104
f 91 90 100
f 89 91 99
f 91 100 99
f 90 98 101
f 98 96 102
f 90 101 100
f 98 102 101
f 96 103 102
f 97 104 103
f 104 75 169
f 104 169 105
f 105 168 106
f 106 170 107
f 109 108 176
f 107 175 108
f 105 169 168
f 106 168 170
f 107 170 171
f 107 171 175
f 108 175 176
f 364 99 77
f 87 109 370
f 83 105 106
f 84 106 107
f 85 107 108
f 86 108 109
f 110 77 111
f 111 87 112
f 110 111 367
f 110 367 364
f 110 364 77
f 111 112 367
f 112 113 368
f 111 77 87
f 112 87 113
f 113 87 370
f 115 114 121
f 116 115 121
f 116 121 117
f 117 121 118
f 118 121 119
f 133 114 115
f 134 115 116
f 135 116 117
f 150 117 118
f 119 121 120
f 120 121 122
f 122 121 123
f 123 121 124
f 114 26 121
f 126 130 149
f 125 126 149
f 130 129 149
f 134 133 115
f 134 116 135
f 150 135 117
f 151 118 119
f 153 119 120
f 157 124 121
f 154 120 122
f 155 122 123
f 156 123 124
f 150 118 151
f 151 119 152
f 152 119 153
f 69 132 134
f 70 69 135
f 69 134 135
f 132 133 134
f 76 71 150
f 71 70 135
f 71 135 150
f 153 120 154
f 154 122 155
f 155 123 156
f 156 124 157
f 159 160 130
f 161 158 125
f 158 159 126
f 162 161 127
f 163 162 128
f 164 163 128
f 164 145 165
f 165 146 166
f 166 147 167
f 167 148 179
f 157 35 160
f 160 181 129
f 159 130 126
f 158 126 125
f 160 129 130
f 161 125 127
f 162 127 128
f 164 128 145
f 165 145 146
f 166 146 147
f 167 147 148
f 179 148 149
f 137 138 186
f 186 136 139
f 186 138 136
f 186 139 140
f 186 140 141
f 186 141 142
f 186 142 143
f 186 143 144
f 168 139 136
f 170 136 138
f 171 138 137
f 172 140 139
f 173 141 140
f 174 142 141
f 177 143 142
f 178 144 143
f 175 137 185
f 176 185 186
f 145 128 149
f 125 149 127
f 128 127 149
f 145 149 146
f 146 149 147
f 147 149 148
f 129 191 149
f 75 76 151
f 76 150 151
f 75 151 152
f 75 152 169
f 152 153 163
f 153 154 162
f 154 155 161
f 155 156 158
f 154 161 162
f 155 158 161
f 153 162 163
f 156 157 159
f 157 160 159
f 156 159 158
f 169 152 163
f 169 163 172
f 172 163 164
f 173 164 165
f 172 164 173
f 174 165 166
f 177 166 167
f 173 165 174
f 178 167 179
f 174 166 177
f 177 167 178
f 171 170 138
f 170 168 136
f 171 137 175
f 169 172 139
f 172 173 140
f 168 169 139
f 173 174 141
f 174 177 142
f 177 178 143
f 175 185 176
f 178 400 144
f 179 149 390
f 178 179 398
f 131 181 183
f 129 131 180
f 129 180 191
f 149 192 390
f 129 181 131
f 131 183 180
f 191 180 184
f 160 36 181
f 36 182 181
f 181 182 183
f 183 182 389
f 179 390 399
f 183 184 180
f 183 389 184
f 192 184 390
f 137 186 185
f 186 144 188
f 176 186 394
f 144 400 190
f 186 188 187
f 144 189 188
f 186 187 394
f 144 190 189
f 149 191 192
f 192 191 184
f 196 195 194
f 199 198 200
f 197 210 193
f 199 200 235
f 196 194 201
f 202 203 204
f 196 201 209
f 202 204 209
f 205 206 207
f 222 211 205
f 211 206 205
f 207 208 284
f 196 209 239
f 208 286 284
f 206 208 207
f 206 233 208
f 208 302 286
f 197 238 210
f 211 232 206
f 197 237 238
f 197 234 237
f 238 212 210
f 238 223 212
f 196 239 213
f 239 209 204
f 239 214 213
f 208 233 302
f 239 204 240
f 239 236 214
f 14 216 215
f 18 64 219
f 18 219 216
f 64 221 219
f 218 217 215
f 216 218 215
f 216 220 218
f 216 219 220
f 219 246 220
f 219 221 246
f 217 211 222
f 215 217 222
f 217 231 211
f 211 231 232
f 217 228 231
f 218 228 217
f 238 224 223
f 238 225 224
f 218 229 228
f 218 241 229
f 220 241 218
f 228 227 226
f 228 230 227
f 229 248 228
f 229 249 248
f 228 248 230
f 229 250 249
f 229 251 250
f 241 252 229
f 206 232 233
f 232 237 233
f 233 239 302
f 237 234 236
f 231 238 232
f 231 226 238
f 238 237 232
f 238 226 225
f 237 239 233
f 237 236 239
f 239 240 302
f 240 306 302
f 228 226 231
f 220 258 241
f 256 243 242
f 221 247 246
f 256 257 243
f 229 252 251
f 241 253 252
f 220 246 258
f 246 263 258
f 259 245 244
f 259 244 255
f 259 256 245
f 259 257 256
f 241 258 259
f 241 254 253
f 241 255 254
f 241 259 255
f 258 263 262
f 259 260 257
f 259 258 262
f 259 261 260
f 259 262 261
f 263 265 262
f 263 266 265
f 246 247 263
f 247 269 263
f 377 270 269
f 266 267 264
f 272 382 268
f 263 269 272
f 272 266 263
f 269 270 273
f 272 267 266
f 269 273 272
f 272 268 267
f 270 274 273
f 272 273 383
f 270 271 274
f 271 336 277
f 271 276 274
f 271 277 276
f 336 342 277
f 274 278 379
f 274 379 275
f 274 276 278
f 281 282 292
f 308 279 281
f 281 280 282
f 298 294 283
f 298 300 295
f 284 286 285
f 285 287 288
f 286 287 285
f 286 302 287
f 303 289 287
f 288 289 301
f 287 289 288
f 289 296 301
f 308 291 279
f 308 290 291
f 308 281 293
f 281 292 293
f 302 303 287
f 308 307 290
f 308 293 294
f 309 294 298
f 298 295 297
f 304 296 289
f 309 298 310
f 310 298 297
f 298 299 300
f 301 296 320
f 302 307 303
f 303 308 304
f 303 304 289
f 302 306 307
f 303 307 308
f 308 309 304
f 308 294 309
f 304 309 305
f 309 310 305
f 305 310 316
f 310 313 311
f 310 311 316
f 304 305 296
f 305 316 322
f 296 322 320
f 305 322 296
f 316 323 322
f 310 297 312
f 310 312 313
f 316 311 314
f 316 314 315
f 316 315 318
f 316 318 317
f 317 318 328
f 317 328 330
f 317 330 329
f 317 329 331
f 317 331 319
f 316 317 323
f 317 325 323
f 317 319 325
f 319 350 325
f 37 320 321
f 320 322 321
f 321 324 182
f 37 321 182
f 322 323 321
f 321 323 324
f 324 323 325
f 324 325 326
f 325 361 326
f 392 326 361
f 319 331 332
f 319 332 333
f 338 356 340
f 338 340 341
f 339 338 349
f 336 337 346
f 336 344 343
f 336 346 344
f 336 343 342
f 337 348 346
f 346 345 344
f 346 347 345
f 339 349 348
f 338 341 349
f 349 341 358
f 337 339 348
f 319 333 334
f 319 334 350
f 350 334 335
f 351 350 335
f 351 356 350
f 351 355 354
f 351 352 356
f 351 354 353
f 351 353 352
f 356 352 357
f 356 357 340
f 356 361 350
f 350 361 325
f 351 335 360
f 351 360 355
f 339 405 338
f 338 362 356
f 356 362 361
f 349 358 413
f 348 349 416
f 412 413 358
f 360 359 355
f 392 361 362
f 64 363 221
f 363 66 365
f 66 364 365
f 364 367 365
f 363 365 366
f 363 366 221
f 221 366 247
f 365 375 366
f 365 369 375
f 369 371 376
f 109 176 374
f 369 376 375
f 365 367 369
f 112 368 367
f 367 368 369
f 113 370 368
f 369 368 371
f 368 370 371
f 109 373 370
f 109 374 373
f 374 176 394
f 370 373 371
f 371 373 372
f 371 372 380
f 372 396 407
f 373 374 372
f 374 394 396
f 372 374 396
f 366 375 377
f 366 377 247
f 247 377 269
f 375 376 378
f 377 378 270
f 375 378 377
f 376 388 378
f 378 271 270
f 273 274 385
f 378 388 271
f 388 336 271
f 376 380 388
f 388 409 336
f 380 409 388
f 371 380 376
f 372 407 380
f 380 407 409
f 382 381 268
f 272 383 382
f 273 386 383
f 273 384 386
f 273 385 384
f 274 275 385
f 385 275 387
f 403 402 404
f 324 389 182
f 326 391 389
f 179 399 398
f 391 184 389
f 399 390 391
f 390 184 391
f 324 326 389
f 392 391 326
f 392 401 391
f 404 401 392
f 404 402 401
f 178 398 400
f 189 395 188
f 187 188 395
f 394 187 395
f 190 400 397
f 189 190 397
f 189 397 395
f 396 393 408
f 393 397 402
f 397 400 402
f 403 393 402
f 394 395 396
f 396 395 393
f 395 397 393
f 398 399 401
f 401 399 391
f 402 398 401
f 400 398 402
f 336 410 337
f 337 406 339
f 337 410 406
f 336 409 410
f 407 410 409
f 408 406 410
f 404 392 362
f 338 405 362
f 404 362 405
f 408 403 406
f 403 404 405
f 339 406 405
f 349 413 414
f 403 405 406
f 407 396 408
f 408 393 403
f 407 408 410
f 346 348 418
f 346 419 347
f 419 411 347
f 349 414 416
f 348 416 415
f 348 415 418
f 346 418 419
f 412 422 413
f 417 411 419
f 417 419 421
f 417 421 420
f 413 422 423
f 199 235 198
f 197 193 234
f 198 235 200
f 194 195 201
f 196 213 195
f 201 195 209
f 202 209 203
f 204 203 240
f 327 193 210
f 327 195 213
f 327 209 195
f 327 203 209
f 327 234 193
f 327 240 203
f 327 210 212
f 327 213 214
f 227 230 226
f 327 212 223
f 327 223 224
f 327 214 236
f 327 236 234
f 327 306 240
f 327 224 225
f 242 243 257
f 327 225 226
f 327 226 230
f 327 230 248
f 327 248 249
f 327 249 250
f 327 250 251
f 327 251 252
f 327 252 253
f 327 253 254
f 327 254 255
f 255 244 245
f 242 327 256
f 242 257 327
f 327 245 256
f 327 255 245
f 266 262 265
f 327 381 382
f 327 257 260
f 327 260 261
f 327 261 262
f 327 262 266
f 327 266 264
f 327 264 267
f 327 267 268
f 327 268 381
f 327 382 383
f 327 387 275
f 327 275 379
f 327 276 277
f 327 277 342
f 327 278 276
f 327 379 278
f 281 279 280
f 280 279 282
f 283 299 298
f 283 294 299
f 290 307 291
f 327 282 279
f 292 282 293
f 327 279 291
f 327 293 282
f 327 299 294
f 327 300 299
f 327 295 300
f 327 291 307
f 327 294 293
f 327 307 306
f 327 297 295
f 327 313 312
f 327 312 297
f 327 311 313
f 315 314 318
f 327 314 311
f 327 318 314
f 327 328 318
f 327 330 328
f 327 329 330
f 327 331 329
f 327 332 331
f 327 333 332
f 327 334 333
f 327 335 334
f 327 352 353
f 327 357 352
f 327 353 354
f 327 340 357
f 327 341 340
f 327 358 341
f 327 342 343
f 327 343 344
f 327 344 345
f 327 345 347
f 327 347 411
f 327 412 358
f 327 359 335
f 327 354 355
f 327 355 359
f 327 414 413
f 360 335 359
f 327 383 384
f 386 384 383
f 327 384 385
f 327 385 387
f 327 415 414
f 327 423 412
f 327 413 423
f 327 411 417
f 327 418 415
f 327 419 418
f 327 417 420
f 327 420 419
f 416 414 415
f 420 421 419
f 423 422 412

