# https://github.com/mikedh/trimesh
v -0.00916506347006847 0.01087435567572548 -0.00433012707284964
v -0.01006186213830395 0.01035658872321083 -0.00353553397707022
v -0.01118258152378433 0.00970954108431771 -0.00129409511140860
v -0.01075000004815892 0.00995929211571648 -0.00250000007204093
v -0.00950000007508127 0.01125833020584951 -0.00150000007204093
v -0.00975954893980886 0.01110847959893118 -0.00077645738176383
v -0.01000000007508127 0.01212435560963395 -0.00150000007204093
v -0.01025954893980886 0.01197450500271562 -0.00077645738176383
v -0.00812071955256430 0.01147730791762307 -0.00482962913564719
v -0.00854903806628404 0.01180736837761770 -0.00259807617715872
v -0.00904903806628404 0.01267339378140214 -0.00259807617715872
v -0.00772505598016765 0.01170574438765480 -0.00420900256685294
v -0.00699999996060738 0.01212435567572548 -0.00500000007204093
v -0.00792243171578153 0.01216913972275625 -0.00289777739099539
v -0.00729695411645111 0.01195290911391213 -0.00348145134500540
v -0.00724999996060738 0.01255736837761770 -0.00300000007204093
v -0.00842243171578153 0.01303516512654069 -0.00289777739099539
v -0.00774999996060738 0.01342339378140214 -0.00300000007204093
v -0.00908711739111125 0.01149670813458334 -0.00212132031969107
v -0.00812500022432087 0.01147483647063210 -0.00075000007204093
v -0.00825477445020812 0.01139991128638222 -0.00038822848848380
v -0.00837500022432087 0.01190784917252432 -0.00075000007204093
v -0.00850477445020812 0.01183292398827444 -0.00038822848848380
v -0.00958711739111125 0.01236273353836778 -0.00212132031969107
v -0.00764951901344571 0.01174935567572548 -0.00129903800539053
v -0.00789951901344571 0.01218236837761770 -0.00129903800539053
v -0.00733621604467100 0.01193024122908547 -0.00144888885072745
v -0.00699999996060738 0.01212435567572548 -0.00150000007204093
v -0.00758621604467100 0.01236325393097769 -0.00144888885072745
v -0.00724999996060738 0.01255736837761770 -0.00150000007204093
v -0.00791855877909759 0.01159402549460366 -0.00106066043428458
v -0.00816855877909759 0.01202703819649588 -0.00106066043428458
v -0.01133012708276785 0.00962435561612084 -0.00000000007204093
v -0.01118258152378433 0.00970954108431771 0.00129409496732675
v -0.00984807617196069 0.01105736837761770 -0.00000000007204093
v -0.00975954893980886 0.01110847959893118 0.00077645723768198
v -0.00950000007508127 0.01125833020584951 0.00149999992795907
v -0.01034807617196070 0.01192339378140214 -0.00000000007204093
v -0.01025954893980886 0.01197450500271562 0.00077645723768198
v -0.01000000007508127 0.01212435560963395 0.00149999992795907
v -0.01075000004815892 0.00995929211571648 0.00249999992795907
v -0.01006186213830395 0.01035658872321083 0.00353553383298837
v -0.00916506347006847 0.01087435567572548 0.00433012669034921
v -0.00829903806628404 0.01137435567572548 -0.00000000007204093
v -0.00825477445020812 0.01139991128638222 0.00038822834440195
v -0.00812500022432087 0.01147483647063210 0.00074999992795907
v -0.00854903806628404 0.01180736837761770 -0.00000000007204093
v -0.00850477445020812 0.01183292398827444 0.00038822834440195
v -0.00837500022432087 0.01190784917252432 0.00074999992795907
v -0.00908711739111125 0.01149670813458334 0.00212132065244638
v -0.00958711739111125 0.01236273353836778 0.00212132065244638
v -0.00791855877909759 0.01159402549460366 0.00106066029020273
v -0.00816855877909759 0.01202703819649588 0.00106066029020273
v -0.00764951901344571 0.01174935567572548 0.00129903786130868
v -0.00789951901344571 0.01218236837761770 0.00129903786130868
v -0.00733621604467100 0.01193024122908547 0.00144888870664560
v -0.00699999996060738 0.01212435567572548 0.00149999992795907
v -0.00758621604467100 0.01236325393097769 0.00144888870664560
v -0.00724999996060738 0.01255736837761770 0.00149999992795907
v -0.00854903806628404 0.01180736837761770 0.00259807579465829
v -0.00812071955256430 0.01147730791762307 0.00482962887235605
v -0.00904903806628404 0.01267339378140214 0.00259807579465829
v -0.00792243171578153 0.01216913972275625 0.00289777748533212
v -0.00724999996060738 0.01255736837761770 0.00299999992795907
v -0.00699999996060738 0.01212435567572548 0.00499999992795907
v -0.00842243171578153 0.01303516512654069 0.00289777748533212
v -0.00774999996060738 0.01342339378140214 0.00299999992795907
v -0.01256706983364692 0.01410635880863528 -0.00321393806985892
v -0.01091506347006847 0.01390544458897102 -0.00433012707284964
v -0.01181186213830395 0.01338767763645637 -0.00353553397707022
v -0.01203335211938240 0.01441450087463717 -0.00383022220186270
v -0.01141506347006848 0.01477146999275546 -0.00433012707284964
v -0.01293258152378433 0.01274062999756324 -0.00129409511140860
v -0.01250000004815892 0.01299038102896201 -0.00250000007204093
v -0.01331898845187251 0.01367223839199404 -0.00171010072282828
v -0.01300000004815892 0.01385640643274645 -0.00250000007204093
v -0.01351434272599255 0.01355945054924349 -0.00086824090532340
v -0.01417560360177220 0.01548707248136605 -0.00157887609056510
v -0.01393347619563328 0.01562686480447854 -0.00222471077493704
v -0.01433334579851504 0.01539599998161401 -0.00089910180620230
v -0.01440331192478126 0.01535560501978005 -0.00019999988130606
v -0.00987071955256430 0.01450839683086860 -0.00482962913564719
v -0.01073099056721753 0.01516641966736178 -0.00469846315435446
v -0.00874999996060738 0.01515544458897102 -0.00500000007204093
v -0.01000191857883297 0.01558734957611422 -0.00492403883985556
v -0.00924999996060738 0.01602146999275546 -0.00500000007204093
v -0.00980702949637160 0.01569986884033541 -0.00037135274461783
v -0.00976924057183255 0.01572168628609042 -0.00033846576265372
v -0.00984623567592401 0.01567723314201693 -0.00000666339448966
v -0.00980280952871962 0.01570230523979525 -0.00002621276430167
v -0.00976580315029081 0.01572367088234286 -0.00005735070756949
v -0.00957160122177532 0.01583579341804843 -0.00064320237688101
v -0.00924999996060738 0.01602146999275546 -0.00074270589403189
v -0.00925577098007468 0.01601813809311251 -0.00068847329668082
v -0.00927270081800676 0.01600836364662508 -0.00063832910112418
v -0.00954312025994060 0.01585223690903048 -0.00059956748537100
v -0.00950674528679017 0.01587323800957064 -0.00056591565660513
v -0.00974009723323751 0.01573851220047335 -0.00029646403841055
v -0.00972153251401232 0.01574923054611544 -0.00024813182405509
v -0.00971477618846638 0.01575313131248812 -0.00019667489580191
v -0.00972027754956430 0.01574995510017733 -0.00014550454668082
v -0.00973767072086614 0.01573991314804415 -0.00009801347307242
v -0.00946488877429028 0.01589740387832980 -0.00054447848848380
v -0.00942032535426922 0.01592313258087496 -0.00053667743257559
v -0.00937601053200983 0.01594871775543551 -0.00054302985719718
v -0.00933488205581197 0.01597246329223971 -0.00056311376146353
v -0.00929966706789830 0.01599279467499118 -0.00059559829286612
v -0.01217665594538655 0.01664116544887627 -0.00425331194452323
v -0.01161734670207534 0.01696408279106225 -0.00453289647153891
v -0.01102864490297777 0.01730396993324364 -0.00471504147104300
v -0.01042320528913612 0.01765352065727318 -0.00479583151392020
v -0.01145343942537670 0.01705871470138634 -0.00057135303072012
v -0.01141565050083766 0.01708053214714135 -0.00053846604875601
v -0.01138650757519570 0.01709735782310570 -0.00049646384767569
v -0.01136794244301743 0.01710807640716637 -0.00044813211015738
v -0.01136118653042458 0.01711197693512048 -0.00039667470506705
v -0.01136668747856940 0.01710880096122826 -0.00034550435594595
v -0.01153961241194836 0.01700896270439232 -0.00019999988130606
v -0.01149264560492911 0.01703607900306786 -0.00020666368059195
v -0.01144921945772473 0.01706115110084618 -0.00022621257356680
v -0.01141221349224901 0.01708251650497521 -0.00025735051683463
v -0.01138408106282434 0.01709875877067650 -0.00029801328233756
v -0.01074480613735097 0.01746784432098473 -0.00138961226991690
v -0.01071632517551625 0.01748428781196679 -0.00134597737840689
v -0.01067995020236582 0.01750528891250695 -0.00131232602647818
v -0.01063809368986593 0.01752945478126610 -0.00129088885835684
v -0.01059353068279796 0.01755518324539269 -0.00128308780244864
v -0.01054921544758548 0.01758076865837182 -0.00128943975023306
v -0.01050808697138762 0.01760451419517602 -0.00130952413133658
v -0.01042320528913612 0.01765352065727318 -0.00148911626390494
v -0.01042897589565033 0.01765018899604882 -0.00143488366655386
v -0.01044590573358242 0.01764041454956139 -0.00138473947099722
v -0.01047287239642704 0.01762484533950890 -0.00134200866273917
v -0.01308012708276785 0.01265544452936637 -0.00000000007204093
v -0.01293258152378433 0.01274062999756324 0.00129409496732675
v -0.01358012708276785 0.01352146993315081 -0.00000000007204093
v -0.01351434272599255 0.01355945054924349 0.00086824076124155
v -0.01331898845187251 0.01367223839199404 0.00171010057874643
v -0.01250000004815892 0.01299038102896201 0.00249999992795907
v -0.01300000004815892 0.01385640643274645 0.00249999992795907
v -0.01256706983364692 0.01410635880863528 0.00321393768735849
v -0.01181186213830395 0.01338767763645637 0.00353553383298837
v -0.01091506347006847 0.01390544458897102 0.00433012669034921
v -0.01203335211938240 0.01441450087463717 0.00383022205778085
v -0.01141506347006848 0.01477146999275546 0.00433012669034921
v -0.01376027117681936 0.01572686476871575 0.00257112114377939
v -0.01339695876264007 0.01593662328884209 0.00313616554685556
v -0.01296599905704708 0.01618543799087609 0.00363379471250497
v -0.01247665604324035 0.01646796031162346 0.00405331222959482
v -0.00989320206999016 0.01565011708175997 -0.00000000007204093
v -0.00980702949637160 0.01569986884033541 0.00037135307737314
v -0.00976346955236525 0.01572501818573336 0.00035000746198617
v -0.00971739678879121 0.01575161830818514 0.00034186546750986
v -0.00967186499376831 0.01577790610229830 0.00034746639677011
v -0.00962989450621489 0.01580213777458529 0.00036643879362070
v -0.00959426697816184 0.01582270733749728 0.00039752523847543
v -0.00956734532720430 0.01583825055992465 0.00043866436429941
v -0.00955091474956101 0.01584773675834994 0.00048712770887338
v -0.00955311537659079 0.01584646622574191 0.00059290354200326
v -0.00954606420253683 0.01585053722298007 0.00053970282026254
v -0.00957160122177532 0.01583579341804843 0.00064320223279916
v -0.00924422935409317 0.01602480165397982 0.00068847315259897
v -0.00922729951616109 0.01603457610046725 0.00063832943387948
v -0.00924999996060738 0.01602146999275546 0.00074270574995004
v -0.00987071955256430 0.01450839683086860 0.00482962887235605
v -0.01073099056721753 0.01516641966736178 0.00469846336790048
v -0.00874999996060738 0.01515544458897102 0.00499999992795907
v -0.01000191857883297 0.01558734957611422 0.00492403881498300
v -0.00924999996060738 0.01602146999275546 0.00499999992795907
v -0.01128023450980105 0.01715871460601891 0.00091776316114389
v -0.01123667456579471 0.01718386395141686 0.00089641754575693
v -0.01119060180222067 0.01721046407386864 0.00088827555128061
v -0.01114507042015086 0.01723675162956322 0.00089387648054086
v -0.01110309951964434 0.01726098354026879 0.00091284887739145
v -0.01106747199159130 0.01728155310318078 0.00094393532224618
v -0.01104055034063375 0.01729709632560815 0.00098507444807016
v -0.01104480623520477 0.01729463918373193 0.00118961231656991
v -0.01102411976299046 0.01730658252403344 0.00103353826948129
v -0.01101926921596628 0.01730938298866357 0.00108611338087045
v -0.01102632039002025 0.01730531199142541 0.00113931362577402
v -0.00613140722744704 0.01262583792403176 -0.00500000007204093
v -0.00657756861838632 0.01294559679406057 -0.00289777739099539
v -0.00707756861838632 0.01381162219784501 -0.00289777739099539
v -0.00571789127990972 0.01286458146765664 -0.00488039572290457
v -0.00530979079922707 0.01310019839003517 -0.00471178562692679
v -0.00491796769059041 0.01332641756728127 -0.00449779839567221
v -0.00595096185493072 0.01330736837761770 -0.00259807617715872
v -0.00645096185493072 0.01417339378140214 -0.00259807617715872
v -0.00666378428949685 0.01231846988394692 -0.00144888885072745
v -0.00691378428949685 0.01275148258583914 -0.00144888885072745
v -0.00635048090776905 0.01249935567572548 -0.00129903800539053
v -0.00660048090776905 0.01293236837761770 -0.00129903800539053
v -0.00608144155507026 0.01265468561842873 -0.00106066043428458
v -0.00587500010984698 0.01277387464240029 -0.00075000007204093
v -0.00633144155507026 0.01308769832032095 -0.00106066043428458
v -0.00612500010984698 0.01320688734429251 -0.00075000007204093
v -0.00541288273658006 0.01361802850144278 -0.00212132031969107
v -0.00574522547100664 0.01284880006506874 -0.00038822848848380
v -0.00599522547100664 0.01328181276696096 -0.00038822848848380
v -0.00591288273658006 0.01448405390522721 -0.00212132031969107
v -0.00454619675821801 0.01354105961516335 -0.00424049503854788
v -0.00419805665360925 0.01374205839827492 -0.00394235332063712
v -0.00387690055587500 0.01392747795775368 -0.00360624463609732
v -0.00358582148367788 0.01409553253844216 -0.00323540575555838
v -0.00332762338851576 0.01424460327818825 -0.00283340818933524
v -0.00499999984613349 0.01385640654938589 -0.00150000007204093
v -0.00474045139435899 0.01400625691788565 -0.00077645738176383
v -0.00549999984613349 0.01472243195317033 -0.00150000007204093
v -0.00524045139435899 0.01487228232167009 -0.00077645738176383
v -0.00310479224800535 0.01437325489714577 -0.00240412337831534
v -0.00291947376641512 0.01448024857237770 -0.00195168550066031
v -0.00277345355291692 0.01456455338194802 -0.00148045165590323
v -0.00266813647393134 0.01462535822585061 -0.00099496085695303
v -0.00260453839406587 0.01466207659438088 -0.00049988753847159
v -0.00587500010984698 0.01277387464240029 0.00074999992795907
v -0.00608144155507026 0.01265468561842873 0.00106066029020273
v -0.00612500010984698 0.01320688734429251 0.00074999992795907
v -0.00633144155507026 0.01308769832032095 0.00106066029020273
v -0.00666378428949685 0.01231846988394692 0.00144888870664560
v -0.00691378428949685 0.01275148258583914 0.00144888870664560
v -0.00635048090776905 0.01249935567572548 0.00129903786130868
v -0.00660048090776905 0.01293236837761770 0.00129903786130868
v -0.00570096185493072 0.01287435567572548 -0.00000000007204093
v -0.00574522547100664 0.01284880006506874 0.00038822834440195
v -0.00595096185493072 0.01330736837761770 -0.00000000007204093
v -0.00599522547100664 0.01328181276696096 0.00038822834440195
v -0.00541288273658006 0.01361802850144278 0.00212132065244638
v -0.00591288273658006 0.01448405390522721 0.00212132065244638
v -0.00657756861838632 0.01294559679406057 0.00289777748533212
v -0.00613140805335322 0.01262583744719460 0.00499999992795907
v -0.00707756861838632 0.01381162219784501 0.00289777748533212
v -0.00595096185493072 0.01330736837761770 0.00259807579465829
v -0.00571789127990972 0.01286458146765664 0.00488039581724130
v -0.00530979079922707 0.01310019839003517 0.00471178524442636
v -0.00491796769059041 0.01332641756728127 0.00449779884763681
v -0.00645096185493072 0.01417339378140214 0.00259807579465829
v -0.00465192416220716 0.01405736813919912 -0.00000000007204093
v -0.00474045139435899 0.01400625691788565 0.00077645723768198
v -0.00499999984613349 0.01385640654938589 0.00149999992795907
v -0.00515192416220716 0.01492339354298356 -0.00000000007204093
v -0.00524045139435899 0.01487228232167009 0.00077645723768198
v -0.00549999984613349 0.01472243195317033 0.00149999992795907
v -0.00258327048389736 0.01467435562804177 -0.00000000007204093
v -0.00260453839406587 0.01466207659438088 0.00049988739438974
v -0.00266813647393134 0.01462535822585061 0.00099496071287118
v -0.00277345355291692 0.01456455338194802 0.00148045198865854
v -0.00291947376641512 0.01448024857237770 0.00195168535657846
v -0.00310479224800535 0.01437325489714577 0.00240412323423349
v -0.00387690055587500 0.01392747795775368 0.00360624496885263
v -0.00454619675821801 0.01354105961516335 0.00424049465604745
v -0.00419805665360925 0.01374205839827492 0.00394235317655527
v -0.00332762338851576 0.01424460327818825 0.00283340828367197
v -0.00358582148367788 0.01409553253844216 0.00323540584989511
v -0.00762928078160355 0.01580249210865485 -0.00482962913564719
v -0.00849808134238179 0.01645559040939669 -0.00492403883985556
v -0.00658493686409937 0.01640544435055244 -0.00433012707284964
v -0.00776900935399723 0.01687652031814913 -0.00469846315435446
v -0.00708493686409938 0.01727146975433688 -0.00433012707284964
v -0.00892839911239253 0.01620714632904391 -0.00064320237688101
v -0.00894688454462396 0.01619647375976901 -0.00059290368608511
v -0.00895393613163102 0.01619240252411227 -0.00053970296434439
v -0.00894908558460684 0.01619520298874240 -0.00048712785295523
v -0.00893265459401046 0.01620468942558627 -0.00043866403154410
v -0.00890573294305292 0.01622023264801364 -0.00039752538255728
v -0.00887010582795296 0.01624080197250704 -0.00036643893770255
v -0.00882813492744645 0.01626503388321261 -0.00034746606401480
v -0.00878260354537664 0.01629132143890719 -0.00034186561159171
v -0.00873653036884951 0.01631792179977755 -0.00035000760606802
v -0.00869297083779625 0.01634307090675692 -0.00037135274461783
v -0.00802334408445095 0.01903908116981591 -0.00405331201604880
v -0.00945519368600999 0.01821240241691674 -0.00118961246065177
v -0.00947367953119451 0.01820172960922326 -0.00113931376985587
v -0.00948073070524847 0.01819765861198510 -0.00108611304811514
v -0.00947588015822430 0.01820045907661523 -0.00103353793672598
v -0.00945944958058101 0.01820994527504052 -0.00098507459215201
v -0.00943252792962346 0.01822548849746789 -0.00094393546632803
v -0.00939690081452351 0.01824605782196129 -0.00091284902147330
v -0.00935492991401700 0.01827028973266686 -0.00089387662462271
v -0.00930939853194719 0.01829657728836144 -0.00088827569536246
v -0.00926332535542005 0.01832317764923180 -0.00089641768983878
v -0.00921976541141371 0.01834832699462975 -0.00091776330522574
v -0.00568813819586390 0.01692321130306709 -0.00353553397707022
v -0.00646664780183236 0.01762843911087374 -0.00383022220186270
v -0.00593293070699747 0.01793658081924777 -0.00321393806985892
v -0.00499999976981757 0.01732050820858466 -0.00250000007204093
v -0.00456741819095389 0.01757025929958808 -0.00129409511140860
v -0.00549999976981756 0.01818653361236910 -0.00250000007204093
v -0.00518101167581879 0.01837070147430758 -0.00171010072282828
v -0.00498565760817530 0.01848348919784884 -0.00086824090532340
v -0.00753400127712077 0.01932160337135400 -0.00363379485658682
v -0.00710304095209814 0.01957041843101586 -0.00313616569093741
v -0.00673972895087195 0.01978017671272362 -0.00257112081102408
v -0.00920033285331646 0.01605014531051974 0.00059559814878427
v -0.00916511786540279 0.01607047669327120 0.00056311361738168
v -0.00912398938920492 0.01609422223007540 0.00054302971311532
v -0.00907967456694554 0.01611980740463595 0.00053667728849374
v -0.00903511155987758 0.01614553586876254 0.00054447834440195
v -0.00899325463442458 0.01616970197594027 0.00056591551252328
v -0.00895688007422725 0.01619070283806185 0.00059956734128915
v -0.00873419677092395 0.01631926910316805 0.00005735056348764
v -0.00877972278460355 0.01629298464691500 0.00014550440259897
v -0.00876232920034862 0.01630302683746676 0.00009801332899057
v -0.00869719080544823 0.01634063450729708 0.00002621262021982
v -0.00878522373274838 0.01628980867302279 0.00019667475172006
v -0.00877846782015553 0.01629370920097689 0.00024813215681039
v -0.00875990268797725 0.01630442778503756 0.00029646389432870
v -0.00873075976233530 0.01632125346100192 0.00033846561857187
v -0.00869297083779625 0.01634307090675692 0.00037135307737314
v -0.00892839911239253 0.01620714632904391 0.00064320223279916
v -0.00865376465824384 0.01636570660507540 0.00000666372724496
v -0.00860679785122460 0.01639282290375094 -0.00000000007204093
v -0.00762928078160355 0.01580249210865485 0.00482962887235605
v -0.00849808134238179 0.01645559040939669 0.00492403881498300
v -0.00658493686409937 0.01640544435055244 0.00433012669034921
v -0.00776900935399723 0.01687652031814913 0.00469846336790048
v -0.00708493686409938 0.01727146975433688 0.00433012669034921
v -0.00911591885839042 0.01840828282997216 0.00029801313825571
v -0.00913331244264536 0.01839824063942040 0.00034550421186410
v -0.00913881339079018 0.01839506466552819 0.00039667503782236
v -0.00913205747819733 0.01839896519348229 0.00044813196607553
v -0.00911349275897215 0.01840968353912438 0.00049646370359384
v -0.01007102402556443 0.01785685260459985 0.00143488352247201
v -0.01007679504503173 0.01785352070495690 0.00148911611982309
v -0.01005409418763234 0.01786662705108727 0.00138473932691537
v -0.01002712793774081 0.01788219602272118 0.00134200851865732
v -0.00999191294982714 0.01790252740547265 0.00130952398725473
v -0.00995078447362927 0.01792627294227685 0.00128943960615121
v -0.00990646965136989 0.01795185811683739 0.00128308765836679
v -0.00986190623134883 0.01797758681938256 0.00129088871427499
v -0.00982004971884894 0.01800175268814171 0.00131232588239633
v -0.00978367474569851 0.01802275378868188 0.00134597723432504
v -0.00975519378386379 0.01803919727966393 0.00138961212583505
v -0.00905078046349003 0.01844589049980248 0.00022621242948495
v -0.00908778684191884 0.01842452485725487 0.00025735084958993
v -0.00900735431628564 0.01847096259758080 0.00020666353651010
v -0.00896038792221950 0.01849807865783776 0.00019999973722421
v -0.00908434942037710 0.01842650945350732 0.00053846590467416
v -0.00904656049583806 0.01844832689926232 0.00057135288663827
v -0.01007679504503173 0.01785352070495690 0.00479583160825693
v -0.00947135543119008 0.01820307142898644 0.00471504108854257
v -0.00888265321913942 0.01854295880958642 0.00453289692350351
v -0.00832334376935166 0.01886587627098168 0.00425331203885995
v -0.00441987335463828 0.01765544435055244 -0.00000000007204093
v -0.00456741819095389 0.01757025929958808 0.00129409496732675
v -0.00491987335463828 0.01852146975433688 -0.00000000007204093
v -0.00498565760817530 0.01848348919784884 0.00086824076124155
v -0.00518101167581879 0.01837070147430758 0.00171010057874643
v -0.00568813819586390 0.01692321130306709 0.00353553383298837
v -0.00593293070699747 0.01793658081924777 0.00321393768735849
v -0.00646664780183236 0.01762843911087374 0.00383022205778085
v -0.00499999976981757 0.01732050820858466 0.00249999992795907
v -0.00549999976981756 0.01818653361236910 0.00249999992795907
v -0.00609668830614832 0.02015143640205468 0.00019999973722421
v -0.00616665412269972 0.02011104161903466 0.00089910166212045
v -0.00656652403529630 0.01988017661735619 0.00222471039243661
v -0.00632439642268084 0.02001996905967797 0.00157887594648324
f 3 33 21
f 4 3 20
f 2 4 25
f 3 21 20
f 21 33 44
f 5 8 7
f 5 6 8
f 6 35 38
f 6 38 8
f 70 24 74
f 69 11 70
f 74 7 73
f 73 8 134
f 74 24 7
f 73 7 8
f 8 38 134
f 1 2 27
f 9 1 27
f 14 10 11
f 9 28 12
f 28 13 15
f 28 15 12
f 9 27 28
f 14 11 17
f 14 17 16
f 17 18 16
f 4 20 31
f 4 31 25
f 19 22 5
f 2 25 27
f 10 32 19
f 19 32 22
f 5 23 6
f 6 47 35
f 6 23 47
f 31 20 22
f 20 23 22
f 20 21 23
f 21 44 47
f 21 47 23
f 5 22 23
f 19 7 24
f 10 19 24
f 19 5 7
f 10 24 11
f 25 26 27
f 14 26 10
f 14 29 26
f 10 26 32
f 26 29 27
f 28 27 29
f 28 29 30
f 14 30 29
f 14 16 30
f 25 31 32
f 31 22 32
f 25 32 26
f 70 11 24
f 69 17 11
f 82 17 69
f 82 18 17
f 82 84 18
f 33 34 45
f 33 45 44
f 45 34 46
f 46 34 41
f 54 41 42
f 35 36 39
f 35 39 38
f 36 40 39
f 36 37 40
f 38 135 134
f 39 139 135
f 38 39 135
f 39 40 139
f 40 51 142
f 40 142 139
f 51 143 142
f 35 47 36
f 47 48 36
f 48 37 36
f 44 45 48
f 44 48 47
f 45 49 48
f 45 46 49
f 46 53 49
f 48 49 37
f 46 41 52
f 52 41 54
f 49 50 37
f 54 42 56
f 49 53 50
f 53 60 50
f 37 51 40
f 37 50 51
f 50 62 51
f 50 60 62
f 46 52 53
f 52 55 53
f 52 54 55
f 54 58 55
f 53 55 60
f 55 63 60
f 55 58 63
f 54 56 58
f 56 57 59
f 56 59 58
f 58 64 63
f 58 59 64
f 56 42 43
f 56 43 61
f 60 66 62
f 56 61 57
f 60 63 66
f 63 67 66
f 63 64 67
f 51 62 143
f 62 165 143
f 62 66 165
f 66 67 167
f 66 167 165
f 70 74 68
f 68 74 76
f 69 70 71
f 69 71 72
f 71 70 68
f 74 73 75
f 73 134 77
f 74 75 76
f 75 73 77
f 77 134 136
f 68 76 87
f 76 75 79
f 75 77 78
f 77 136 81
f 79 75 78
f 78 77 80
f 77 81 80
f 81 136 118
f 76 79 112
f 79 78 112
f 78 80 112
f 80 81 118
f 80 118 112
f 82 69 83
f 83 69 72
f 85 82 83
f 71 68 92
f 72 71 92
f 85 84 82
f 85 86 84
f 68 87 92
f 92 87 96
f 87 88 96
f 97 88 98
f 103 98 99
f 104 99 100
f 96 88 97
f 97 98 103
f 103 99 104
f 105 104 100
f 105 100 101
f 106 105 263
f 105 101 264
f 83 72 108
f 83 108 109
f 83 109 110
f 72 123 108
f 109 108 123
f 85 83 110
f 85 111 86
f 85 110 111
f 86 111 130
f 110 109 130
f 110 130 111
f 76 112 87
f 118 136 150
f 118 150 119
f 112 118 113
f 113 118 114
f 114 118 115
f 115 118 116
f 116 118 117
f 122 118 121
f 118 119 120
f 121 118 120
f 117 118 122
f 72 92 123
f 86 130 93
f 90 120 89
f 89 119 150
f 87 113 88
f 114 98 88
f 115 99 98
f 116 100 99
f 117 102 101
f 117 101 100
f 90 91 121
f 122 91 102
f 124 92 96
f 125 96 97
f 126 97 103
f 127 103 104
f 131 94 93
f 128 104 105
f 128 105 106
f 129 106 107
f 133 107 95
f 132 95 94
f 109 123 130
f 123 124 125
f 123 125 126
f 123 126 127
f 123 127 128
f 130 123 131
f 123 128 129
f 123 133 132
f 123 129 133
f 131 123 132
f 87 112 113
f 113 114 88
f 114 115 98
f 115 116 99
f 116 117 100
f 90 121 120
f 122 121 91
f 89 120 119
f 117 122 102
f 123 92 124
f 124 96 125
f 125 97 126
f 126 103 127
f 128 127 104
f 130 131 93
f 132 133 95
f 131 132 94
f 129 128 106
f 133 129 107
f 134 135 137
f 135 139 138
f 134 137 136
f 137 135 138
f 138 139 140
f 136 137 150
f 151 137 138
f 151 138 140
f 139 142 141
f 139 141 140
f 142 143 144
f 141 142 144
f 144 143 145
f 170 140 146
f 170 146 147
f 140 141 146
f 146 141 147
f 141 144 147
f 144 145 149
f 147 144 148
f 170 147 148
f 148 144 149
f 150 137 151
f 89 150 152
f 90 89 153
f 90 153 91
f 89 152 153
f 150 151 152
f 102 91 154
f 101 102 155
f 91 153 154
f 102 154 155
f 101 155 156
f 101 156 301
f 156 157 295
f 157 158 294
f 158 160 293
f 160 159 163
f 157 294 295
f 160 163 293
f 158 293 294
f 159 161 162
f 161 164 162
f 159 162 163
f 161 166 164
f 143 165 166
f 161 145 166
f 143 166 145
f 165 168 166
f 165 167 168
f 164 166 168
f 164 168 169
f 168 167 169
f 151 140 170
f 177 145 161
f 170 148 177
f 151 171 152
f 152 172 153
f 153 173 154
f 154 174 155
f 155 175 156
f 156 175 157
f 157 176 158
f 158 178 160
f 160 179 159
f 159 180 161
f 151 170 171
f 152 171 172
f 153 172 173
f 154 173 174
f 155 174 175
f 157 175 176
f 158 176 178
f 160 178 179
f 159 179 180
f 180 177 161
f 170 177 171
f 172 171 177
f 172 177 173
f 173 177 174
f 174 177 175
f 175 177 176
f 176 177 178
f 178 177 179
f 179 177 180
f 177 149 145
f 177 148 149
f 13 191 181
f 13 28 189
f 13 189 191
f 191 184 181
f 16 18 182
f 18 183 182
f 182 183 187
f 183 188 187
f 191 185 184
f 191 186 185
f 191 201 186
f 191 202 201
f 191 203 202
f 28 30 189
f 30 190 189
f 189 190 191
f 190 192 191
f 16 190 30
f 16 182 190
f 182 192 190
f 182 187 192
f 187 195 192
f 191 192 193
f 192 195 193
f 193 195 194
f 195 196 194
f 191 193 204
f 187 197 195
f 197 196 195
f 193 194 205
f 194 198 205
f 197 206 196
f 194 196 198
f 198 199 223
f 196 199 198
f 199 225 223
f 206 199 196
f 198 223 210
f 206 207 199
f 207 225 199
f 207 237 225
f 187 188 197
f 188 200 197
f 197 200 206
f 200 208 206
f 84 183 18
f 254 188 183
f 84 254 183
f 256 200 188
f 254 256 188
f 191 204 203
f 193 205 204
f 198 210 205
f 223 211 210
f 223 212 211
f 223 213 212
f 206 208 207
f 208 209 207
f 207 209 237
f 209 240 237
f 223 214 213
f 223 243 214
f 256 282 200
f 282 285 208
f 282 208 200
f 208 285 209
f 286 240 209
f 285 286 209
f 286 343 240
f 216 218 221
f 218 222 221
f 215 217 216
f 217 218 216
f 219 220 57
f 220 59 57
f 221 222 219
f 222 220 219
f 220 64 59
f 222 229 220
f 220 229 64
f 218 232 222
f 222 232 229
f 223 225 224
f 224 226 215
f 225 226 224
f 226 217 215
f 226 239 217
f 223 224 247
f 224 215 248
f 225 238 226
f 225 237 238
f 226 238 239
f 217 227 218
f 218 227 232
f 216 221 252
f 215 216 248
f 217 239 227
f 227 228 232
f 228 236 232
f 239 242 227
f 242 228 227
f 219 57 65
f 221 219 65
f 221 230 233
f 221 65 230
f 231 67 64
f 229 231 64
f 232 236 229
f 236 231 229
f 221 233 234
f 221 234 235
f 221 251 249
f 221 235 250
f 221 250 251
f 231 312 67
f 67 312 167
f 236 314 231
f 228 348 236
f 236 348 314
f 231 314 312
f 223 246 245
f 223 247 246
f 221 253 252
f 224 248 247
f 216 252 248
f 237 240 238
f 240 241 238
f 238 241 239
f 241 242 239
f 223 244 243
f 223 245 244
f 221 249 253
f 240 343 241
f 241 344 242
f 242 351 228
f 241 343 344
f 242 344 351
f 228 351 348
f 84 255 254
f 84 86 255
f 255 257 254
f 86 93 255
f 255 93 257
f 254 257 256
f 257 258 256
f 257 259 258
f 257 93 259
f 93 94 259
f 94 95 260
f 94 260 259
f 95 107 261
f 106 262 107
f 106 263 262
f 105 264 263
f 95 261 260
f 107 262 261
f 264 101 301
f 264 301 265
f 265 302 266
f 265 301 302
f 266 300 267
f 269 268 311
f 267 310 268
f 267 300 303
f 266 302 300
f 267 303 310
f 268 310 311
f 269 311 289
f 258 271 270
f 270 271 290
f 258 259 271
f 259 260 272
f 273 260 261
f 274 261 262
f 275 262 263
f 276 263 264
f 276 264 265
f 277 265 266
f 278 266 267
f 279 267 268
f 280 268 269
f 272 260 273
f 259 272 271
f 273 261 274
f 274 262 275
f 275 263 276
f 276 265 277
f 277 266 278
f 278 267 279
f 280 279 268
f 281 280 269
f 271 272 273
f 271 273 274
f 271 274 275
f 271 275 276
f 271 276 277
f 271 277 278
f 271 278 279
f 271 279 280
f 271 280 281
f 287 281 269
f 290 271 281
f 256 283 282
f 256 258 283
f 283 284 282
f 282 284 285
f 284 287 285
f 287 269 288
f 288 269 289
f 289 311 345
f 285 288 286
f 286 289 343
f 285 287 288
f 288 289 286
f 289 345 343
f 258 270 283
f 283 291 284
f 283 270 290
f 290 281 291
f 283 290 291
f 284 292 287
f 291 292 284
f 292 281 287
f 291 281 292
f 301 156 295
f 304 295 296
f 305 296 297
f 301 295 304
f 304 296 305
f 305 297 306
f 306 298 307
f 306 297 298
f 307 298 299
f 308 299 309
f 307 299 308
f 308 309 349
f 312 313 167
f 167 313 169
f 312 315 313
f 314 315 312
f 309 316 350
f 309 350 349
f 314 316 315
f 293 163 325
f 163 162 324
f 294 293 326
f 295 294 327
f 295 327 296
f 296 328 297
f 297 329 298
f 162 164 322
f 298 330 299
f 299 331 309
f 300 302 317
f 302 301 318
f 301 304 318
f 304 305 319
f 303 300 334
f 310 303 333
f 310 335 311
f 305 306 320
f 306 307 321
f 307 308 337
f 164 169 323
f 309 332 316
f 293 325 326
f 162 322 324
f 163 324 325
f 164 323 322
f 294 326 327
f 296 327 328
f 297 328 329
f 298 329 330
f 299 330 331
f 309 331 332
f 302 318 317
f 300 317 334
f 303 334 333
f 310 333 335
f 311 335 336
f 304 319 318
f 305 320 319
f 306 321 320
f 307 337 321
f 308 338 337
f 324 322 332
f 325 324 332
f 332 322 323
f 328 327 332
f 326 325 332
f 327 326 332
f 328 332 329
f 329 332 330
f 330 332 331
f 332 323 341
f 311 336 345
f 308 352 338
f 336 334 317
f 336 317 318
f 336 333 334
f 336 335 333
f 336 318 319
f 336 319 320
f 336 320 321
f 336 321 337
f 336 337 338
f 336 338 354
f 169 313 339
f 313 315 340
f 323 339 340
f 323 340 341
f 323 169 339
f 313 340 339
f 316 342 315
f 332 342 316
f 332 341 342
f 315 341 340
f 342 341 315
f 308 349 352
f 343 346 344
f 344 347 351
f 343 345 346
f 347 352 351
f 346 347 344
f 348 350 314
f 348 349 350
f 350 316 314
f 348 351 349
f 351 352 349
f 336 353 345
f 336 354 353
f 338 356 354
f 338 352 355
f 338 355 356
f 345 353 346
f 347 355 352
f 346 356 347
f 346 354 356
f 353 354 346
f 347 356 355
f 15 4 2
f 15 3 4
f 15 33 3
f 15 34 33
f 15 2 1
f 15 1 9
f 15 9 12
f 15 41 34
f 15 42 41
f 15 43 42
f 15 57 43
f 61 43 57
f 13 181 15
f 15 181 184
f 15 184 185
f 15 185 186
f 15 186 201
f 15 201 202
f 15 202 203
f 15 203 204
f 15 204 205
f 15 205 210
f 15 210 211
f 15 211 212
f 15 212 213
f 15 213 214
f 15 214 243
f 15 245 246
f 15 246 247
f 15 243 244
f 15 244 245
f 15 230 57
f 15 233 230
f 15 234 233
f 15 253 249
f 15 250 235
f 15 251 250
f 15 235 234
f 15 249 251
f 65 57 230
f 15 248 252
f 15 247 248
f 15 252 253

