# https://github.com/mikedh/trimesh
v -0.01850000266406650 -0.00469846545336011 -0.00171010072297364
v -0.01849999806165442 -0.00433012625700292 -0.00250000007218628
v -0.01850000040228782 -0.00492404004958663 -0.00086824090546875
v -0.02049999901555135 -0.00222471134415941 -0.00425331194466858
v -0.01850000181312817 -0.00321393933933789 -0.00383022220200806
v -0.01849999635054308 -0.00383022077346908 -0.00321393807000428
v -0.02049999746529705 -0.00453289579197394 -0.00157887609071045
v -0.02049999701917932 -0.00425330977268031 -0.00222471077508240
v -0.02049999742901908 -0.00471504001984828 -0.00089910180634766
v -0.02049999918006460 -0.00479583227503440 -0.00019999988145142
v -0.01750000040375577 -0.00482962906262076 -0.00129409511155396
v -0.01750000256598047 -0.00433012885757678 -0.00250000007218628
v -0.01849999923730977 -0.00250000031934093 -0.00433012707299500
v -0.01749999713438635 -0.00249999910521753 -0.00433012707299500
v -0.01749999857655424 -0.00353553432703601 -0.00353553397721558
v -0.01849999800075499 -0.00171010072771821 -0.00469846315449982
v -0.01849999911786928 -0.00086824088266324 -0.00492403884000092
v -0.01749999818219912 -0.00129409519074319 -0.00482962913579254
v -0.01849999906302421 -0.00500000062121238 -0.00000000007218628
v -0.01850000040228782 -0.00492404004958663 0.00086824076109619
v -0.01749999696010078 -0.00499999940708898 -0.00000000007218628
v -0.01850000266406650 -0.00469846545336011 0.00171010057860107
v -0.01849999806165442 -0.00433012625700292 0.00249999992781372
v -0.02049999801124931 -0.00405331110612251 0.00257112114363403
v -0.02050000078509692 -0.00363379641398219 0.00313616554671020
v -0.02049999840858919 -0.00313616564251902 0.00363379471235962
v -0.02049999717470596 -0.00257111956189402 0.00405331222944946
v -0.01849999635054308 -0.00383022077346908 0.00321393768721313
v -0.01850000181312817 -0.00321393933933789 0.00383022205763549
v -0.01750000040375577 -0.00482962906262076 0.00129409496718139
v -0.01750000256598047 -0.00433012885757678 0.00249999992781372
v -0.01749999857655424 -0.00353553432703601 0.00353553383284301
v -0.01849999923730977 -0.00250000031934093 0.00433012669020385
v -0.01749999713438635 -0.00249999910521753 0.00433012669020385
v -0.01849999800075499 -0.00171010072771821 0.00469846336775512
v -0.01849999911786928 -0.00086824088266324 0.00492403881483764
v -0.01749999818219912 -0.00129409519074319 0.00482962887221069
v -0.02050000263787208 -0.00157887682304554 -0.00453289647168427
v -0.02050000029764231 -0.00089910182370804 -0.00471504147118836
v -0.02050000262537220 -0.00020000111227410 -0.00479583151406556
v -0.02050000232211828 -0.00057135478693936 -0.00138961227006226
v -0.02049999735713293 -0.00053846543732749 -0.00134597737855225
v -0.02050000172945337 -0.00049646567674633 -0.00131232602662354
v -0.02049999834597568 -0.00044813169335162 -0.00129088885850220
v -0.02050000034745912 -0.00039667558996184 -0.00128308780259400
v -0.02049999730177208 -0.00034550288673093 -0.00128943975037842
v -0.02049999962067636 -0.00029801351870838 -0.00130952413148194
v -0.02049999936403372 -0.00138961247396868 -0.00057135303086548
v -0.02049999682607883 -0.00134597673311675 -0.00053846604890137
v -0.02049999998453109 -0.00131232563263414 -0.00049646384782105
v -0.02049999891113390 -0.00129088889317980 -0.00044813211030274
v -0.02050000052107856 -0.00128308886346292 -0.00039667470521241
v -0.02049999874013354 -0.00128943960440018 -0.00034550435609131
v -0.02049999918594899 -0.00148911534589704 -0.00019999988145142
v -0.02050000029766583 -0.00143488368401886 -0.00020666368073731
v -0.02049999746233231 -0.00134200834593714 -0.00025735051697998
v -0.02050000213271195 -0.00138474012476638 -0.00022621257371216
v -0.02049999732435732 -0.00130952262300276 -0.00029801328248291
v -0.02050000262537220 -0.00020000111227410 -0.00148911626405030
v -0.02049999756766384 -0.00020666270451320 -0.00143488366669922
v -0.02049999664101473 -0.00022621081830560 -0.00138473947114258
v -0.02049999898971716 -0.00025734993871023 -0.00134200866288453
v -0.01849999941159534 -0.00000000001746948 -0.00500000007218628
v -0.01749999730867191 0.00000000119665393 -0.00500000007218628
v -0.01849999970532139 0.00086824084772429 -0.00492403884000092
v -0.01850000082243569 0.00171010069277925 -0.00469846315449982
v -0.01849999993684654 -0.00064320284305927 -0.00037135274476319
v -0.01849999739889165 -0.00059956710220734 -0.00033846576279908
v -0.01850000087047865 -0.00068847405310945 -0.00000666339463501
v -0.01850000270552477 -0.00063833049385697 -0.00002621276444702
v -0.01849999898881944 -0.00059559706321537 -0.00005735070771485
v -0.01850000055734391 -0.00056591600172473 -0.00029646403855591
v -0.01849999948394672 -0.00054447926227040 -0.00024813182420044
v -0.01850000109389138 -0.00053667923255352 -0.00019667489594727
v -0.01849999931294636 -0.00054302997349078 -0.00014550454682618
v -0.01849999789717014 -0.00056311299209336 -0.00009801347321778
v -0.02050000014636200 0.00091776192793865 -0.00118961246079712
v -0.02050000163058360 0.00089641745278745 -0.00113931377000122
v -0.02049999756060845 0.00088827746881339 -0.00108611304826050
v -0.02049999789383608 0.00089387802156650 -0.00103353793687134
v -0.02050000003329451 0.00091284840202190 -0.00098507459229737
v -0.02050000217908073 0.00094393427195296 -0.00094393546647339
v -0.02050000271704000 0.00098507289903825 -0.00091284902161866
v -0.02049999708877597 0.00103354032345055 -0.00089387662476807
v -0.02050000027392583 0.00108611236861225 -0.00088827569550782
v -0.02049999775177772 0.00113931539758453 -0.00089641768998413
v -0.02050000027153119 0.00118961273067555 -0.00091776330537110
v -0.01849999910834141 -0.00037135369213474 -0.00064320237702637
v -0.01849999941159534 -0.00000000001746948 -0.00074270589417725
v -0.01850000003448735 -0.00002621353819824 -0.00063832910126953
v -0.01850000096113646 -0.00000666542440584 -0.00068847329682618
v -0.01850000170427987 -0.00033846650540776 -0.00059956748551636
v -0.01849999946935083 -0.00029646293012934 -0.00056591565675049
v -0.01850000173944829 -0.00024813441324426 -0.00054447848862915
v -0.01849999713368226 -0.00019667449515722 -0.00053667743272095
v -0.01849999640689950 -0.00009801242390376 -0.00056311376160889
v -0.01850000069524469 -0.00014550560662357 -0.00054302985734253
v -0.01850000238318977 -0.00005735265860288 -0.00059559829301148
v -0.01849999971484926 0.00037135365719579 -0.00064320237702637
v -0.01850000024539655 0.00035000753023221 -0.00059290368623047
v -0.01850000278267088 0.00034186373156089 -0.00053970296448975
v -0.01849999650864902 0.00034746809901126 -0.00048712785310059
v -0.01849999864810746 0.00036643847946666 -0.00043866403168946
v -0.01850000079389368 0.00039752434939772 -0.00039752538270264
v -0.01850000133185294 0.00043866297648301 -0.00036643893784790
v -0.01850000231083839 0.00048712658619804 -0.00034746606416016
v -0.01849999888873877 0.00053970244605701 -0.00034186561173706
v -0.01849999636659067 0.00059290547502929 -0.00035000760621338
v -0.01849999888634413 0.00064320280812032 -0.00037135274476319
v -0.02049999684567945 0.00257112229985597 -0.00405331201619416
v -0.02050000221904571 0.00313616456578371 -0.00363379485673218
v -0.02049999984253797 0.00363379533724688 -0.00313616569108277
v -0.02050000357005990 0.00405331168119956 -0.00257112081116944
v -0.02050000035610371 -0.00118961380741087 0.00091776316099853
v -0.02049999626860769 -0.00113931265962257 0.00089641754561157
v -0.02050000035370907 -0.00108611344534756 0.00088827555113525
v -0.02049999693160945 -0.00103353758548859 0.00089387648039550
v -0.02049999791059490 -0.00098507397577356 0.00091284887724609
v -0.02049999844855417 -0.00094393534868827 0.00094393532210083
v -0.02050000059434038 -0.00091284947875721 0.00098507444792480
v -0.02050000048127290 -0.00091776300467397 0.00118961231642456
v -0.02049999612654934 -0.00089387528360455 0.00103353826933593
v -0.02049999645977696 -0.00088827473085144 0.00108611338072509
v -0.02049999899705129 -0.00089641852952276 0.00113931362562866
v -0.02050000163791774 0.00025734886197492 0.00134200851851196
v -0.02049999737937068 0.00022621355626755 0.00138473932677002
v -0.02050000100695853 0.00029801244197307 0.00130952398710937
v -0.02049999671861334 0.00034550562469288 0.00128943960600586
v -0.02049999800226269 0.00020000003553879 0.00148911611967773
v -0.02049999645272157 0.00020666544247515 0.00143488352232666
v -0.02049999800226269 0.00020000003553879 0.00479583160811157
v -0.01849999975876181 -0.00074270571498764 -0.00000000007218628
v -0.01849999993684654 -0.00064320284305927 0.00037135307722778
v -0.01850000245660001 -0.00059290550996824 0.00035000746184082
v -0.01849999993445190 -0.00053970248099597 0.00034186546736450
v -0.02049999669602809 0.00130952536096472 0.00029801313811035
v -0.02049999849492295 0.00138473904803107 0.00022621242933960
v -0.02050000316530259 0.00134200726920183 0.00025735084944458
v -0.02050000188750136 0.00128943852766487 0.00034550421171875
v -0.02050000010655634 0.00128308778672761 0.00039667503767700
v -0.02050000171650100 0.00129088781644449 0.00044813196593017
v -0.02050000064310380 0.00131232455589882 0.00049646370344848
v -0.02049999719430659 0.00134597947107870 0.00053846590452881
v -0.02050000126360118 0.00138961139723336 0.00057135288649292
v -0.02050000028017577 0.00039667451322653 0.00128308765822143
v -0.02050000228165922 0.00044813061661630 0.00129088871412964
v -0.02049999889818152 0.00049646460001102 0.00131232588225097
v -0.02049999666325248 0.00053846817528944 0.00134597723417968
v -0.02049999830551662 0.00057135371020405 0.00138961212568969
v -0.01849999651235228 -0.00048712662113700 0.00034746639662475
v -0.01849999749133773 -0.00043866301142197 0.00036643879347534
v -0.01849999802929700 -0.00039752438433668 0.00039752523833007
v -0.01850000017508321 -0.00036643851440562 0.00043866436415405
v -0.01850000231454165 -0.00034746813395022 0.00048712770872802
v -0.01850000264776927 -0.00034186758119711 0.00053970282011718
v -0.01849999857779413 -0.00035000756517117 0.00059290354185791
v -0.01849999910834141 -0.00037135369213474 0.00064320223265381
v -0.01849999878870333 0.00002621350325929 0.00063832943373413
v -0.01849999786205422 0.00000666538946688 0.00068847315245361
v -0.01849999941159534 -0.00000000001746948 0.00074270574980468
v -0.01849999644000090 0.00005735262366392 0.00059559814863891
v -0.01850000241629117 0.00009801238896481 0.00056311361723632
v -0.01849999812794598 0.00014550557168462 0.00054302971296997
v -0.01850000168950841 0.00019667446021826 0.00053667728834839
v -0.01849999708374238 0.00024813437830531 0.00054447834425659
v -0.01849999935383984 0.00029646289519039 0.00056591551237793
v -0.01849999711891081 0.00033846647046881 0.00059956734114380
v -0.01850000092602053 0.00056311295715440 0.00009801332884521
v -0.01849999951024432 0.00054302993855182 0.00014550440245361
v -0.01849999983437123 0.00059559702827641 0.00005735056334228
v -0.01849999611766591 0.00063833045891802 0.00002621262007446
v -0.01849999772929930 0.00053667919761456 0.00019667475157470
v -0.01849999933924396 0.00054447922733144 0.00024813215666504
v -0.01849999826584676 0.00056591596678578 0.00029646389418335
v -0.01849999795271202 0.00068847401817050 0.00000666372709961
v -0.01849999906442886 0.00074270568004868 -0.00000000007218628
v -0.01850000142429903 0.00059956706726839 0.00033846561842651
v -0.01849999888634413 0.00064320280812032 0.00037135307722778
v -0.01849999971484926 0.00037135365719579 0.00064320223265381
v -0.02050000032999259 0.00089910074697272 0.00471504108839721
v -0.01849999941159534 -0.00000000001746948 0.00499999992781372
v -0.01749999730867191 0.00000000119665393 0.00499999992781372
v -0.01849999970532139 0.00086824084772429 0.00492403881483764
v -0.01850000082243569 0.00171010069277925 0.00469846336775512
v -0.02050000032996906 0.00143488260728354 0.00020666353636474
v -0.02050000144168591 0.00148911426916173 0.00019999973707885
v -0.02050000144757029 0.00479583119829909 0.00019999973707885
v -0.02049999754504065 0.00471504440962260 0.00089910166197509
v -0.02049999560141405 0.00453289687812352 0.00157887594633789
v -0.02049999700120609 0.00425331251064227 0.00222471039229126
v -0.02049999798976281 0.00157887574631023 0.00453289692335815
v -0.02050000161208355 0.00222471026742410 0.00425331203871460
v -0.01399999696357610 -0.00423005442482624 -0.00263041813439637
v -0.01399999869709894 -0.00482963027969848 -0.00129409511155396
v -0.01399999869709894 -0.00482963027969848 -0.00129409558839112
v -0.01399999965077326 -0.00482962862788611 -0.00129409511155396
v -0.01400000181299797 -0.00433012842284213 -0.00250000007218628
v -0.01400000085932365 -0.00433013007465450 -0.00250000007218628
v -0.01400000181299797 -0.00433012842284213 -0.00250000007218628
v -0.01400000122655948 -0.00440889530772400 -0.00230983836716919
v -0.01400000124138162 -0.00486115053107474 -0.00105466659135132
v -0.01399999722964161 -0.00495556360754194 -0.00033751876420288
v -0.01399999834940032 -0.00495722487607079 -0.00032491357392578
v -0.01399999709436718 -0.00395203906157070 -0.00011456925935059
v -0.01550000286445968 -0.00259807822233495 -0.00150000007218628
v -0.01450000076153625 -0.00259807700821155 -0.00150000007218628
v -0.01550000175785972 -0.00289777801499887 -0.00077645738190918
v -0.01449999965493629 -0.00289777680087546 -0.00077645738190918
v -0.01399999843401091 -0.00325443542288032 -0.00053730971879273
v -0.01400000276987964 -0.00253023052524007 -0.00189622027940064
v -0.01449999817714565 -0.00212132062024956 -0.00212132031983643
v -0.01399999920705745 -0.00234464404486193 -0.00179911000794678
v -0.01400000119116845 -0.00314053904578088 -0.00103379113740235
v -0.01399999802145072 -0.00207351267554147 -0.00078041513032227
v -0.01549999979623806 -0.00150000004055693 -0.00259807617730408
v -0.01550000023419086 -0.00077645802223480 -0.00289777739114075
v -0.01449999769331464 -0.00149999882643352 -0.00259807617730408
v -0.01449999813126744 -0.00077645680811139 -0.00289777739114075
v -0.01549999971007454 -0.00000000018979653 -0.00300000007218628
v -0.01449999760715111 0.00000000102432688 -0.00300000007218628
v -0.01549999918595822 0.00077645764264174 -0.00289777739114075
v -0.01550000028006908 -0.00212132183437297 -0.00212132031983643
v -0.01400000210158726 -0.00152618810365488 -0.00142943055695801
v -0.01399999911363218 -0.00123569645277301 -0.00140904243058472
v -0.01399999677352729 -0.00092593182919576 -0.00129213769501953
v -0.01399999537083561 -0.00079447979095557 -0.00126490552491455
v -0.01399999659877116 -0.00074999829399162 -0.00129903800553589
v -0.01449999765023288 -0.00074999890105332 -0.00129903800553589
v -0.01449999786920928 -0.00038822789189226 -0.00144888885087281
v -0.01399999516237355 -0.00061409074772558 -0.00135533244675904
v -0.01450000167261028 -0.00106066087940379 -0.00106066043442994
v -0.01449999918434368 -0.00129903799194233 -0.00075000007218628
v -0.01450000193466844 -0.00144888979562292 -0.00038822848862915
v -0.01399999585602775 -0.00148678546913282 -0.00077893359727173
v -0.01399999585602775 -0.00148678546913282 -0.00077893359727173
v -0.01399999648633174 -0.00145051423581273 -0.00071531493729859
v -0.01399999813288197 -0.00129903738488063 -0.00075000007218628
v -0.01400000062114857 -0.00106066027234209 -0.00106066043442994
v -0.01400000088320673 -0.00144888918856122 -0.00038822848862915
v -0.01399999769384679 -0.00149572393632749 -0.00003247840470581
v -0.01449999760715111 0.00000000102432688 -0.00150000007218628
v -0.01399999641393696 0.00131997819250677 -0.00492622168130188
v -0.01399999585144848 0.00136065714988878 -0.00491315169400483
v -0.01399999991650402 0.00021413403940431 -0.00304131777352600
v -0.01399999761567627 0.00044272197319906 -0.00268152697152405
v -0.01449999708303479 0.00077645885676515 -0.00289777739114075
v -0.01449999752098759 0.00150000087508728 -0.00259807617730408
v -0.01399999929141645 -0.00047905857159942 -0.00141126544541626
v -0.01399999681774756 -0.00038822728483055 -0.00144888885087281
v -0.01399999876023928 -0.00033933476017995 -0.00145532567567139
v -0.01399999999034322 -0.00019411473406962 -0.00147444446152954
v -0.01399999461319768 -0.00004889089326202 -0.00149356324738770
v -0.01399999655568940 0.00000000163138858 -0.00150000007218628
v -0.01399999716390950 0.00009747582938795 -0.00148716743058472
v -0.01399999596655401 0.00010464538636678 -0.00148622376984864
v -0.01399999490677169 0.00057069274510590 -0.00218386395043640
v -0.01399999827729156 0.00057803806055661 -0.00214760501450806
v -0.01449999734509295 0.00038822994054601 -0.00144888885087281
v -0.01400000290088072 0.00038822673291045 -0.00144888885087281
v -0.01399999703218810 0.00059497315983353 -0.00158080060548096
v -0.01399999655574190 0.00066011210511233 -0.00133856971329956
v -0.01399999929000829 0.00066348903338344 -0.00133487184113770
v -0.01449999756406935 0.00075000094970708 -0.00129903800553589
v -0.01399999579845510 0.00083145173583593 -0.00133708150452881
v -0.01399999651260764 0.00075000155676878 -0.00129903800553589
v -0.01399999697049946 0.00077582022095443 -0.00127922589844971
v -0.01399999943274902 0.00095978444663327 -0.00125081641740113
v -0.01399999692585385 0.00126526106159471 -0.00135090453690796
v -0.01450000014894143 0.00106065911336028 -0.00106066043442994
v -0.01450000263720803 0.00129903622589883 -0.00075000007218628
v -0.01449999988688327 0.00144888802957942 -0.00038822848862915
v -0.01399999909747971 0.00106065972042198 -0.00106066043442994
v -0.01400000158574631 0.00129903683296053 -0.00075000007218628
v -0.01399999883542155 0.00144888863664112 -0.00038822848862915
v -0.01400000089430936 0.00177813109434098 -0.00060359437531739
v -0.01399999631080279 0.00148126341426378 -0.00014233262604981
v -0.01399999809245371 0.00149356508415807 -0.00004889447755127
v -0.01399999786853781 0.00166736230374623 -0.00021951253480225
v -0.01399999956594370 -0.00401928026407303 0.00093716471129150
v -0.01399999965077326 -0.00482962862788611 0.00129409496718139
v -0.01399999965077326 -0.00482962862788611 0.00129409496718139
v -0.01399999879022559 -0.00470421813109371 0.00159686653547973
v -0.01399999778189632 -0.00450530630335248 0.00207707874708862
v -0.01549999988240159 -0.00299999989131732 -0.00000000007218628
v -0.01550000175785972 -0.00289777801499887 0.00077645723753662
v -0.01449999777947816 -0.00299999867719392 -0.00000000007218628
v -0.01449999965493629 -0.00289777680087546 0.00077645723753662
v -0.01550000286445968 -0.00259807822233495 0.00149999992781372
v -0.01450000076153625 -0.00259807700821155 0.00149999992781372
v -0.01400000166453944 -0.00306668568681577 0.00021136133604736
v -0.01400000176616226 -0.00282841951958894 0.00037236826353759
v -0.01399999660509531 -0.00189233226741288 0.00084143202238769
v -0.01399999634180091 -0.00180312984259278 0.00081698839598388
v -0.01399999763432473 -0.00179136307750867 0.00082587187224121
v -0.01400000077946439 -0.00228223287410761 0.00181302921705932
v -0.01449999817714565 -0.00212132062024956 0.00212132065230102
v -0.01400000187709034 -0.00172835218878401 0.00151572315626831
v -0.01400000181299797 -0.00433012842284213 0.00249999992781372
v -0.01400000181299797 -0.00433012842284213 0.00250000088148803
v -0.01400000043990352 -0.00403162311068178 0.00288901989393921
v -0.01550000028006908 -0.00212132183437297 0.00212132065230102
v -0.01449999769331464 -0.00149999882643352 -0.00000000007218628
v -0.01450000193466844 -0.00144888979562292 0.00038822834425659
v -0.01449999918434368 -0.00129903799194233 0.00074999992781372
v -0.01450000167261028 -0.00106066087940379 0.00106066029005737
v -0.01399999664185293 -0.00149999821937182 -0.00000000007218628
v -0.01400000015458319 -0.00148943305311328 0.00008026163511963
v -0.01400000088320673 -0.00144888918856122 0.00038822834425659
v -0.01399999813288197 -0.00129903738488063 0.00074999992781372
v -0.01400000062114857 -0.00106066027234209 0.00106066029005737
v -0.01399999792633671 -0.00085511379243221 0.00121838037901611
v -0.01399999807139424 -0.00136387208610707 0.00145619385176391
v -0.01399999896875021 -0.00101406279258312 0.00132155363493652
v -0.01399999651588011 -0.00078912197271939 0.00126901571684570
v -0.01399999659877116 -0.00074999829399162 0.00129903786116333
v -0.01449999765023288 -0.00074999890105332 0.00129903786116333
v -0.01449999786920928 -0.00038822789189226 0.00144888870650024
v -0.01399999507877659 -0.00065916535541038 0.00133666174345703
v -0.01449999760715111 0.00000000102432688 0.00149999992781372
v -0.01549999979623806 -0.00150000004055693 0.00259807579451294
v -0.01550000023419086 -0.00077645802223480 0.00289777748518676
v -0.01449999769331464 -0.00149999882643352 0.00259807579451294
v -0.01449999813126744 -0.00077645680811139 0.00289777748518676
v -0.01549999971007454 -0.00000000018979653 0.00299999992781372
v -0.01449999760715111 0.00000000102432688 0.00299999992781372
v -0.01549999918595822 0.00077645764264174 0.00289777748518676
v -0.01399999655568940 0.00000000163138858 -0.00000000007218628
v -0.01399999825414518 -0.00052413483109660 0.00139259426527710
v -0.01399999681774756 -0.00038822728483055 0.00144888870650024
v -0.01399999681774756 -0.00038822728483055 0.00144888870650024
v -0.01399999799412870 -0.00024238174141928 0.00146808950834961
v -0.01399999594746930 -0.00009747256661078 0.00148716728621215
v -0.01399999655568940 0.00000000163138858 0.00149999992781372
v -0.01399999849818112 0.00004889415603918 0.00149356310301513
v -0.01399999800872641 0.00008682665788813 0.00148856918745727
v -0.01449999752098759 0.00150000087508728 -0.00000000007218628
v -0.01449999988688327 0.00144888802957942 0.00038822834425659
v -0.01450000014894143 0.00106065911336028 0.00106066029005737
v -0.01450000263720803 0.00129903622589883 0.00074999992781372
v -0.01399999947061436 0.00086670589893671 0.00120948641234131
v -0.01399999980772445 0.00090503656095351 0.00118007414274902
v -0.01399999646952588 0.00150000148214898 -0.00000000007218628
v -0.01399999705977080 0.00148716986288161 0.00009747402601928
v -0.01399999608010479 0.00147419819534719 0.00019600431853027
v -0.01399999682919951 0.00168731899965323 0.00027857725554199
v -0.01399999883542155 0.00144888863664112 0.00038822834425659
v -0.01399999875616137 0.00160529108724908 0.00043013660841674
v -0.01400000158574631 0.00129903683296053 0.00074999992781372
v -0.01399999909747971 0.00106065972042198 0.00106066029005737
v -0.01449999734509295 0.00038822994054601 0.00144888870650024
v -0.01400000290088072 0.00038822673291045 0.00144888870650024
v -0.01399999633278349 0.00067706423358547 0.00132924930983276
v -0.01399999885916701 0.00065956677835540 0.00145569364958496
v -0.01399999754692860 0.00056405974474961 0.00166166250639648
v -0.01399999725017985 0.00049492165752351 0.00212259380751342
v -0.01449999756406935 0.00075000094970708 0.00129903786116333
v -0.01399999651260764 0.00075000155676878 0.00129903786116333
v -0.01399999755008164 0.00112662078536709 0.00128466360502929
v -0.01399999597409269 0.00037434449610385 0.00284341232710571
v -0.01400000018264737 0.00019017820154999 0.00326044933729858
v -0.01449999708303479 0.00077645885676515 0.00289777748518676
v -0.01449999752098759 0.00150000087508728 0.00259807579451294
v -0.01750000304239419 0.00129409376935378 -0.00482962913579254
v -0.01849999958588090 0.00250000028440198 -0.00433012707299500
v -0.01749999748295748 0.00250000149852538 -0.00433012707299500
v -0.01549999962391102 0.00149999966096387 -0.00259807617730408
v -0.01849999701006250 0.00321393930439894 -0.00383022220200806
v -0.01850000247264760 0.00383022073853012 -0.00321393807000428
v -0.01750000264803906 0.00353553290564660 -0.00353553397721558
v -0.01850000076153625 0.00433012622206396 -0.00250000007218628
v -0.01749999865861283 0.00433012743618737 -0.00250000007218628
v -0.01750000082083753 0.00482962764123135 -0.00129409511155396
v -0.01850000276637365 0.00469846160372389 -0.00171010072297364
v -0.01849999842090285 0.00492404001464767 -0.00086824090546875
v -0.01549999914008000 0.00212132145477991 -0.00212132031983643
v -0.01549999655568940 0.00259807784274190 -0.00150000007218628
v -0.01449999703715658 0.00212132266890332 -0.00212132031983643
v -0.01450000106001546 0.00259807524216804 -0.00150000007218628
v -0.01399999437557282 0.00182342314828465 -0.00042516191071778
v -0.01549999766228936 0.00289777763540581 -0.00077645738190918
v -0.01399999620182231 0.00241784769816031 -0.00212039454049378
v -0.01400000101872379 0.00253836995729402 -0.00187603099412232
v -0.01399999897478664 0.00254131136338009 -0.00182107789582520
v -0.01400000228452650 0.00306699763800987 -0.00177073199815064
v -0.01399999808754319 0.00322502564694186 -0.00160153062409668
v -0.01400000000656456 0.00336466214949531 -0.00202212698525696
v -0.01400000092897825 0.00334850468954551 -0.00151718766755371
v -0.01450000216661542 0.00289777503483195 -0.00077645738190918
v -0.01750000304239419 0.00129409376935378 0.00482962887221069
v -0.01849999958588090 0.00250000028440198 0.00433012669020385
v -0.01749999748295748 0.00250000149852538 0.00433012669020385
v -0.01549999962391102 0.00149999966096387 0.00259807579451294
v -0.01750000082083753 0.00482962764123135 0.00129409496718139
v -0.01849999976016647 0.00500000058627343 -0.00000000007218628
v -0.01849999842090285 0.00492404001464767 0.00086824076109619
v -0.01749999765724304 0.00500000180039683 -0.00000000007218628
v -0.01850000276637365 0.00469846160372389 0.00171010057860107
v -0.01850000247264760 0.00383022073853012 0.00321393768721313
v -0.01849999701006250 0.00321393930439894 0.00383022205763549
v -0.01850000076153625 0.00433012622206396 0.00249999992781372
v -0.01750000264803906 0.00353553290564660 0.00353553383284301
v -0.01749999865861283 0.00433012743618737 0.00249999992781372
v -0.01549999655568940 0.00259807784274190 0.00149999992781372
v -0.01549999914008000 0.00212132145477991 0.00212132065230102
v -0.01449999703715658 0.00212132266890332 0.00212132065230102
v -0.01450000106001546 0.00259807524216804 0.00149999992781372
v -0.01549999953774749 0.00299999951172427 -0.00000000007218628
v -0.01549999766228936 0.00289777763540581 0.00077645723753662
v -0.01449999743482407 0.00300000072584767 -0.00000000007218628
v -0.01450000216661542 0.00289777503483195 0.00077645723753662
v -0.01399999692989200 0.00270109786058117 0.00101662104063720
v -0.01399999784244658 0.00206584553492207 0.00195271389418335
v -0.01399999539126521 0.00218133506376546 0.00201008598738403
v -0.01399999953876294 0.00263686287732508 0.00202333538466186
v -0.01400000122612882 0.00292627925207695 0.00181967728071899
v -0.01399999786357479 0.00273871239280628 0.00198657457762451
v -0.01399999813909943 0.00370088633194300 0.00164245169096679
v -0.01399999829280517 0.00355363928371604 0.00213850872450561
v -0.01400000024621486 0.00423055306751150 0.00228841869765014
v -0.01399999670701507 0.00457405279681264 0.00225567238264770
v -0.01400000051503160 0.00455896845010793 0.00228281204634399
v -0.01399999882625210 0.00368042548599353 0.00352685253554077
v -0.01399999699723150 0.00372230769401348 0.00348632042341919
f 6 12 2
f 7 1 3
f 3 19 10
f 2 12 1
f 1 11 3
f 12 11 1
f 3 21 19
f 11 21 3
f 16 13 4
f 16 4 38
f 4 13 41
f 8 1 7
f 7 3 9
f 9 3 10
f 9 10 54
f 10 19 54
f 8 7 48
f 7 9 48
f 9 54 48
f 8 2 1
f 8 48 2
f 2 48 67
f 54 19 132
f 15 12 6
f 15 222 12
f 12 205 11
f 11 207 21
f 12 222 205
f 11 205 207
f 207 284 21
f 14 15 5
f 13 14 5
f 5 15 6
f 16 14 13
f 16 18 14
f 17 18 16
f 5 6 88
f 13 5 88
f 14 215 15
f 15 215 222
f 17 64 18
f 18 216 14
f 6 2 67
f 6 67 88
f 19 21 20
f 21 30 20
f 20 30 22
f 30 31 22
f 22 31 23
f 23 31 28
f 114 24 25
f 19 20 132
f 133 20 22
f 133 22 23
f 114 23 24
f 133 23 114
f 24 28 25
f 114 25 26
f 24 23 28
f 25 29 26
f 25 28 29
f 121 26 27
f 121 27 33
f 26 29 27
f 29 33 27
f 21 284 30
f 30 285 31
f 30 284 285
f 285 288 31
f 31 32 28
f 288 32 31
f 132 20 133
f 157 121 33
f 288 301 32
f 28 32 29
f 32 34 29
f 29 34 33
f 157 33 35
f 160 35 36
f 33 34 35
f 34 37 35
f 35 37 36
f 301 34 32
f 301 320 34
f 34 320 37
f 37 182 36
f 39 16 38
f 38 4 41
f 39 38 59
f 40 39 59
f 38 41 59
f 41 42 43
f 41 43 44
f 59 41 60
f 41 44 45
f 41 46 47
f 41 47 62
f 41 45 46
f 41 62 61
f 60 41 61
f 48 54 49
f 49 54 50
f 50 54 51
f 51 54 52
f 52 54 53
f 57 54 55
f 54 56 58
f 53 54 58
f 57 56 54
f 55 54 132
f 57 55 69
f 48 49 67
f 49 50 68
f 50 51 72
f 51 52 73
f 52 53 74
f 57 70 56
f 53 58 76
f 58 56 71
f 39 17 16
f 40 17 39
f 40 59 63
f 40 63 17
f 17 63 64
f 63 65 64
f 65 363 64
f 63 89 65
f 65 89 66
f 65 66 363
f 66 99 364
f 13 88 41
f 63 59 89
f 49 68 67
f 50 72 68
f 51 73 72
f 52 74 73
f 53 76 75
f 53 75 74
f 57 69 70
f 55 132 69
f 58 71 76
f 56 70 71
f 41 88 42
f 42 92 43
f 43 93 44
f 44 94 45
f 46 45 95
f 61 62 90
f 47 46 96
f 62 47 98
f 59 60 89
f 60 61 91
f 42 88 92
f 43 92 93
f 92 67 68
f 60 91 89
f 44 93 94
f 45 94 95
f 46 95 97
f 46 97 96
f 47 96 98
f 61 90 91
f 62 98 90
f 77 78 79
f 77 79 80
f 77 80 81
f 77 81 82
f 77 82 83
f 77 83 84
f 77 84 85
f 77 85 86
f 77 86 87
f 99 78 77
f 78 100 79
f 79 101 80
f 80 102 81
f 81 103 82
f 82 105 83
f 83 106 84
f 84 107 85
f 85 108 86
f 99 100 78
f 79 100 101
f 80 101 102
f 81 102 103
f 82 103 104
f 82 104 105
f 87 86 109
f 66 89 99
f 88 67 92
f 92 68 93
f 93 68 72
f 94 72 73
f 95 73 74
f 97 74 75
f 93 72 94
f 94 73 95
f 95 74 97
f 96 97 103
f 97 75 104
f 91 90 100
f 89 91 99
f 91 100 99
f 90 98 101
f 98 96 102
f 90 101 100
f 98 102 101
f 96 103 102
f 97 104 103
f 104 75 169
f 104 169 105
f 105 168 106
f 106 170 107
f 109 108 176
f 107 175 108
f 105 169 168
f 106 168 170
f 107 170 171
f 107 171 175
f 108 175 176
f 364 99 77
f 87 109 370
f 83 105 106
f 84 106 107
f 85 107 108
f 86 108 109
f 110 77 111
f 111 87 112
f 110 111 367
f 110 367 364
f 110 364 77
f 111 112 367
f 112 113 368
f 111 77 87
f 112 87 113
f 113 87 370
f 115 114 121
f 116 115 121
f 116 121 117
f 117 121 118
f 118 121 119
f 133 114 115
f 134 115 116
f 135 116 117
f 150 117 118
f 119 121 120
f 120 121 122
f 122 121 123
f 123 121 124
f 114 26 121
f 126 130 149
f 125 126 149
f 130 129 149
f 134 133 115
f 134 116 135
f 150 135 117
f 151 118 119
f 153 119 120
f 157 124 121
f 154 120 122
f 155 122 123
f 156 123 124
f 150 118 151
f 151 119 152
f 152 119 153
f 69 132 134
f 70 69 135
f 69 134 135
f 132 133 134
f 76 71 150
f 71 70 135
f 71 135 150
f 153 120 154
f 154 122 155
f 155 123 156
f 156 124 157
f 159 160 130
f 161 158 125
f 158 159 126
f 162 161 127
f 163 162 128
f 164 163 128
f 164 145 165
f 165 146 166
f 166 147 167
f 167 148 179
f 157 35 160
f 160 181 129
f 159 130 126
f 158 126 125
f 160 129 130
f 161 125 127
f 162 127 128
f 164 128 145
f 165 145 146
f 166 146 147
f 167 147 148
f 179 148 149
f 137 138 186
f 186 136 139
f 186 138 136
f 186 139 140
f 186 140 141
f 186 141 142
f 186 142 143
f 186 143 144
f 168 139 136
f 170 136 138
f 171 138 137
f 172 140 139
f 173 141 140
f 174 142 141
f 177 143 142
f 178 144 143
f 175 137 185
f 176 185 186
f 145 128 149
f 125 149 127
f 128 127 149
f 145 149 146
f 146 149 147
f 147 149 148
f 129 191 149
f 75 76 151
f 76 150 151
f 75 151 152
f 75 152 169
f 152 153 163
f 153 154 162
f 154 155 161
f 155 156 158
f 154 161 162
f 155 158 161
f 153 162 163
f 156 157 159
f 157 160 159
f 156 159 158
f 169 152 163
f 169 163 172
f 172 163 164
f 173 164 165
f 172 164 173
f 174 165 166
f 177 166 167
f 173 165 174
f 178 167 179
f 174 166 177
f 177 167 178
f 171 170 138
f 170 168 136
f 171 137 175
f 169 172 139
f 172 173 140
f 168 169 139
f 173 174 141
f 174 177 142
f 177 178 143
f 175 185 176
f 178 400 144
f 179 149 390
f 178 179 398
f 131 181 183
f 129 131 180
f 129 180 191
f 149 192 390
f 129 181 131
f 131 183 180
f 191 180 184
f 160 36 181
f 36 182 181
f 181 182 183
f 183 182 389
f 179 390 399
f 183 184 180
f 183 389 184
f 192 184 390
f 137 186 185
f 186 144 188
f 176 186 394
f 144 400 190
f 186 188 187
f 144 189 188
f 186 187 394
f 144 190 189
f 149 191 192
f 192 191 184
f 196 195 194
f 199 198 200
f 197 210 193
f 199 200 235
f 196 194 201
f 202 203 204
f 196 201 209
f 202 204 209
f 205 206 207
f 222 211 205
f 211 206 205
f 207 208 284
f 196 209 239
f 208 286 284
f 206 208 207
f 206 233 208
f 208 302 286
f 197 238 210
f 211 232 206
f 197 237 238
f 197 234 237
f 238 212 210
f 238 223 212
f 196 239 213
f 239 209 204
f 239 214 213
f 208 233 302
f 239 204 240
f 239 236 214
f 14 216 215
f 18 64 219
f 18 219 216
f 64 221 219
f 218 217 215
f 216 218 215
f 216 220 218
f 216 219 220
f 219 246 220
f 219 221 246
f 217 211 222
f 215 217 222
f 217 231 211
f 211 231 232
f 217 228 231
f 218 228 217
f 238 224 223
f 238 225 224
f 218 229 228
f 218 241 229
f 220 241 218
f 228 227 226
f 228 230 227
f 229 248 228
f 229 249 248
f 228 248 230
f 229 250 249
f 229 251 250
f 241 252 229
f 206 232 233
f 232 237 233
f 233 239 302
f 237 234 236
f 231 238 232
f 231 226 238
f 238 237 232
f 238 226 225
f 237 239 233
f 237 236 239
f 239 240 302
f 240 306 302
f 228 226 231
f 220 258 241
f 256 243 242
f 221 247 246
f 256 257 243
f 229 252 251
f 241 253 252
f 220 246 258
f 246 263 258
f 259 245 244
f 259 244 255
f 259 256 245
f 259 257 256
f 241 258 259
f 241 254 253
f 241 255 254
f 241 259 255
f 258 263 262
f 259 260 257
f 259 258 262
f 259 261 260
f 259 262 261
f 263 265 262
f 263 266 265
f 246 247 263
f 247 269 263
f 377 270 269
f 266 267 264
f 272 382 268
f 263 269 272
f 272 266 263
f 269 270 273
f 272 267 266
f 269 273 272
f 272 268 267
f 270 274 273
f 272 273 383
f 270 271 274
f 271 336 277
f 271 276 274
f 271 277 276
f 336 342 277
f 274 278 379
f 274 379 275
f 274 276 278
f 281 282 292
f 308 279 281
f 281 280 282
f 298 294 283
f 298 300 295
f 284 286 285
f 285 287 288
f 286 287 285
f 286 302 287
f 303 289 287
f 288 289 301
f 287 289 288
f 289 296 301
f 308 291 279
f 308 290 291
f 308 281 293
f 281 292 293
f 302 303 287
f 308 307 290
f 308 293 294
f 309 294 298
f 298 295 297
f 304 296 289
f 309 298 310
f 310 298 297
f 298 299 300
f 301 296 320
f 302 307 303
f 303 308 304
f 303 304 289
f 302 306 307
f 303 307 308
f 308 309 304
f 308 294 309
f 304 309 305
f 309 310 305
f 305 310 316
f 310 313 311
f 310 311 316
f 304 305 296
f 305 316 322
f 296 322 320
f 305 322 296
f 316 323 322
f 310 297 312
f 310 312 313
f 316 311 314
f 316 314 315
f 316 315 318
f 316 318 317
f 317 318 328
f 317 328 330
f 317 330 329
f 317 329 331
f 317 331 319
f 316 317 323
f 317 325 323
f 317 319 325
f 319 350 325
f 37 320 321
f 320 322 321
f 321 324 182
f 37 321 182
f 322 323 321
f 321 323 324
f 324 323 325
f 324 325 326
f 325 361 326
f 392 326 361
f 319 331 332
f 319 332 333
f 338 356 340
f 338 340 341
f 339 338 349
f 336 337 346
f 336 344 343
f 336 346 344
f 336 343 342
f 337 348 346
f 346 345 344
f 346 347 345
f 339 349 348
f 338 341 349
f 349 341 358
f 337 339 348
f 319 333 334
f 319 334 350
f 350 334 335
f 351 350 335
f 351 356 350
f 351 355 354
f 351 352 356
f 351 354 353
f 351 353 352
f 356 352 357
f 356 357 340
f 356 361 350
f 350 361 325
f 351 335 360
f 351 360 355
f 339 405 338
f 338 362 356
f 356 362 361
f 349 358 413
f 348 349 416
f 412 413 358
f 360 359 355
f 392 361 362
f 64 363 221
f 363 66 365
f 66 364 365
f 364 367 365
f 363 365 366
f 363 366 221
f 221 366 247
f 365 375 366
f 365 369 375
f 369 371 376
f 109 176 374
f 369 376 375
f 365 367 369
f 112 368 367
f 367 368 369
f 113 370 368
f 369 368 371
f 368 370 371
f 109 373 370
f 109 374 373
f 374 176 394
f 370 373 371
f 371 373 372
f 371 372 380
f 372 396 407
f 373 374 372
f 374 394 396
f 372 374 396
f 366 375 377
f 366 377 247
f 247 377 269
f 375 376 378
f 377 378 270
f 375 378 377
f 376 388 378
f 378 271 270
f 273 274 385
f 378 388 271
f 388 336 271
f 376 380 388
f 388 409 336
f 380 409 388
f 371 380 376
f 372 407 380
f 380 407 409
f 382 381 268
f 272 383 382
f 273 386 383
f 273 384 386
f 273 385 384
f 274 275 385
f 385 275 387
f 403 402 404
f 324 389 182
f 326 391 389
f 179 399 398
f 391 184 389
f 399 390 391
f 390 184 391
f 324 326 389
f 392 391 326
f 392 401 391
f 404 401 392
f 404 402 401
f 178 398 400
f 189 395 188
f 187 188 395
f 394 187 395
f 190 400 397
f 189 190 397
f 189 397 395
f 396 393 408
f 393 397 402
f 397 400 402
f 403 393 402
f 394 395 396
f 396 395 393
f 395 397 393
f 398 399 401
f 401 399 391
f 402 398 401
f 400 398 402
f 336 410 337
f 337 406 339
f 337 410 406
f 336 409 410
f 407 410 409
f 408 406 410
f 404 392 362
f 338 405 362
f 404 362 405
f 408 403 406
f 403 404 405
f 339 406 405
f 349 413 414
f 403 405 406
f 407 396 408
f 408 393 403
f 407 408 410
f 346 348 418
f 346 419 347
f 419 411 347
f 349 414 416
f 348 416 415
f 348 415 418
f 346 418 419
f 412 422 413
f 417 411 419
f 417 419 421
f 417 421 420
f 413 422 423
f 199 235 198
f 197 193 234
f 198 235 200
f 194 195 201
f 196 213 195
f 201 195 209
f 202 209 203
f 204 203 240
f 327 193 210
f 327 195 213
f 327 209 195
f 327 203 209
f 327 234 193
f 327 240 203
f 327 210 212
f 327 213 214
f 227 230 226
f 327 212 223
f 327 223 224
f 327 214 236
f 327 236 234
f 327 306 240
f 327 224 225
f 242 243 257
f 327 225 226
f 327 226 230
f 327 230 248
f 327 248 249
f 327 249 250
f 327 250 251
f 327 251 252
f 327 252 253
f 327 253 254
f 327 254 255
f 255 244 245
f 242 327 256
f 242 257 327
f 327 245 256
f 327 255 245
f 266 262 265
f 327 381 382
f 327 257 260
f 327 260 261
f 327 261 262
f 327 262 266
f 327 266 264
f 327 264 267
f 327 267 268
f 327 268 381
f 327 382 383
f 327 387 275
f 327 275 379
f 327 276 277
f 327 277 342
f 327 278 276
f 327 379 278
f 281 279 280
f 280 279 282
f 283 299 298
f 283 294 299
f 290 307 291
f 327 282 279
f 292 282 293
f 327 279 291
f 327 293 282
f 327 299 294
f 327 300 299
f 327 295 300
f 327 291 307
f 327 294 293
f 327 307 306
f 327 297 295
f 327 313 312
f 327 312 297
f 327 311 313
f 315 314 318
f 327 314 311
f 327 318 314
f 327 328 318
f 327 330 328
f 327 329 330
f 327 331 329
f 327 332 331
f 327 333 332
f 327 334 333
f 327 335 334
f 327 352 353
f 327 357 352
f 327 353 354
f 327 340 357
f 327 341 340
f 327 358 341
f 327 342 343
f 327 343 344
f 327 344 345
f 327 345 347
f 327 347 411
f 327 412 358
f 327 359 335
f 327 354 355
f 327 355 359
f 327 414 413
f 360 335 359
f 327 383 384
f 386 384 383
f 327 384 385
f 327 385 387
f 327 415 414
f 327 423 412
f 327 413 423
f 327 411 417
f 327 418 415
f 327 419 418
f 327 417 420
f 327 420 419
f 416 414 415
f 420 421 419
f 423 422 412

