# https://github.com/mikedh/trimesh

o wheel.stl
v -0.00690829359833151 0.00099999997683716 -0.00112035333923996
v -0.00718293493334204 0.00096488092013550 -0.00106371557526290
v -0.00699894177261740 0.00099999997683716 0.00000252568908036
v -0.00730667238775641 0.00095028064318848 -0.00022891485504806
v -0.00722714608255774 0.00096558210917664 0.00068230092711747
v -0.00752809467259795 0.00084798238345337 0.00011708486266434
v -0.00740040033403784 0.00087185714312744 0.00114922559447587
v -0.00771623524371535 0.00067701599665833 0.00053972757048905
v -0.00747000753227621 0.00076320169039917 0.00162946927733719
v -0.00763419237080961 0.00058868072100830 0.00163761651702225
v -0.00721148037258536 0.00074397037097168 0.00260651719756424
v -0.00733121269289404 0.00054961202212525 0.00276506269164383
v -0.00677844666782767 0.00072639415332031 0.00362641370482743
v -0.00684568642918021 0.00052161738940430 0.00384888971038163
v -0.00617378901783377 0.00071152851649475 0.00460710942931473
v -0.00618457865063101 0.00049790523120117 0.00486372125335038
v -0.00541018664184958 0.00069911024638367 0.00550160443969071
v -0.00535532891098410 0.00047651240893555 0.00578096807189286
v -0.00451443421188742 0.00069029948779297 0.00626855695433915
v -0.00436031686607748 0.00046384356089783 0.00657261693663895
v -0.00348689734283835 0.00069340131350708 0.00689027440734208
v -0.00317628514114767 0.00048125312396240 0.00720981538482010
v -0.00236959873978049 0.00072181174822998 0.00732019078917801
v -0.00197975479904562 0.00057930538722229 0.00756244218535721
v -0.00117352902237326 0.00073623249598694 0.00758886277861893
v -0.00093017041031271 0.00054077837535095 0.00778819692321122
v -0.00006818854156882 0.00071698186465454 0.00769930589385331
v 0.00023666537459940 0.00048861572810364 0.00787149846740067
v 0.00099146903213114 0.00072095272608948 0.00763149011321366
v 0.00137272895034403 0.00056944320269776 0.00770334947295487
v 0.00209753668960184 0.00072708985873413 0.00739763963408768
v 0.00233259165938944 0.00053285501071167 0.00749431550689042
v 0.00310902560409158 0.00071618721553040 0.00704513395018876
v 0.00335480178054422 0.00051094982691956 0.00711068189330399
v 0.00407689822372049 0.00071394012042236 0.00653557336516678
v 0.00435366595443338 0.00050967762538147 0.00654776513762772
v 0.00499077380355448 0.00071700260707092 0.00586321103759110
v 0.00528575576003641 0.00052410790988159 0.00580945337004960
v 0.00581877387221903 0.00072136018344116 0.00503538453765214
v 0.00611440146621317 0.00053360793658447 0.00492010152526200
v 0.00652257121261209 0.00072080943652344 0.00408347833342850
v 0.00679266322311014 0.00052410028048706 0.00394239938445389
v 0.00707450354751200 0.00071326158114624 0.00304722535796464
v 0.00731334651168436 0.00050241730281067 0.00289782655425370
v 0.00746455825027078 0.00070168302127075 0.00194640290923417
v 0.00768182051833719 0.00047872493334961 0.00175415837951005
v 0.00768217528518289 0.00069065902301026 0.00080748784728348
v 0.00787850058730692 0.00045115921565247 0.00048891389556229
v 0.00769518054183573 0.00071211550303650 -0.00034712040238082
v 0.00779886973556131 0.00055549023219299 -0.00072334205918014
v 0.00752719271834940 0.00073145673342896 -0.00153653204254806
v 0.00765587676223367 0.00053020236560059 -0.00172745621018112
v 0.00723752654250711 0.00072214553424072 -0.00260446560196579
v 0.00734308112319559 0.00051457831927490 -0.00279642355255783
v 0.00679800856765360 0.00071204087802124 -0.00362023508362472
v 0.00685732329543680 0.00050350830622864 -0.00384896385483444
v 0.00621880973037332 0.00070125339099121 -0.00456130754761398
v 0.00621741450484842 0.00049397490092468 -0.00482298672012985
v 0.00549435580428690 0.00069510195323181 -0.00542013680748642
v 0.00543019068893045 0.00049122188159180 -0.00569639599137008
v 0.00463101638015360 0.00069856975146485 -0.00616943311505020
v 0.00450763858016580 0.00049619433947754 -0.00644724082760513
v 0.00365788806136698 0.00070797083445740 -0.00678081834129989
v 0.00348066485580057 0.00050892994471741 -0.00704620766453445
v 0.00259030593093485 0.00071655581065369 -0.00724645769409835
v 0.00236823619063944 0.00052667400904846 -0.00748212694935501
v 0.00144851363357157 0.00072219536372376 -0.00755174159817398
v 0.00119053424056619 0.00053538391658020 -0.00775137875787914
v 0.00027031863387674 0.00072133586474610 -0.00768534579686821
v 0.00001119006332010 0.00052485821315003 -0.00784865741245449
v -0.00090328394714743 0.00071326229640198 -0.00764508706144989
v -0.00114985405746847 0.00050253388949585 -0.00777736277692020
v -0.00205360543075949 0.00070093772479248 -0.00743199908547103
v -0.00232432829681784 0.00047818944522095 -0.00752472507767379
v -0.00315533482376486 0.00068777964183045 -0.00704921275191009
v -0.00352791249100119 0.00044583866664124 -0.00705999356321991
v -0.00417051469627768 0.00070395705767822 -0.00648174893669784
v -0.00454652606789023 0.00053169272013855 -0.00639230835251510
v -0.00511557184997946 0.00072130582400513 -0.00574172794632614
v -0.00535903155151755 0.00051338455744934 -0.00574378573708236
v -0.00590574347320944 0.00071989104815674 -0.00492785656265914
v -0.00616445266548544 0.00052547380992127 -0.00485768925957382
v -0.00657934104744345 0.00072318599291992 -0.00397798836044967
v -0.00682822477165610 0.00053696153231812 -0.00385533153824508
v -0.00710746150556952 0.00072203300067139 -0.00293577921204269
v -0.00733485298696905 0.00053364417620850 -0.00277948009781539
v -0.00747909628693014 0.00071002743312073 -0.00184181320481002
v -0.00767960592452437 0.00051161978312683 -0.00166319048218429
v -0.00769001796189696 0.00069236562319946 -0.00068277036957443
v -0.00785959339980036 0.00047858045169068 -0.00052066433243454
v -0.00788227191660553 0.00042491433688355 0.00059059274382889
v -0.00774028667155653 0.00036014864512634 0.00173526895232499
v -0.00740338426176459 0.00031513617106629 0.00289416349120438
v -0.00687643646541983 0.00027893683978272 0.00401084077544510
v -0.00616343759838492 0.00024535892077637 0.00505335176177323
v -0.00526597225014120 0.00021107075282288 0.00599405515380204
v -0.00415669309441000 0.00019728038378906 0.00681421029753983
v -0.00297818314377218 0.00025514147349548 0.00739141404815018
v -0.00200664269272238 0.00038462016650391 0.00766700589843094
v -0.00200292002502829 0.00013815686770630 0.00773755872435868
v -0.00088914477173239 0.00029930374690247 0.00790671193785965
v -0.00094741141144186 0.00001917002268982 0.00794591653533280
v 0.00019964945968241 0.00019628593989563 0.00798060071654618
v 0.00019715274032205 -0.00009640564850616 0.00799546277709305
v 0.00137469161208719 0.00008739111491394 0.00787983071990311
v 0.00145081484969705 -0.00020171978405762 0.00784916341491044
v 0.00259578002151102 0.00001919457980347 0.00756985509581864
v 0.00271870101150125 -0.00026798727444458 0.00748787915892899
v 0.00385632479842752 -0.00000272395542908 0.00701229512877762
v 0.00384931529220194 -0.00025077750614929 0.00697967851348221
v 0.00477697623427957 -0.00017423083714294 0.00640144097991288
v 0.00449202120956033 -0.00038724842003631 0.00652854573912919
v 0.00541557086165994 -0.00039007606438446 0.00578368890471757
v 0.00447789347823709 -0.00059376218251037 0.00639551866240799
v 0.00529884303268045 -0.00065597059658813 0.00566558015532792
v 0.00420994914229959 -0.00081749775341797 0.00630173051543534
v 0.00519063056167215 -0.00084747590950775 0.00545979631133378
v 0.00428207362350076 -0.00095589651993561 0.00590769517607987
v 0.00519233763869852 -0.00096276881626892 0.00509254110045731
v 0.00442817557509989 -0.00100000002316284 0.00542476022429764
v 0.00524063361342996 -0.00100000002316284 0.00464438474364579
v -0.00694057678524405 0.00096713135310364 -0.00210418951325119
v -0.00663869678322226 0.00099999997683716 -0.00221415006928146
v -0.00653190588299185 0.00096777436801148 -0.00314537107758224
v -0.00619713389221579 0.00099999997683716 -0.00325053655914962
v -0.00596190463844687 0.00096794745989990 -0.00412328159622848
v -0.00559504114929587 0.00099999997683716 -0.00420267021469772
v -0.00524242293182760 0.00096752784320068 -0.00500831281952560
v -0.00484801208321005 0.00099999997683716 -0.00504589140228927
v -0.00439349901024252 0.00096650312014771 -0.00577215277962387
v -0.00397539507690817 0.00099999997683716 -0.00575836121849716
v -0.00344216000381857 0.00096566650935364 -0.00638877498917282
v -0.00299978958908468 0.00099999997683716 -0.00632162725739181
v -0.00241090905014426 0.00096595308848572 -0.00684374236874282
v -0.00194646393600851 0.00099999997683716 -0.00672110104374588
v -0.00131563031021506 0.00096666309901428 -0.00713306277804077
v -0.00084269844833761 0.00099999997683716 -0.00694643640331924
v -0.00018191754166037 0.00096725723811340 -0.00724896412901580
v 0.00028291953261942 0.00099999997683716 -0.00699179720692337
v 0.00095846999343485 0.00096742961474610 -0.00718714761547744
v 0.00140123809035867 0.00099999997683716 -0.00685600888542831
v 0.00207113135512918 0.00096723339625549 -0.00694971835426986
v 0.00248329222854227 0.00099999997683716 -0.00654258799366653
v 0.00311794245894998 0.00096667835780335 -0.00654991531185806
v 0.00350105822738260 0.00099999997683716 -0.00605965208820999
v 0.00405299056228250 0.00096506140299988 -0.00602398478798568
v 0.00442817557509989 0.00099999997683716 -0.00541970908455551
v 0.00481596053298563 0.00095146105357361 -0.00549476492218673
v 0.00537807143386453 0.00096528098651123 -0.00487732612900436
v 0.00550984061416239 0.00085417840548706 -0.00511640155129135
v 0.00613966620620340 0.00086591765948486 -0.00430680072121322
v 0.00524063361342996 0.00099999997683716 -0.00463933288864791
v 0.00602121222671121 0.00096730444499207 -0.00404379689507186
v 0.00668654692824930 0.00087170693942261 -0.00337456714920700
v 0.00591738856490701 0.00099999997683716 -0.00373873483948410
v 0.00656194556411356 0.00096827647753906 -0.00308220112137496
v 0.00710614360030741 0.00087563011714172 -0.00234540569595993
v 0.00644091475661844 0.00099999997683716 -0.00274124061875045
v 0.00696164477523416 0.00096828577586365 -0.00202490913681686
v 0.00738724291976541 0.00087314436503601 -0.00122481119446456
v 0.00679765093978494 0.00099999997683716 -0.00167268383316696
v 0.00719725573714823 0.00096726105281067 -0.00090968096069992
v 0.00750042403396219 0.00086617205210877 -0.00007296907715499
v 0.00697835982497782 0.00099999997683716 -0.00056074011139572
v 0.00725568545516580 0.00096616337367249 0.00022148835845292
v 0.00743055117782205 0.00086310384341431 0.00106462705321610
v 0.00697835982497782 0.00099999997683716 0.00056579148955643
v 0.00713456309493631 0.00096618197032166 0.00134030282683671
v 0.00718165267165750 0.00086659405299378 0.00216453397460282
v 0.00679765093978494 0.00099999997683716 0.00167773568816483
v 0.00683804953750223 0.00096673200198364 0.00243194139190018
v 0.00675952876266092 0.00087014577456665 0.00323749864287674
v 0.00644091475661844 0.00099999997683716 0.00274629247374833
v 0.00637209857162088 0.00096727106639099 0.00347047269530594
v 0.00617735446151346 0.00087180635997009 0.00423941552825272
v 0.00591738856490701 0.00099999997683716 0.00374378621764481
v 0.00574971450027078 0.00096748516627503 0.00442495858855545
v 0.00545327151473612 0.00087158510752869 0.00513839185424149
v 0.00524063361342996 0.00099999997683716 0.00464438474364579
v 0.00499152434524149 0.00096755335398865 0.00526526487059891
v 0.00461769831832498 0.00087077543803406 0.00590268838591874
v 0.00442817557509989 0.00099999997683716 0.00542476022429764
v 0.00412915671523660 0.00096765992709351 0.00596524846740067
v 0.00370965731795877 0.00087007973262024 0.00651328695006669
v 0.00350105822738260 0.00099999997683716 0.00606470334716141
v 0.00321513331588358 0.00096708772250366 0.00650611436553299
v 0.00276796305831522 0.00086491940089417 0.00697553861327469
v 0.00248329222854227 0.00099999997683716 0.00654763925261796
v 0.00238596881087869 0.00095483133860779 0.00689894330687821
v 0.00175364554580301 0.00086541864939880 0.00729595983214676
v 0.00156497538741678 0.00096739099093628 0.00708520543761551
v 0.00140123809035867 0.00099999997683716 0.00686106050200760
v 0.00052130187209696 0.00096861121722412 0.00723241365142167
v 0.00028291953261942 0.00099999997683716 0.00699684846587479
v -0.00058585011307150 0.00096833703585816 0.00722837579436600
v -0.00084269844833761 0.00099999997683716 0.00695148790068924
v -0.00171163307968527 0.00096745822497559 0.00705044400878251
v -0.00194646393600851 0.00099999997683716 0.00672615277953446
v -0.00279679333511740 0.00096595881053162 0.00670033872313797
v -0.00299978958908468 0.00099999997683716 0.00632667863555253
v -0.00380532204452902 0.00096519229479981 0.00618649232573807
v -0.00397539507690817 0.00099999997683716 0.00576341283507645
v -0.00471488510910422 0.00096587488719177 0.00552095735259354
v -0.00484801208321005 0.00099999997683716 0.00505094278044999
v -0.00550860845390707 0.00096698329516602 0.00472229993529618
v -0.00559504114929587 0.00099999997683716 0.00420772111602128
v -0.00616670762840658 0.00096866796084595 0.00381006848998368
v -0.00619713389221579 0.00099999997683716 0.00325558793731034
v -0.00667522429767996 0.00097043082781983 0.00280695474334061
v -0.00663869678322226 0.00099999997683716 0.00221920144744217
v -0.00703400265518576 0.00096943328448486 0.00173546827025712
v -0.00690829359833151 0.00099999997683716 0.00112540471740067
v -0.00690829359833151 -0.00100000002316284 0.00112540471740067
v -0.00714847796503454 -0.00098210349015045 0.00074844491668046
v -0.00699894177261740 -0.00100000002316284 0.00000252568908036
v -0.00721387689653784 -0.00097546162537384 -0.00027235662750900
v -0.00690829359833151 -0.00100000002316284 -0.00112035333923996
v -0.00710252260509878 -0.00097123589447784 -0.00138654243759811
v -0.00663869678322226 -0.00100000002316284 -0.00221415006928146
v -0.00680386554542929 -0.00096740653446960 -0.00250791942887008
v -0.00619713389221579 -0.00100000002316284 -0.00325053655914962
v -0.00632252358738333 -0.00096238233975220 -0.00358772718720138
v -0.00559504114929587 -0.00100000002316284 -0.00420267021469772
v -0.00567223560158163 -0.00095440616539764 -0.00458898818306625
v -0.00484801208321005 -0.00100000002316284 -0.00504589140228927
v -0.00485403239075094 -0.00094724574021149 -0.00547633659653366
v -0.00397539507690817 -0.00100000002316284 -0.00575836121849716
v -0.00397017418686301 -0.00095633532933044 -0.00611356270126998
v -0.00323244797531515 -0.00097744955948639 -0.00644304621033371
v -0.00324051176849753 -0.00089464034966278 -0.00670171618275344
v -0.00234600674454123 -0.00093588104180145 -0.00696510195545852
v -0.00232028662506491 -0.00082278540066528 -0.00720103674940765
v -0.00133762776199728 -0.00090583207539368 -0.00729941260628402
v -0.00129273735824972 -0.00076592090061951 -0.00753010627441108
v -0.00024632536713034 -0.00088384606770325 -0.00746115338616073
v -0.00015776335541159 -0.00072698821953583 -0.00768248328380287
v 0.00091491854842752 -0.00086682214669037 -0.00744019710831344
v 0.00105299056228250 -0.00069727756909180 -0.00764224111847580
v 0.00211097682174295 -0.00084917511872101 -0.00722386354021728
v 0.00223180735763162 -0.00065809776715088 -0.00742254793457687
v 0.00329183161910623 -0.00082226445606995 -0.00681379067711532
v 0.00324490988906473 -0.00059745647839355 -0.00709304284863174
v 0.00406706965621561 -0.00068539264134216 -0.00656955313496292
v 0.00429746783431619 -0.00048344805172729 -0.00659765338711441
v 0.00501686251815409 -0.00065736069611359 -0.00591014301590622
v 0.00513455451186746 -0.00042958667210388 -0.00600622057728469
v 0.00579990924056619 -0.00048506178787994 -0.00532483422569931
v 0.00562601245101541 -0.00023256626061249 -0.00564742433838546
v 0.00645225012954324 -0.00028315403393555 -0.00465891063027084
v 0.00596190894301981 -0.00000216402939606 -0.00533303606323898
v 0.00670405924972147 -0.00000398769310760 -0.00436435568146408
v 0.00614062846358865 0.00025336906977844 -0.00507533347420394
v 0.00682767260726541 0.00026379582949829 -0.00410013782791793
v -0.00703158032242209 -0.00095918443135071 0.00189485013671219
v -0.00663869678322226 -0.00100000002316284 0.00221920144744217
v -0.00659266936127096 -0.00096752860478210 0.00302333867736161
v -0.00619713389221579 -0.00100000002316284 0.00325558793731034
v -0.00601439225021750 -0.00097306122711944 0.00401440274901688
v -0.00559504114929587 -0.00100000002316284 0.00420772111602128
v -0.00532163798157126 -0.00097877504757690 0.00485845220275223
v -0.00484801208321005 -0.00100000002316284 0.00505094278044999
v -0.00457983218971640 -0.00098621215752411 0.00551248204894364
v -0.00397539507690817 -0.00100000002316284 0.00576341283507645
v -0.00386571394745260 -0.00097220411232757 0.00611650788970292
v -0.00299978958908468 -0.00100000002316284 0.00632667863555253
v -0.00309433781448752 -0.00093572130135345 0.00667195642180741
v -0.00217279612366110 -0.00096525909832764 0.00693078363128006
v -0.00219921671692282 -0.00084727003506470 0.00720510804839432
v -0.00116923796478659 -0.00089209082058716 0.00736191213317215
v -0.00111394869629294 -0.00073638822964477 0.00759767663665116
v -0.00001827894989401 -0.00081269886425781 0.00758518541045487
v 0.00012066615279764 -0.00062030472687530 0.00778596818633378
v 0.00117720759566873 -0.00074059274128723 0.00758378923125565
v 0.00148140872176737 -0.00049428799084473 0.00773133027739823
v 0.00230026305373758 -0.00069902970722961 0.00736705625243485
v 0.00267507041152567 -0.00052084603241730 0.00738693368621171
v 0.00347089827712625 -0.00067094888619232 0.00692286431975663
v 0.00360386145766824 -0.00046097948483276 0.00701900994963944
v -0.00194646393600851 -0.00100000002316284 0.00672615277953446
v -0.00115663563553244 -0.00097664203575897 0.00712391126342118
v -0.00012182747665793 -0.00093160381249237 0.00736497533507645
v 0.00101673377212137 -0.00089626219204712 0.00737642991729081
v 0.00213869536574930 -0.00086811926296997 0.00718763959594071
v 0.00311247218307108 -0.00082323625019836 0.00690101659484208
v -0.00084269844833761 -0.00100000002316284 0.00695148790068924
v -0.00020764672104269 -0.00098655917576599 0.00716288888640702
v 0.00080189574416727 -0.00097725322178650 0.00717000043578446
v 0.00193199122603983 -0.00096846558979797 0.00698977315612137
v 0.00316999304946512 -0.00095041944912720 0.00659101140685380
v 0.00028291953261942 -0.00100000002316284 0.00699684846587479
v 0.00140123809035867 -0.00100000002316284 0.00686106050200760
v 0.00248329222854227 -0.00100000002316284 0.00654763925261796
v 0.00350105822738260 -0.00100000002316284 0.00606470334716141
v 0.00592609179671854 -0.00096794583729553 0.00418263185210526
v 0.00591738856490701 -0.00100000002316284 0.00374378621764481
v 0.00647923529800028 -0.00097320046356964 0.00321274697966874
v 0.00644091475661844 -0.00100000002316284 0.00274629247374833
v 0.00684964144881815 -0.00097964396408844 0.00222684514708817
v 0.00679765093978494 -0.00100000002316284 0.00167773568816483
v 0.00704012835677713 -0.00098770024708557 0.00129286325164139
v 0.00697835982497782 -0.00100000002316284 0.00056579148955643
v 0.00719517005141825 -0.00097788848809051 0.00046757257170975
v 0.00697835982497782 -0.00100000002316284 -0.00056074011139572
v 0.00727823889907449 -0.00095940091542053 -0.00026362335495651
v 0.00716699088271707 -0.00096563353470611 -0.00116180622391403
v 0.00748452246841043 -0.00086702325276184 -0.00046840774826705
v 0.00735088408645242 -0.00085996653965759 -0.00154195558838546
v 0.00767059195693582 -0.00070944597653198 -0.00073339092545211
v 0.00747760356124490 -0.00068800856999206 -0.00194368803314865
v 0.00778840697463602 -0.00049635698727417 -0.00112197172455490
v 0.00748948634322733 -0.00045401575497436 -0.00248569166474044
v 0.00783115351852030 -0.00023701836994934 -0.00149229872040451
v 0.00755236781295389 -0.00018452253273773 -0.00258654320053756
v 0.00771558154281229 0.00003850553103638 -0.00211271965317428
v 0.00727909529861063 0.00003023884364319 -0.00331754314713180
v 0.00737051928695291 0.00027823398181152 -0.00300759327225387
v 0.00679765093978494 -0.00100000002316284 -0.00167268383316696
v 0.00692623198684305 -0.00096461203030395 -0.00218903028778732
v 0.00703906787093729 -0.00085847392014313 -0.00262605583481491
v 0.00707995856460184 -0.00069121255806732 -0.00308430301956832
v 0.00694045794662088 -0.00049429573944855 -0.00370833980850875
v 0.00712910140212625 -0.00024424805573273 -0.00356220686249435
v 0.00644091475661844 -0.00100000002316284 -0.00274124061875045
v 0.00650565875228494 -0.00096499993733215 -0.00322709381394088
v 0.00653961146529764 -0.00086451878479767 -0.00367665016464889
v 0.00649802649673074 -0.00071573331288147 -0.00412716662697494
v 0.00636371195968240 -0.00054276456764984 -0.00457791483215988
v 0.00591738856490701 -0.00100000002316284 -0.00373873483948410
v 0.00590067160781473 -0.00096557226113129 -0.00422880136780441
v 0.00586644900497049 -0.00086667134693909 -0.00466977464966476
v 0.00579449999984354 -0.00070874299935150 -0.00507785308174789
v 0.00524063361342996 -0.00100000002316284 -0.00463933288864791
v 0.00511139357741922 -0.00096311142376709 -0.00516703212074935
v 0.00508485282119364 -0.00085229494503784 -0.00554287683777511
v 0.00442817557509989 -0.00100000002316284 -0.00541970908455551
v 0.00411406005080789 -0.00094955911568451 -0.00604493546299636
v 0.00434088195022196 -0.00081862595013428 -0.00620524012856185
v 0.00350105822738260 -0.00100000002316284 -0.00605965208820999
v 0.00296248973067850 -0.00095689597061920 -0.00665932857804000
v 0.00248329222854227 -0.00100000002316284 -0.00654258799366653
v 0.00180776084121317 -0.00096324756077576 -0.00703797071985900
v 0.00140123809035867 -0.00100000002316284 -0.00685600888542831
v 0.00065859854873270 -0.00096820249489593 -0.00721776306442916
v 0.00028291953261942 -0.00100000002316284 -0.00699179720692337
v -0.00045642840210348 -0.00097340454987335 -0.00721207696013153
v -0.00084269844833761 -0.00100000002316284 -0.00694643640331924
v -0.00150093399826437 -0.00097975673607635 -0.00703926247172058
v -0.00194646393600851 -0.00100000002316284 -0.00672110104374588
v -0.00241572653595358 -0.00098765494755554 -0.00673369872383773
v -0.00299978958908468 -0.00100000002316284 -0.00632162725739181
v -0.00032769715134054 0.00087502977915955 0.00747937047667801
v 0.00074150145705789 0.00087268731661987 0.00745410764403641
v -0.00146990620438010 0.00087484262057495 0.00734095990844071
v -0.00260185562912375 0.00086754248210144 0.00703354966826737
v -0.00365754019562155 0.00086084172793579 0.00655979860015213
v -0.00461842810455710 0.00086157176562500 0.00592071283049881
v -0.00545008885208517 0.00086579296656799 0.00515432489104569
v -0.00615856432262808 0.00087184403010559 0.00426350057311356
v -0.00671415232960135 0.00087941358157349 0.00328846585936844
v -0.00711325769964606 0.00088636682101441 0.00225699651427567
v 0.00130478156264871 0.00035533139773560 0.00782942903228104
v 0.00243751013930887 0.00029250476428223 0.00757654988951981
v 0.00355619395431131 0.00026408646174622 0.00712953508086503
v 0.00461193526443094 0.00027978584834290 0.00649116265960038
v 0.00501522982772440 0.00007095906802368 0.00623291528411210
v 0.00556082690414041 0.00032108876773071 0.00568095529265702
v 0.00583091414626688 0.00013078353472901 0.00546836793608963
v 0.00635292304214090 0.00032079122134400 0.00477861249633133
v 0.00643507350143045 0.00006549189158630 0.00475322091765702
v 0.00696540606673807 0.00028364846774292 0.00385510957427323
v 0.00701441729720682 0.00001133201190186 0.00385113084502518
v 0.00745708430465311 0.00024767134257507 0.00281502473540604
v 0.00750048888381571 -0.00003332390717316 0.00278634679503739
v 0.00780395186599344 0.00021129868098450 0.00166207540221512
v 0.00782609236892313 -0.00008577432564545 0.00164870107360184
v 0.00797596610244364 0.00014695427485657 0.00047923696227372
v 0.00797761882003397 -0.00012312807968902 0.00050530660338700
v 0.00796409285720438 0.00002121279307556 -0.00076329576782882
v 0.00795223200973123 -0.00030058541230011 -0.00020007288269699
v 0.00019770873244852 -0.00037565746239471 0.00792684495635331
v -0.00109738289657980 -0.00051964523724365 0.00777971971221268
v -0.00223585116211325 -0.00066069855622101 0.00742336309142411
v -0.00321974312607199 -0.00079099383286285 0.00689935910888016
v -0.00405907785240561 -0.00087510063580322 0.00628938996978104
v -0.00479059206787497 -0.00093069186142731 0.00559673345275223
v -0.00104751860443503 -0.00026390292576599 0.00789774739928544
v -0.00213367449585348 -0.00013056769303131 0.00770356595702469
v -0.00313980709854513 0.00002941534587097 0.00735970151610672
v -0.00745869415346533 0.00085333607264710 -0.00095818722061813
v -0.00722413724008948 0.00086765215464783 -0.00199850761704147
v -0.00683716081921011 0.00087223718234253 -0.00305118095688522
v -0.00629233228508383 0.00087293288775635 -0.00405468904785812
v -0.00560173332039267 0.00087298057147217 -0.00496488821320236
v -0.00476943480316550 0.00086938426562500 -0.00577713501267135
v -0.00382691418472677 0.00086348841258240 -0.00645209896378219
v -0.00280279623810202 0.00086195490428162 -0.00696118163876235
v -0.00172153364960104 0.00086624834605408 -0.00729657566361129
v -0.00057941233459860 0.00087013647624207 -0.00746776652149856
v 0.00058180106338114 0.00087193319865418 -0.00746455001644790
v 0.00172929442580789 0.00087136480876160 -0.00728601485304534
v 0.00282456935103983 0.00086890027590943 -0.00694028484635055
v 0.00383191645797342 0.00086439940997315 -0.00644856893830001
v 0.00472913897689432 0.00085368774005127 -0.00584618890099227
v -0.00795867154467851 0.00021501944132996 -0.00051613104157150
v -0.00796239913348109 0.00015724966593933 0.00062255990691483
v -0.00778828360978514 0.00010268971987915 0.00180296933837235
v -0.00742235743347555 0.00005643627711487 0.00298034417815506
v -0.00686394094768912 0.00001443979808045 0.00410985028930008
v -0.00611566280666739 -0.00002969362667847 0.00515797555632889
v -0.00518400298897177 -0.00009005775383758 0.00608940828032792
v -0.00411417877022177 -0.00006595160893249 0.00686036718077958
v -0.00326881729904562 -0.00021807756356048 0.00727737271972001
v -0.00234605299774557 -0.00041303303173828 0.00755702722258866
v -0.00797761882003397 -0.00006074645451355 -0.00055529749207199
v -0.00796790005732328 -0.00011340906552124 0.00062903917022049
v -0.00777192355040461 -0.00016228380135345 0.00183796441741288
v -0.00738627975527197 -0.00020857169560242 0.00301513803191483
v -0.00681908189598471 -0.00025454797676849 0.00412074601836503
v -0.00609590613190085 -0.00030849268368530 0.00510635125823319
v -0.00532291304413229 -0.00040173568657684 0.00586038530059159
v -0.00442290531937033 -0.00028789033821869 0.00661712682433426
v -0.00443402897659689 -0.00052417757443237 0.00648155057616532
v -0.00357379662338644 -0.00041508712700653 0.00705837857909501
v -0.00334442412201315 -0.00060222067765045 0.00704679238982499
v -0.00780086394492537 0.00026875851222229 -0.00159205400757492
v -0.00750467690173537 0.00031894347735596 -0.00261110126785934
v -0.00704488294664770 0.00033542344638062 -0.00366232740692794
v -0.00642501043621451 0.00031439898081970 -0.00467688309960067
v -0.00559972678963095 0.00028891203471375 -0.00564997064881027
v -0.00451825773064047 0.00026617453166199 -0.00655490374378860
v -0.00792270329687744 -0.00032518067292023 -0.00058686983399093
v -0.00790223676804453 -0.00037093069485474 0.00063623368926346
v -0.00768845700565726 -0.00041660108498382 0.00185321462340653
v -0.00729228138271719 -0.00046279289654541 0.00300311696715653
v -0.00673406278435141 -0.00051022901467132 0.00405448186583817
v -0.00604745065513998 -0.00056833579472351 0.00496354234404862
v -0.00523672949615866 -0.00064168598583984 0.00573762452788651
v -0.00425665222946554 -0.00072047879627991 0.00641044938750565
v -0.00782417307142168 -0.00000563206604767 -0.00166045391373336
v -0.00755129953566939 0.00006083080836487 -0.00263039362244308
v -0.00721763204876334 0.00013972685404968 -0.00342291557602584
v -0.00671909450832754 0.00009966776438904 -0.00432874476723373
v -0.00600480567757040 0.00006991860934448 -0.00527861487679184
v -0.00505039417091757 0.00002983949252319 -0.00620035290531814
v -0.00386061035934836 -0.00007788410118866 -0.00700025397352874
v -0.00343533312622458 0.00015976164408875 -0.00720759695582092
v -0.00253960930649191 -0.00008115508488464 -0.00757983812503517
v -0.00242280852142721 0.00021277115412903 -0.00759741028957069
v -0.00134311949554831 -0.00003246309689331 -0.00788320530019701
v -0.00128053318802267 0.00024801681109619 -0.00786249753646553
v -0.00017531334701926 0.00001157996722412 -0.00799546277709305
v -0.00014743124786764 0.00028424975939942 -0.00795483920164406
v 0.00088254225905985 0.00006613180705261 -0.00794656004197896
v 0.00094459212478250 0.00032242367335510 -0.00788785592280328
v 0.00177934611495584 0.00013271043368530 -0.00778825388662517
v 0.00209900820907205 0.00032448718615723 -0.00766140126995742
v 0.00279860747512430 0.00007450292178345 -0.00748942071013153
v 0.00323837245162576 0.00028570625849915 -0.00726759171299636
v 0.00394624865707010 0.00000954077311707 -0.00695698189549148
v 0.00430565226729959 0.00026237247058106 -0.00669905388168991
v 0.00503217185195535 0.00001486561366272 -0.00621729159168899
v 0.00529368460830301 0.00025628922053528 -0.00595186960510910
v -0.00780556919518858 -0.00056145396164703 -0.00056883060745895
v -0.00777070390526205 -0.00059991052082825 0.00066642224974930
v -0.00753694450203329 -0.00064411904743957 0.00186601102538407
v -0.00713301419559866 -0.00068806030682373 0.00296744287200272
v -0.00658055245224386 -0.00072837140492248 0.00397045076079667
v -0.00588086163345724 -0.00076917221478271 0.00487674081511795
v -0.00503414975944907 -0.00081650974682617 0.00566491353698075
v -0.00776166040543467 -0.00027678539685058 -0.00176287329010665
v -0.00745129811111838 -0.00021242382458496 -0.00284312832169235
v -0.00707862936798483 -0.00009928896359253 -0.00371217310242355
v -0.00763819118682295 -0.00075523998669433 -0.00049522602371871
v -0.00758290474954993 -0.00078574385575104 0.00072767389006913
v -0.00731765871588141 -0.00082987251213837 0.00188906610198319
v -0.00690445303265005 -0.00086388590267944 0.00293837964721024
v -0.00633865868393332 -0.00088436081341553 0.00394728791899979
v -0.00562943684402853 -0.00090471961430359 0.00484433400817215
v -0.00764431189838797 -0.00052356305054474 -0.00178689110092819
v -0.00730447857920080 -0.00047271194390106 -0.00295428240112960
v -0.00682390307728201 -0.00038061203888702 -0.00402504479698837
v -0.00646126961056143 -0.00014520468643951 -0.00469522440247238
v -0.00743515627924353 -0.00089492204121399 -0.00038340389542282
v -0.00735750227514654 -0.00091553618840027 0.00080544316954911
v -0.00748856859747320 -0.00072960522106933 -0.00171425163559616
v -0.00714827328268439 -0.00069883480004120 -0.00289793121628463
v -0.00665132343117148 -0.00065001561573791 -0.00399274503998458
v -0.00607998537365347 -0.00057391157082367 -0.00491238772682846
v -0.00614396368805319 -0.00035231044224548 -0.00501912224106491
v -0.00542489754501730 -0.00042578079632568 -0.00574597704224288
v -0.00565465890709311 -0.00017370655468750 -0.00563394939713180
v -0.00476248037163168 -0.00024164929322052 -0.00638773214630783
v -0.00730368047300726 -0.00088106253079224 -0.00157434379868209
v -0.00697617995087057 -0.00086658706597137 -0.00274584400467575
v -0.00646333753410727 -0.00084527316025543 -0.00386758816055954
v -0.00578026472870260 -0.00080759539536285 -0.00491483223251998
v -0.00525957023445517 -0.00064932718209076 -0.00570284807495773
v -0.00455875765625387 -0.00049615814617920 -0.00640974020771682
v -0.00385765206161886 -0.00034492721489715 -0.00693521117977798
v -0.00493921672645956 -0.00081308426789093 -0.00574922358803451
v -0.00415009915176779 -0.00085857286385345 -0.00625913739018142
v -0.00430944597069174 -0.00069574620655823 -0.00639993607811630
v -0.00333917557541281 -0.00075439300469208 -0.00688686108402908
v -0.00350735079590231 -0.00055810847214508 -0.00699721228890121
v -0.00240984045807272 -0.00063815560272980 -0.00738388269953430
v -0.00268235289398581 -0.00036553790501404 -0.00746050566248596
v -0.00136716877762228 -0.00055751337937164 -0.00770717495493591
v -0.00139440762344748 -0.00030879619053650 -0.00782518876902759
v -0.00013334881607443 -0.00051424481800842 -0.00785396809689701
v -0.00014440237823874 -0.00026260211399841 -0.00796105011738837
v 0.00110609114822000 -0.00046993102959442 -0.00780233879201114
v 0.00102865184005350 -0.00020802869728851 -0.00790914245508611
v 0.00227663767989725 -0.00039246036938476 -0.00758328202180564
v 0.00200983966048807 -0.00010800101689148 -0.00773512536101043
v 0.00306528342422098 -0.00017649056843567 -0.00737037122063339
v 0.00337584841903299 -0.00039676203659820 -0.00716017424874008
v 0.00395212042983621 -0.00025334241322327 -0.00691615879349411
v 0.00473309004958719 -0.00022460319927978 -0.00641617584042251
v 0.00774892867263407 0.00028482267924500 -0.00181667959503829
v 0.00792110884841532 0.00032340834208679 -0.00064233219437301
v 0.00783440268691629 -0.00054732158116150 0.00023930394835770
v 0.00781006873305887 -0.00037779774597931 0.00135864675231278
v 0.00764673102553934 -0.00075204899243164 0.00045596254058182
v 0.00762287200149149 -0.00063715841702270 0.00151653897948563
v 0.00737199748214334 -0.00056013932160187 0.00263939416594803
v 0.00747979796584696 -0.00031367363861847 0.00269761312194169
v 0.00687652934249490 -0.00051558961800384 0.00380486238189042
v 0.00697147906478494 -0.00026379587582397 0.00385580289550126
v 0.00620518840011209 -0.00046959855488586 0.00486550462432206
v 0.00633323634322733 -0.00020769073895264 0.00485588681884110
v 0.00566845477279276 -0.00010785093239593 0.00564055097289383
v 0.00742787039931864 -0.00089417376450348 0.00056018960662186
v 0.00741013110335916 -0.00082080938748169 0.00156096971221268
v 0.00718442404922098 -0.00076487007073212 0.00261649072356522
v 0.00674246085342020 -0.00072702469757843 0.00369542253203690
v 0.00609390509780496 -0.00069674470356750 0.00473900449462235
v 0.00720803130324930 -0.00093541898659515 0.00146338308043778
v 0.00699898398574442 -0.00090498580864715 0.00248571336455643
v 0.00659380305465311 -0.00088320841721344 0.00351270902343094
v 0.00598932421859354 -0.00086616232327270 0.00451773393340409
v -0.00690829359833151 0.00149999997683716 0.00112540471740067
v -0.00699894177261740 0.00149999997683716 0.00000252568908036
v -0.00690829359833151 0.00149999997683716 -0.00112035333923996
v -0.00663869678322226 0.00149999997683716 -0.00221415006928146
v -0.00619713389221579 0.00149999997683716 -0.00325053655914962
v -0.00559504114929587 0.00149999997683716 -0.00420267021469772
v -0.00484801208321005 0.00149999997683716 -0.00504589140228927
v -0.00397539507690817 0.00149999997683716 -0.00575836121849716
v -0.00299978958908468 0.00149999997683716 -0.00632162725739181
v -0.00194646393600851 0.00149999997683716 -0.00672110104374588
v -0.00084269844833761 0.00149999997683716 -0.00694643640331924
v 0.00028291953261942 0.00149999997683716 -0.00699179720692337
v 0.00140123809035867 0.00149999997683716 -0.00685600888542831
v 0.00248329222854227 0.00149999997683716 -0.00654258799366653
v 0.00350105822738260 0.00149999997683716 -0.00605965208820999
v 0.00442817557509989 0.00149999997683716 -0.00541970908455551
v 0.00524063361342996 0.00149999997683716 -0.00463933288864791
v 0.00591738856490701 0.00149999997683716 -0.00373873483948410
v 0.00644091475661844 0.00149999997683716 -0.00274124061875045
v 0.00679765093978494 0.00149999997683716 -0.00167268383316696
v 0.00697835982497782 0.00149999997683716 -0.00056074011139572
v 0.00697835982497782 0.00149999997683716 0.00056579148955643
v 0.00679765093978494 0.00149999997683716 0.00167773568816483
v 0.00644091475661844 0.00149999997683716 0.00274629247374833
v 0.00591738856490701 0.00149999997683716 0.00374378621764481
v 0.00524063361342996 0.00149999997683716 0.00464438474364579
v 0.00442817557509989 0.00149999997683716 0.00542476022429764
v 0.00350105822738260 0.00149999997683716 0.00606470334716141
v 0.00248329222854227 0.00149999997683716 0.00654763925261796
v 0.00140123809035867 0.00149999997683716 0.00686106050200760
v 0.00028291953261942 0.00149999997683716 0.00699684846587479
v -0.00084269844833761 0.00149999997683716 0.00695148790068924
v -0.00194646393600851 0.00149999997683716 0.00672615277953446
v -0.00299978958908468 0.00149999997683716 0.00632667863555253
v -0.00397539507690817 0.00149999997683716 0.00576341283507645
v -0.00484801208321005 0.00149999997683716 0.00505094278044999
v -0.00559504114929587 0.00149999997683716 0.00420772111602128
v -0.00619713389221579 0.00149999997683716 0.00325558793731034
v -0.00663869678322226 0.00149999997683716 0.00221920144744217
v -0.00441247546020895 0.00199999997683716 -0.00087538063339889
v -0.00449894177261740 0.00199999997683716 0.00000252568908036
v -0.00415639960113913 0.00199999997683716 -0.00171954977326095
v -0.00374055516067892 0.00199999997683716 -0.00249754011444747
v -0.00318092238251120 0.00199999997683716 -0.00317945492081344
v -0.00249900757614523 0.00199999997683716 -0.00373908769898117
v -0.00172101723495871 0.00199999997683716 -0.00415493213944137
v -0.00087684809509665 0.00199999997683716 -0.00441100799851120
v 0.00000105822738260 0.00199999997683716 -0.00449747431091964
v 0.00087896502669901 0.00199999997683716 -0.00441100799851120
v 0.00172313368972391 0.00199999997683716 -0.00415493213944137
v 0.00250112403091043 0.00199999997683716 -0.00373908769898117
v 0.00318303836043924 0.00199999997683716 -0.00317945492081344
v 0.00374267161544412 0.00199999997683716 -0.00249754011444747
v 0.00415851653274149 0.00199999997683716 -0.00171954977326095
v 0.00441459239181131 0.00199999997683716 -0.00087538063339889
v 0.00450105822738260 0.00199999997683716 0.00000252568908036
v 0.00441459239181131 0.00199999997683716 0.00088043248839676
v 0.00415851653274149 0.00199999997683716 0.00172460115142167
v 0.00374267161544412 0.00199999997683716 0.00250259149260819
v 0.00318303836043924 0.00199999997683716 0.00318450582213700
v 0.00250112403091043 0.00199999997683716 0.00374413907714188
v 0.00172313368972391 0.00199999997683716 0.00415998399443924
v 0.00087896502669901 0.00199999997683716 0.00441605985350907
v 0.00000105822738260 0.00199999997683716 0.00450252568908036
v -0.00087684809509665 0.00199999997683716 0.00441605985350907
v -0.00172101723495871 0.00199999997683716 0.00415998399443924
v -0.00249900757614523 0.00199999997683716 0.00374413907714188
v -0.00318092238251120 0.00199999997683716 0.00318450582213700
v -0.00374055516067892 0.00199999997683716 0.00250259149260819
v -0.00415639960113913 0.00199999997683716 0.00172460115142167
v -0.00441247546020895 0.00199999997683716 0.00088043248839676
v 0.00144994700606912 -0.00199999997683716 -0.00038570272736251
v 0.00441459239181131 -0.00199999997683716 -0.00087538063339889
v 0.00150105822738260 -0.00199999997683716 0.00000252568908036
v 0.00450105822738260 -0.00199999997683716 0.00000252568908036
v 0.00441459239181131 -0.00199999997683716 0.00088043248839676
v 0.00415851653274149 -0.00199999997683716 -0.00171954977326095
v 0.00130009616073221 -0.00199999997683716 -0.00074747431091964
v 0.00374267161544412 -0.00199999997683716 -0.00249754011444747
v 0.00106171858962625 -0.00199999997683716 -0.00105813467316329
v 0.00318303836043924 -0.00199999997683716 -0.00317945492081344
v 0.00250112403091043 -0.00199999997683716 -0.00373908769898117
v 0.00075105822738260 -0.00199999997683716 -0.00129651224426925
v 0.00172313368972391 -0.00199999997683716 -0.00415493213944137
v 0.00038928664382547 -0.00199999997683716 -0.00144636308960617
v 0.00087896502669901 -0.00199999997683716 -0.00441100799851120
v 0.00000105822738260 -0.00199999997683716 -0.00149747431091964
v 0.00000105822738260 -0.00199999997683716 -0.00449747431091964
v -0.00087684809509665 -0.00199999997683716 -0.00441100799851120
v -0.00038717018906027 -0.00199999997683716 -0.00144636308960617
v -0.00172101723495871 -0.00199999997683716 -0.00415493213944137
v -0.00074894177261740 -0.00199999997683716 -0.00129651224426925
v -0.00249900757614523 -0.00199999997683716 -0.00373908769898117
v -0.00105960213486105 -0.00199999997683716 -0.00105813467316329
v -0.00318092238251120 -0.00199999997683716 -0.00317945492081344
v -0.00374055516067892 -0.00199999997683716 -0.00249754011444747
v -0.00129797970596701 -0.00199999997683716 -0.00074747431091964
v -0.00415639960113913 -0.00199999997683716 -0.00171954977326095
v -0.00144783055130392 -0.00199999997683716 -0.00038570272736251
v -0.00441247546020895 -0.00199999997683716 -0.00087538063339889
v -0.00149894177261740 -0.00199999997683716 0.00000252568908036
v -0.00449894177261740 -0.00199999997683716 0.00000252568908036
v -0.00441247546020895 -0.00199999997683716 0.00088043248839676
v -0.00144783055130392 -0.00199999997683716 0.00039075410552323
v -0.00415639960113913 -0.00199999997683716 0.00172460115142167
v -0.00129797970596701 -0.00199999997683716 0.00075252568908036
v -0.00374055516067892 -0.00199999997683716 0.00250259149260819
v -0.00105960213486105 -0.00199999997683716 0.00106318605132401
v -0.00318092238251120 -0.00199999997683716 0.00318450582213700
v -0.00249900757614523 -0.00199999997683716 0.00374413907714188
v -0.00074894177261740 -0.00199999997683716 0.00130156362242997
v -0.00172101723495871 -0.00199999997683716 0.00415998399443924
v -0.00038717018906027 -0.00199999997683716 0.00145141446776688
v -0.00087684809509665 -0.00199999997683716 0.00441605985350907
v 0.00000105822738260 -0.00199999997683716 0.00150252568908036
v 0.00000105822738260 -0.00199999997683716 0.00450252568908036
v 0.00087896502669901 -0.00199999997683716 0.00441605985350907
v 0.00038928664382547 -0.00199999997683716 0.00145141446776688
v 0.00172313368972391 -0.00199999997683716 0.00415998399443924
v 0.00075105822738260 -0.00199999997683716 0.00130156362242997
v 0.00250112403091043 -0.00199999997683716 0.00374413907714188
v 0.00106171858962625 -0.00199999997683716 0.00106318605132401
v 0.00318303836043924 -0.00199999997683716 0.00318450582213700
v 0.00374267161544412 -0.00199999997683716 0.00250259149260819
v 0.00130009616073221 -0.00199999997683716 0.00075252568908036
v 0.00415851653274149 -0.00199999997683716 0.00172460115142167
v 0.00144994700606912 -0.00199999997683716 0.00039075410552323
v -0.00690829359833151 -0.00149999996355820 -0.00112035333923996
v -0.00699894177261740 -0.00149999996355820 0.00000252568908036
v -0.00690829359833151 -0.00149999996355820 0.00112540471740067
v -0.00663869678322226 -0.00149999996355820 0.00221920144744217
v -0.00619713389221579 -0.00149999996355820 0.00325558793731034
v -0.00559504114929587 -0.00149999996355820 0.00420772111602128
v -0.00484801208321005 -0.00149999996355820 0.00505094278044999
v -0.00397539507690817 -0.00149999996355820 0.00576341283507645
v -0.00299978958908468 -0.00149999996355820 0.00632667863555253
v -0.00194646393600851 -0.00149999996355820 0.00672615277953446
v -0.00084269844833761 -0.00149999996355820 0.00695148790068924
v 0.00028291953261942 -0.00149999996355820 0.00699684846587479
v 0.00140123809035867 -0.00149999996355820 0.00686106050200760
v 0.00248329222854227 -0.00149999996355820 0.00654763925261796
v 0.00350105822738260 -0.00149999996355820 0.00606470334716141
v 0.00442817557509989 -0.00149999996355820 0.00542476022429764
v 0.00524063361342996 -0.00149999996355820 0.00464438474364579
v 0.00591738856490701 -0.00149999996355820 0.00374378621764481
v 0.00644091475661844 -0.00149999996355820 0.00274629247374833
v 0.00679765093978494 -0.00149999996355820 0.00167773568816483
v 0.00697835982497782 -0.00149999996355820 0.00056579148955643
v 0.00697835982497782 -0.00149999996355820 -0.00056074011139572
v 0.00679765093978494 -0.00149999996355820 -0.00167268383316696
v 0.00644091475661844 -0.00149999996355820 -0.00274124061875045
v 0.00591738856490701 -0.00149999996355820 -0.00373873483948410
v 0.00524063361342996 -0.00149999996355820 -0.00463933288864791
v 0.00442817557509989 -0.00149999996355820 -0.00541970908455551
v 0.00350105822738260 -0.00149999996355820 -0.00605965208820999
v 0.00248329222854227 -0.00149999996355820 -0.00654258799366653
v 0.00140123809035867 -0.00149999996355820 -0.00685600888542831
v 0.00028291953261942 -0.00149999996355820 -0.00699179720692337
v -0.00084269844833761 -0.00149999996355820 -0.00694643640331924
v -0.00194646393600851 -0.00149999996355820 -0.00672110104374588
v -0.00299978958908468 -0.00149999996355820 -0.00632162725739181
v -0.00397539507690817 -0.00149999996355820 -0.00575836121849716
v -0.00484801208321005 -0.00149999996355820 -0.00504589140228927
v -0.00559504114929587 -0.00149999996355820 -0.00420267021469772
v -0.00619713389221579 -0.00149999996355820 -0.00325053655914962
v -0.00663869678322226 -0.00149999996355820 -0.00221415006928146
v 0.00144994700606912 0.00199999997683716 0.00039075410552323
v 0.00150105822738260 0.00199999997683716 0.00000252568908036
v 0.00144994700606912 0.00199999997683716 -0.00038570272736251
v 0.00130009616073221 0.00199999997683716 -0.00074747431091964
v 0.00106171858962625 0.00199999997683716 -0.00105813467316329
v 0.00075105822738260 0.00199999997683716 -0.00129651224426925
v 0.00038928664382547 0.00199999997683716 -0.00144636308960617
v 0.00000105822738260 0.00199999997683716 -0.00149747431091964
v -0.00038717018906027 0.00199999997683716 -0.00144636308960617
v -0.00074894177261740 0.00199999997683716 -0.00129651224426925
v -0.00105960213486105 0.00199999997683716 -0.00105813467316329
v -0.00129797970596701 0.00199999997683716 -0.00074747431091964
v -0.00144783055130392 0.00199999997683716 -0.00038570272736251
v -0.00149894177261740 0.00199999997683716 0.00000252568908036
v -0.00144783055130392 0.00199999997683716 0.00039075410552323
v -0.00129797970596701 0.00199999997683716 0.00075252568908036
v -0.00105960213486105 0.00199999997683716 0.00106318605132401
v -0.00074894177261740 0.00199999997683716 0.00130156362242997
v -0.00038717018906027 0.00199999997683716 0.00145141446776688
v 0.00000105822738260 0.00199999997683716 0.00150252568908036
v 0.00038928664382547 0.00199999997683716 0.00145141446776688
v 0.00075105822738260 0.00199999997683716 0.00130156362242997
v 0.00106171858962625 0.00199999997683716 0.00106318605132401
v 0.00130009616073221 0.00199999997683716 0.00075252568908036
f 1 2 3
f 3 2 4
f 3 4 5
f 5 4 6
f 5 6 7
f 7 6 8
f 7 8 9
f 9 8 10
f 9 10 11
f 11 10 12
f 11 12 13
f 13 12 14
f 13 14 15
f 15 14 16
f 15 16 17
f 17 16 18
f 17 18 19
f 19 18 20
f 19 20 21
f 21 20 22
f 21 22 23
f 23 22 24
f 23 24 25
f 25 24 26
f 25 26 27
f 27 26 28
f 27 28 29
f 29 28 30
f 29 30 31
f 31 30 32
f 31 32 33
f 33 32 34
f 33 34 35
f 35 34 36
f 35 36 37
f 37 36 38
f 37 38 39
f 39 38 40
f 39 40 41
f 41 40 42
f 41 42 43
f 43 42 44
f 43 44 45
f 45 44 46
f 45 46 47
f 47 46 48
f 47 48 49
f 49 48 50
f 49 50 51
f 51 50 52
f 51 52 53
f 53 52 54
f 53 54 55
f 55 54 56
f 55 56 57
f 57 56 58
f 57 58 59
f 59 58 60
f 59 60 61
f 61 60 62
f 61 62 63
f 63 62 64
f 63 64 65
f 65 64 66
f 65 66 67
f 67 66 68
f 67 68 69
f 69 68 70
f 69 70 71
f 71 70 72
f 71 72 73
f 73 72 74
f 73 74 75
f 75 74 76
f 75 76 77
f 77 76 78
f 77 78 79
f 79 78 80
f 79 80 81
f 81 80 82
f 81 82 83
f 83 82 84
f 83 84 85
f 85 84 86
f 85 86 87
f 87 86 88
f 87 88 89
f 89 88 90
f 89 90 8
f 8 90 91
f 8 91 10
f 10 91 92
f 10 92 12
f 12 92 93
f 12 93 14
f 14 93 94
f 14 94 16
f 16 94 95
f 16 95 18
f 18 95 96
f 18 96 20
f 20 96 97
f 20 97 22
f 22 97 98
f 22 98 99
f 99 98 100
f 99 100 101
f 101 100 102
f 101 102 103
f 103 102 104
f 103 104 105
f 105 104 106
f 105 106 107
f 107 106 108
f 107 108 109
f 109 108 110
f 109 110 111
f 111 110 112
f 111 112 113
f 113 112 114
f 113 114 115
f 115 114 116
f 115 116 117
f 117 116 118
f 117 118 119
f 119 118 120
f 119 120 121
f 2 1 122
f 122 1 123
f 122 123 124
f 124 123 125
f 124 125 126
f 126 125 127
f 126 127 128
f 128 127 129
f 128 129 130
f 130 129 131
f 130 131 132
f 132 131 133
f 132 133 134
f 134 133 135
f 134 135 136
f 136 135 137
f 136 137 138
f 138 137 139
f 138 139 140
f 140 139 141
f 140 141 142
f 142 141 143
f 142 143 144
f 144 143 145
f 144 145 146
f 146 145 147
f 146 147 148
f 148 147 149
f 148 149 150
f 150 149 151
f 150 151 57
f 57 151 55
f 147 152 149
f 149 152 153
f 149 153 151
f 151 153 154
f 151 154 55
f 55 154 53
f 152 155 153
f 153 155 156
f 153 156 154
f 154 156 157
f 154 157 53
f 53 157 51
f 155 158 156
f 156 158 159
f 156 159 157
f 157 159 160
f 157 160 51
f 51 160 49
f 158 161 159
f 159 161 162
f 159 162 160
f 160 162 163
f 160 163 49
f 49 163 47
f 161 164 162
f 162 164 165
f 162 165 163
f 163 165 166
f 163 166 47
f 47 166 45
f 164 167 165
f 165 167 168
f 165 168 166
f 166 168 169
f 166 169 45
f 45 169 43
f 167 170 168
f 168 170 171
f 168 171 169
f 169 171 172
f 169 172 43
f 43 172 41
f 170 173 171
f 171 173 174
f 171 174 172
f 172 174 175
f 172 175 41
f 41 175 39
f 173 176 174
f 174 176 177
f 174 177 175
f 175 177 178
f 175 178 39
f 39 178 37
f 176 179 177
f 177 179 180
f 177 180 178
f 178 180 181
f 178 181 37
f 37 181 35
f 179 182 180
f 180 182 183
f 180 183 181
f 181 183 184
f 181 184 35
f 35 184 33
f 182 185 183
f 183 185 186
f 183 186 184
f 184 186 187
f 184 187 33
f 33 187 31
f 185 188 186
f 186 188 189
f 186 189 187
f 187 189 190
f 187 190 31
f 31 190 29
f 189 188 191
f 191 188 192
f 191 192 193
f 193 192 194
f 193 194 195
f 195 194 196
f 195 196 197
f 197 196 198
f 197 198 199
f 199 198 200
f 199 200 201
f 201 200 202
f 201 202 203
f 203 202 204
f 203 204 205
f 205 204 206
f 205 206 207
f 207 206 208
f 207 208 209
f 209 208 210
f 209 210 211
f 211 210 212
f 211 212 5
f 5 212 3
f 213 214 215
f 215 214 216
f 215 216 217
f 217 216 218
f 217 218 219
f 219 218 220
f 219 220 221
f 221 220 222
f 221 222 223
f 223 222 224
f 223 224 225
f 225 224 226
f 225 226 227
f 227 226 228
f 227 228 229
f 229 228 230
f 229 230 231
f 231 230 232
f 231 232 233
f 233 232 234
f 233 234 235
f 235 234 236
f 235 236 237
f 237 236 238
f 237 238 239
f 239 238 240
f 239 240 241
f 241 240 242
f 241 242 243
f 243 242 244
f 243 244 245
f 245 244 246
f 245 246 247
f 247 246 248
f 247 248 249
f 249 248 250
f 249 250 251
f 251 250 252
f 251 252 253
f 253 252 58
f 253 58 56
f 214 213 254
f 254 213 255
f 254 255 256
f 256 255 257
f 256 257 258
f 258 257 259
f 258 259 260
f 260 259 261
f 260 261 262
f 262 261 263
f 262 263 264
f 264 263 265
f 264 265 266
f 266 265 267
f 266 267 268
f 268 267 269
f 268 269 270
f 270 269 271
f 270 271 272
f 272 271 273
f 272 273 274
f 274 273 275
f 274 275 276
f 276 275 277
f 276 277 278
f 278 277 114
f 278 114 112
f 265 279 267
f 267 279 280
f 267 280 269
f 269 280 281
f 269 281 271
f 271 281 282
f 271 282 273
f 273 282 283
f 273 283 275
f 275 283 284
f 275 284 277
f 277 284 116
f 277 116 114
f 279 285 280
f 280 285 286
f 280 286 281
f 281 286 287
f 281 287 282
f 282 287 288
f 282 288 283
f 283 288 289
f 283 289 284
f 284 289 116
f 285 290 286
f 286 290 287
f 290 291 287
f 287 291 288
f 291 292 288
f 288 292 289
f 292 293 289
f 289 293 118
f 289 118 116
f 293 120 118
f 119 121 294
f 294 121 295
f 294 295 296
f 296 295 297
f 296 297 298
f 298 297 299
f 298 299 300
f 300 299 301
f 300 301 302
f 302 301 303
f 302 303 304
f 304 303 305
f 304 305 306
f 306 305 307
f 306 307 308
f 308 307 309
f 308 309 310
f 310 309 311
f 310 311 312
f 312 311 313
f 312 313 314
f 314 313 315
f 314 315 316
f 316 315 253
f 316 253 56
f 303 317 305
f 305 317 318
f 305 318 307
f 307 318 319
f 307 319 309
f 309 319 320
f 309 320 311
f 311 320 321
f 311 321 322
f 322 321 249
f 322 249 251
f 317 323 318
f 318 323 324
f 318 324 319
f 319 324 325
f 319 325 320
f 320 325 326
f 320 326 321
f 321 326 327
f 321 327 249
f 249 327 247
f 323 328 324
f 324 328 329
f 324 329 325
f 325 329 330
f 325 330 326
f 326 330 331
f 326 331 327
f 327 331 247
f 328 332 329
f 329 332 333
f 329 333 330
f 330 333 334
f 330 334 331
f 331 334 245
f 331 245 247
f 332 335 333
f 333 335 336
f 333 336 334
f 334 336 337
f 334 337 245
f 245 337 243
f 335 338 336
f 336 338 339
f 336 339 241
f 241 339 239
f 338 340 339
f 339 340 341
f 339 341 239
f 239 341 237
f 340 342 341
f 341 342 343
f 341 343 237
f 237 343 235
f 342 344 343
f 343 344 345
f 343 345 235
f 235 345 233
f 344 346 345
f 345 346 347
f 345 347 233
f 233 347 231
f 346 348 347
f 347 348 349
f 347 349 231
f 231 349 229
f 348 350 349
f 349 350 229
f 350 227 229
f 195 351 193
f 193 351 352
f 193 352 191
f 191 352 190
f 191 190 189
f 351 27 352
f 352 27 29
f 352 29 190
f 351 195 353
f 353 195 197
f 353 197 354
f 354 197 199
f 354 199 355
f 355 199 201
f 355 201 356
f 356 201 203
f 356 203 357
f 357 203 205
f 357 205 358
f 358 205 207
f 358 207 359
f 359 207 209
f 359 209 360
f 360 209 211
f 360 211 7
f 7 211 5
f 27 351 25
f 25 351 353
f 25 353 23
f 23 353 354
f 23 354 21
f 21 354 355
f 21 355 19
f 19 355 356
f 19 356 17
f 17 356 357
f 17 357 15
f 15 357 358
f 15 358 13
f 13 358 359
f 13 359 11
f 11 359 360
f 11 360 9
f 9 360 7
f 28 103 361
f 361 103 105
f 361 105 362
f 362 105 107
f 362 107 363
f 363 107 109
f 363 109 364
f 364 109 365
f 364 365 366
f 366 365 367
f 366 367 368
f 368 367 369
f 368 369 370
f 370 369 371
f 370 371 372
f 372 371 373
f 372 373 374
f 374 373 375
f 374 375 376
f 376 375 377
f 376 377 378
f 378 377 379
f 378 379 312
f 312 379 310
f 103 28 101
f 101 28 26
f 101 26 99
f 99 26 24
f 99 24 22
f 104 380 106
f 106 380 274
f 106 274 108
f 108 274 276
f 108 276 278
f 274 380 272
f 272 380 381
f 272 381 270
f 270 381 382
f 270 382 268
f 268 382 383
f 268 383 266
f 266 383 384
f 266 384 264
f 264 384 385
f 264 385 262
f 262 385 260
f 380 104 386
f 386 104 102
f 386 102 387
f 387 102 100
f 387 100 388
f 388 100 98
f 388 98 97
f 6 4 389
f 389 4 2
f 389 2 390
f 390 2 122
f 390 122 391
f 391 122 124
f 391 124 392
f 392 124 126
f 392 126 393
f 393 126 128
f 393 128 394
f 394 128 130
f 394 130 395
f 395 130 132
f 395 132 396
f 396 132 134
f 396 134 397
f 397 134 136
f 397 136 398
f 398 136 138
f 398 138 399
f 399 138 140
f 399 140 400
f 400 140 142
f 400 142 401
f 401 142 144
f 401 144 402
f 402 144 146
f 402 146 403
f 403 146 148
f 403 148 150
f 8 6 89
f 89 6 389
f 89 389 87
f 87 389 390
f 87 390 85
f 85 390 391
f 85 391 83
f 83 391 392
f 83 392 81
f 81 392 393
f 81 393 79
f 79 393 394
f 79 394 77
f 77 394 395
f 77 395 75
f 75 395 396
f 75 396 73
f 73 396 397
f 73 397 71
f 71 397 398
f 71 398 69
f 69 398 399
f 69 399 67
f 67 399 400
f 67 400 65
f 65 400 401
f 65 401 63
f 63 401 402
f 63 402 61
f 61 402 403
f 61 403 59
f 59 403 150
f 59 150 57
f 90 404 91
f 91 404 405
f 91 405 92
f 92 405 406
f 92 406 93
f 93 406 407
f 93 407 94
f 94 407 408
f 94 408 95
f 95 408 409
f 95 409 96
f 96 409 410
f 96 410 97
f 97 410 411
f 97 411 388
f 388 411 412
f 388 412 387
f 387 412 413
f 387 413 386
f 386 413 381
f 386 381 380
f 404 414 405
f 405 414 415
f 405 415 406
f 406 415 416
f 406 416 407
f 407 416 417
f 407 417 408
f 408 417 418
f 408 418 409
f 409 418 419
f 409 419 410
f 410 419 420
f 410 420 421
f 421 420 422
f 421 422 423
f 423 422 424
f 423 424 413
f 413 424 382
f 413 382 381
f 404 90 425
f 425 90 88
f 425 88 426
f 426 88 86
f 426 86 427
f 427 86 84
f 427 84 428
f 428 84 82
f 428 82 429
f 429 82 80
f 429 80 430
f 430 80 78
f 430 78 76
f 414 431 415
f 415 431 432
f 415 432 416
f 416 432 433
f 416 433 417
f 417 433 434
f 417 434 418
f 418 434 435
f 418 435 419
f 419 435 436
f 419 436 420
f 420 436 437
f 420 437 422
f 422 437 438
f 422 438 424
f 424 438 383
f 424 383 382
f 414 404 439
f 439 404 425
f 439 425 440
f 440 425 426
f 440 426 441
f 441 426 427
f 441 427 442
f 442 427 428
f 442 428 443
f 443 428 429
f 443 429 444
f 444 429 430
f 444 430 445
f 445 430 446
f 445 446 447
f 447 446 448
f 447 448 449
f 449 448 450
f 449 450 451
f 451 450 452
f 451 452 453
f 453 452 454
f 453 454 455
f 455 454 456
f 455 456 457
f 457 456 458
f 457 458 459
f 459 458 460
f 459 460 461
f 461 460 462
f 461 462 250
f 250 462 252
f 431 463 432
f 432 463 464
f 432 464 433
f 433 464 465
f 433 465 434
f 434 465 466
f 434 466 435
f 435 466 467
f 435 467 436
f 436 467 468
f 436 468 437
f 437 468 469
f 437 469 438
f 438 469 384
f 438 384 383
f 431 414 470
f 470 414 439
f 470 439 471
f 471 439 440
f 471 440 472
f 472 440 441
f 472 441 442
f 463 473 464
f 464 473 474
f 464 474 465
f 465 474 475
f 465 475 466
f 466 475 476
f 466 476 467
f 467 476 477
f 467 477 468
f 468 477 478
f 468 478 469
f 469 478 385
f 469 385 384
f 463 431 479
f 479 431 470
f 479 470 480
f 480 470 471
f 480 471 481
f 481 471 472
f 481 472 482
f 482 472 442
f 482 442 443
f 473 483 474
f 474 483 484
f 474 484 475
f 475 484 254
f 475 254 476
f 476 254 256
f 476 256 477
f 477 256 258
f 477 258 478
f 478 258 260
f 478 260 385
f 473 463 485
f 485 463 479
f 485 479 486
f 486 479 480
f 486 480 487
f 487 480 481
f 487 481 488
f 488 481 489
f 488 489 490
f 490 489 491
f 490 491 492
f 492 491 444
f 492 444 445
f 483 216 484
f 484 216 214
f 484 214 254
f 483 473 493
f 493 473 485
f 493 485 494
f 494 485 486
f 494 486 495
f 495 486 487
f 495 487 496
f 496 487 488
f 496 488 497
f 497 488 490
f 497 490 498
f 498 490 492
f 498 492 499
f 499 492 445
f 499 445 447
f 216 483 218
f 218 483 493
f 218 493 220
f 220 493 494
f 220 494 222
f 222 494 495
f 222 495 224
f 224 495 496
f 224 496 226
f 226 496 500
f 226 500 501
f 501 500 502
f 501 502 503
f 503 502 504
f 503 504 505
f 505 504 506
f 505 506 507
f 507 506 508
f 507 508 509
f 509 508 510
f 509 510 511
f 511 510 512
f 511 512 513
f 513 512 514
f 513 514 515
f 515 514 457
f 515 457 459
f 489 481 482
f 491 489 482
f 491 482 443
f 500 496 497
f 444 491 443
f 502 500 497
f 502 497 498
f 228 226 501
f 446 430 76
f 504 502 498
f 504 498 499
f 230 228 501
f 230 501 503
f 446 76 448
f 448 76 74
f 448 74 450
f 450 74 72
f 450 72 452
f 452 72 70
f 452 70 454
f 454 70 68
f 454 68 456
f 456 68 66
f 456 66 458
f 458 66 64
f 458 64 460
f 460 64 62
f 460 62 462
f 462 62 60
f 462 60 252
f 252 60 58
f 504 499 506
f 506 499 447
f 506 447 508
f 508 447 449
f 508 449 510
f 510 449 451
f 510 451 512
f 512 451 453
f 512 453 514
f 514 453 455
f 514 455 457
f 230 503 232
f 232 503 505
f 232 505 234
f 234 505 507
f 234 507 236
f 236 507 509
f 236 509 238
f 238 509 511
f 238 511 240
f 240 511 513
f 240 513 242
f 242 513 516
f 242 516 244
f 244 516 517
f 244 517 518
f 518 517 459
f 518 459 461
f 516 513 515
f 517 516 515
f 517 515 459
f 337 336 241
f 246 244 518
f 243 337 241
f 248 246 518
f 250 248 461
f 461 248 518
f 316 56 54
f 322 251 315
f 315 251 253
f 316 54 519
f 519 54 52
f 519 52 520
f 520 52 50
f 520 50 48
f 311 322 313
f 313 322 315
f 316 519 314
f 314 519 378
f 314 378 312
f 378 519 520
f 376 378 520
f 376 520 48
f 308 310 521
f 521 310 379
f 521 379 522
f 522 379 377
f 522 377 375
f 306 308 523
f 523 308 521
f 523 521 524
f 524 521 522
f 524 522 525
f 525 522 526
f 525 526 527
f 527 526 528
f 527 528 529
f 529 528 530
f 529 530 113
f 113 530 531
f 113 531 111
f 111 531 365
f 111 365 109
f 304 306 532
f 532 306 523
f 532 523 533
f 533 523 524
f 533 524 534
f 534 524 525
f 534 525 535
f 535 525 527
f 535 527 536
f 536 527 529
f 536 529 115
f 115 529 113
f 376 48 374
f 374 48 46
f 374 46 372
f 372 46 44
f 372 44 370
f 370 44 42
f 370 42 368
f 368 42 40
f 368 40 366
f 366 40 38
f 366 38 364
f 364 38 36
f 364 36 363
f 363 36 34
f 363 34 362
f 362 34 32
f 362 32 361
f 361 32 30
f 361 30 28
f 526 522 375
f 526 375 373
f 533 537 532
f 532 537 302
f 532 302 304
f 298 300 537
f 537 300 302
f 537 533 538
f 538 533 534
f 538 534 539
f 539 534 535
f 539 535 540
f 540 535 536
f 540 536 117
f 117 536 115
f 528 526 373
f 528 373 371
f 296 298 538
f 538 298 537
f 296 538 539
f 530 528 371
f 530 371 369
f 294 296 539
f 294 539 540
f 531 530 369
f 531 369 367
f 119 294 540
f 119 540 117
f 365 531 367
f 278 112 110
f 108 278 110
f 423 413 412
f 421 423 412
f 421 412 411
f 411 410 421
f 212 541 3
f 3 541 542
f 3 542 1
f 1 542 543
f 1 543 123
f 123 543 544
f 123 544 125
f 125 544 545
f 125 545 127
f 127 545 546
f 127 546 129
f 129 546 547
f 129 547 131
f 131 547 548
f 131 548 133
f 133 548 549
f 133 549 135
f 135 549 550
f 135 550 137
f 137 550 551
f 137 551 139
f 139 551 552
f 139 552 141
f 141 552 553
f 141 553 143
f 143 553 554
f 143 554 145
f 145 554 555
f 145 555 147
f 147 555 556
f 147 556 152
f 152 556 557
f 152 557 155
f 155 557 558
f 155 558 158
f 158 558 559
f 158 559 161
f 161 559 560
f 161 560 164
f 164 560 561
f 164 561 167
f 167 561 562
f 167 562 170
f 170 562 563
f 170 563 173
f 173 563 564
f 173 564 176
f 176 564 565
f 176 565 179
f 179 565 566
f 179 566 182
f 182 566 567
f 182 567 185
f 185 567 568
f 185 568 188
f 188 568 569
f 188 569 192
f 192 569 570
f 192 570 194
f 194 570 571
f 194 571 196
f 196 571 572
f 196 572 198
f 198 572 573
f 198 573 200
f 200 573 574
f 200 574 202
f 202 574 575
f 202 575 204
f 204 575 576
f 204 576 206
f 206 576 577
f 206 577 208
f 208 577 578
f 208 578 210
f 210 578 579
f 210 579 212
f 212 579 541
f 580 543 581
f 581 543 542
f 581 542 541
f 543 580 544
f 544 580 582
f 544 582 545
f 545 582 583
f 545 583 546
f 546 583 584
f 546 584 547
f 547 584 585
f 547 585 548
f 548 585 549
f 549 585 586
f 549 586 550
f 550 586 587
f 550 587 551
f 551 587 588
f 551 588 552
f 552 588 589
f 552 589 553
f 553 589 554
f 554 589 590
f 554 590 555
f 555 590 591
f 555 591 556
f 556 591 592
f 556 592 557
f 557 592 593
f 557 593 558
f 558 593 594
f 558 594 559
f 559 594 560
f 560 594 595
f 560 595 561
f 561 595 596
f 561 596 562
f 562 596 597
f 562 597 563
f 563 597 598
f 563 598 564
f 564 598 565
f 565 598 599
f 565 599 566
f 566 599 600
f 566 600 567
f 567 600 601
f 567 601 568
f 568 601 602
f 568 602 569
f 569 602 603
f 569 603 570
f 570 603 571
f 571 603 604
f 571 604 572
f 572 604 605
f 572 605 573
f 573 605 606
f 573 606 574
f 574 606 607
f 574 607 575
f 575 607 576
f 576 607 608
f 576 608 577
f 577 608 609
f 577 609 578
f 578 609 610
f 578 610 579
f 579 610 611
f 579 611 541
f 541 611 581
f 612 613 614
f 614 613 615
f 614 615 616
f 613 612 617
f 617 612 618
f 617 618 619
f 619 618 620
f 619 620 621
f 621 620 622
f 622 620 623
f 622 623 624
f 624 623 625
f 624 625 626
f 626 625 627
f 626 627 628
f 628 627 629
f 629 627 630
f 629 630 631
f 631 630 632
f 631 632 633
f 633 632 634
f 633 634 635
f 635 634 636
f 636 634 637
f 636 637 638
f 638 637 639
f 638 639 640
f 640 639 641
f 640 641 642
f 642 641 643
f 643 641 644
f 643 644 645
f 645 644 646
f 645 646 647
f 647 646 648
f 647 648 649
f 649 648 650
f 650 648 651
f 650 651 652
f 652 651 653
f 652 653 654
f 654 653 655
f 654 655 656
f 656 655 657
f 657 655 658
f 657 658 659
f 659 658 660
f 659 660 661
f 661 660 662
f 661 662 663
f 663 662 664
f 664 662 665
f 664 665 666
f 666 665 667
f 666 667 616
f 616 667 614
f 217 668 215
f 215 668 669
f 215 669 213
f 213 669 670
f 213 670 255
f 255 670 671
f 255 671 257
f 257 671 672
f 257 672 259
f 259 672 673
f 259 673 261
f 261 673 674
f 261 674 263
f 263 674 675
f 263 675 265
f 265 675 676
f 265 676 279
f 279 676 677
f 279 677 285
f 285 677 678
f 285 678 290
f 290 678 679
f 290 679 291
f 291 679 680
f 291 680 292
f 292 680 681
f 292 681 293
f 293 681 682
f 293 682 120
f 120 682 683
f 120 683 121
f 121 683 684
f 121 684 295
f 295 684 685
f 295 685 297
f 297 685 686
f 297 686 299
f 299 686 687
f 299 687 301
f 301 687 688
f 301 688 303
f 303 688 689
f 303 689 317
f 317 689 690
f 317 690 323
f 323 690 691
f 323 691 328
f 328 691 692
f 328 692 332
f 332 692 693
f 332 693 335
f 335 693 694
f 335 694 338
f 338 694 695
f 338 695 340
f 340 695 696
f 340 696 342
f 342 696 697
f 342 697 344
f 344 697 698
f 344 698 346
f 346 698 699
f 346 699 348
f 348 699 700
f 348 700 350
f 350 700 701
f 350 701 227
f 227 701 702
f 227 702 225
f 225 702 703
f 225 703 223
f 223 703 704
f 223 704 221
f 221 704 705
f 221 705 219
f 219 705 706
f 219 706 217
f 217 706 668
f 670 669 642
f 642 669 668
f 642 668 640
f 640 668 706
f 640 706 638
f 638 706 705
f 638 705 636
f 636 705 704
f 636 704 635
f 635 704 703
f 635 703 633
f 633 703 702
f 633 702 701
f 633 701 631
f 631 701 700
f 631 700 629
f 629 700 699
f 629 699 628
f 628 699 698
f 628 698 626
f 626 698 697
f 626 697 696
f 626 696 624
f 624 696 695
f 624 695 622
f 622 695 694
f 622 694 621
f 621 694 693
f 621 693 619
f 619 693 692
f 619 692 617
f 617 692 691
f 617 691 690
f 617 690 613
f 613 690 689
f 613 689 615
f 615 689 688
f 615 688 616
f 616 688 687
f 616 687 666
f 666 687 686
f 666 686 685
f 666 685 664
f 664 685 684
f 664 684 663
f 663 684 683
f 663 683 661
f 661 683 682
f 661 682 659
f 659 682 681
f 659 681 657
f 657 681 680
f 657 680 679
f 657 679 656
f 656 679 678
f 656 678 654
f 654 678 677
f 654 677 652
f 652 677 676
f 652 676 650
f 650 676 675
f 650 675 674
f 650 674 649
f 649 674 673
f 649 673 647
f 647 673 672
f 647 672 645
f 645 672 671
f 645 671 643
f 643 671 670
f 643 670 642
f 667 707 614
f 614 707 708
f 614 708 612
f 612 708 709
f 612 709 618
f 618 709 710
f 618 710 620
f 620 710 711
f 620 711 623
f 623 711 712
f 623 712 625
f 625 712 713
f 625 713 627
f 627 713 714
f 627 714 630
f 630 714 715
f 630 715 632
f 632 715 716
f 632 716 634
f 634 716 717
f 634 717 637
f 637 717 718
f 637 718 639
f 639 718 719
f 639 719 641
f 641 719 720
f 641 720 644
f 644 720 721
f 644 721 646
f 646 721 722
f 646 722 648
f 648 722 723
f 648 723 651
f 651 723 724
f 651 724 653
f 653 724 725
f 653 725 655
f 655 725 726
f 655 726 658
f 658 726 727
f 658 727 660
f 660 727 728
f 660 728 662
f 662 728 729
f 662 729 665
f 665 729 730
f 665 730 667
f 667 730 707
f 707 597 708
f 708 597 596
f 708 596 595
f 597 707 598
f 598 707 730
f 598 730 599
f 599 730 729
f 599 729 600
f 600 729 601
f 601 729 728
f 601 728 602
f 602 728 727
f 602 727 603
f 603 727 726
f 603 726 604
f 604 726 605
f 605 726 725
f 605 725 606
f 606 725 724
f 606 724 607
f 607 724 723
f 607 723 608
f 608 723 609
f 609 723 722
f 609 722 610
f 610 722 721
f 610 721 611
f 611 721 720
f 611 720 581
f 581 720 580
f 580 720 719
f 580 719 582
f 582 719 718
f 582 718 583
f 583 718 717
f 583 717 584
f 584 717 585
f 585 717 716
f 585 716 586
f 586 716 715
f 586 715 587
f 587 715 714
f 587 714 588
f 588 714 589
f 589 714 713
f 589 713 590
f 590 713 712
f 590 712 591
f 591 712 711
f 591 711 592
f 592 711 593
f 593 711 710
f 593 710 594
f 594 710 709
f 594 709 595
f 595 709 708

